<?xml version="1.0" encoding="UTF-8"?><svg id="Layer_2" xmlns="http://www.w3.org/2000/svg" viewBox="0 0 202.47 219.5"><g id="Layer_2-2"><path d="M201.84,204.58C185.27,155.02,133.28,49.91,111.26,6.18c-4.16-8.24-15.9-8.24-20.03,0C69.18,49.91,17.19,155.02.62,204.58c-3.58,10.66,9.01,19.45,17.7,12.34,24.37-20,51.34-59.32,82.92-59.32s58.52,39.31,82.9,59.32c8.69,7.11,21.28-1.68,17.7-12.34ZM101.24,140.47c-17.43,0-31.55-14.12-31.55-31.53s14.12-31.53,31.55-31.53,31.53,14.12,31.53,31.53-14.12,31.53-31.53,31.53Z"/></g></svg>