<?xml version="1.0" encoding="UTF-8"?>
<svg id="Layer_2" data-name="Layer 2" xmlns="http://www.w3.org/2000/svg" version="1.1" viewBox="0 0 161.4 130.9">
  <defs>
    <style>
      .cls-1 {
        fill: #00e;
        stroke-width: 0px;
      }

      .cls-2 {
        isolation: isolate;
      }
    </style>
  </defs>
  <g id="Layer_1-2" data-name="Layer 1-2">
    <path class="cls-1" d="M69,70.8c6.2-6,17.3-6,23.5,0,8.8,8.5,15.2,18.8,19.1,20.2,1.3.5,2.3-1.4,1.9-2.7L82.6,1.3c-.6-1.8-3.2-1.8-3.8,0l-30.8,87c-.5,1.3.6,3.2,1.9,2.7,3.9-1.4,10.3-11.7,19.1-20.2h0ZM79.2,41.2c6.2-1,11.4,4.2,10.4,10.4-.6,3.8-3.6,6.8-7.3,7.4-6.2,1-11.4-4.2-10.4-10.4.6-3.8,3.6-6.8,7.3-7.4Z"/>
    <g class="cls-2">
      <path class="cls-1" d="M.2,121.8l11.3-24.5h1.8l11.3,24.5h-1.9l-10.8-23.3h.8l-10.6,23.3H.2ZM4.3,114.9l.6-1.5h14.7l.6,1.5H4.3Z"/>
      <path class="cls-1" d="M28.4,121.8v-26h1.8v26h-1.8Z"/>
    </g>
    <g class="cls-2">
      <path class="cls-1" d="M44.9,122c-1.8,0-3.5-.4-4.9-1.2-1.4-.8-2.5-1.9-3.3-3.3s-1.2-3-1.2-4.8.4-3.4,1.1-4.8c.8-1.4,1.8-2.5,3.1-3.3s2.8-1.2,4.5-1.2,3.1.4,4.5,1.2c1.3.8,2.4,1.8,3.1,3.2.8,1.4,1.1,3,1.1,4.8v.5h-16.1v-1.4h15.2l-.7.7c0-1.4-.3-2.7-.9-3.8-.6-1.1-1.5-2-2.5-2.7s-2.3-1-3.6-1-2.6.3-3.6,1c-1.1.6-1.9,1.5-2.5,2.7-.6,1.1-.9,2.4-.9,3.9v.3c0,1.5.3,2.8,1,4s1.6,2.1,2.7,2.7c1.2.6,2.5,1,4,1s2.3-.2,3.3-.6,1.9-1.1,2.6-1.9l1,1.2c-.8,1-1.8,1.7-3,2.2-1.3.3-2.6.6-4,.6Z"/>
    </g>
    <g class="cls-2">
      <path class="cls-1" d="M55,121.8l7.6-9.9v.8l-7.2-9.2h2l6.3,8.1h-.7l6.2-8.1h2l-7.2,9.3v-.9l7.7,9.9h-2.1l-6.6-8.6h.7c0,0-6.6,8.6-6.6,8.6,0,0-2.1,0-2.1,0Z"/>
    </g>
    <g class="cls-2">
      <path class="cls-1" d="M85.6,121.8v-24.5h1.8v22.9h14.1v1.6h-15.9Z"/>
    </g>
    <g class="cls-2">
      <path class="cls-1" d="M112.6,122c-1.8,0-3.5-.4-4.9-1.2-1.4-.8-2.5-1.9-3.3-3.3s-1.2-3-1.2-4.8.4-3.4,1.1-4.8c.8-1.4,1.8-2.5,3.1-3.3s2.8-1.2,4.5-1.2,3.1.4,4.5,1.2c1.3.8,2.4,1.8,3.1,3.2.8,1.4,1.1,3,1.1,4.8v.5h-16.1v-1.4h15.2l-.7.7c0-1.4-.3-2.7-.9-3.8-.6-1.1-1.5-2-2.5-2.7-1.1-.6-2.3-1-3.6-1s-2.6.3-3.6,1c-1.1.6-1.9,1.5-2.5,2.7-.6,1.1-.9,2.4-.9,3.9v.3c0,1.5.3,2.8,1,4s1.6,2.1,2.7,2.7,2.5,1,4,1,2.3-.2,3.3-.6,1.9-1.1,2.6-1.9l1,1.2c-.8,1-1.8,1.7-3,2.2-1.3.3-2.6.6-4,.6Z"/>
    </g>
    <g class="cls-2">
      <path class="cls-1" d="M130.4,121.8l-8.2-18.3h1.9l7.7,17.3h-.8l7.8-17.3h1.8l-8.3,18.3h-1.9Z"/>
    </g>
    <g class="cls-2">
      <path class="cls-1" d="M146.3,128.8c-.8,0-1.6-.1-2.4-.4-.7-.3-1.4-.7-1.9-1.2l.9-1.3c.5.5,1,.9,1.5,1.1s1.2.3,1.9.3,1.6-.2,2.2-.7c.6-.5,1.2-1.3,1.8-2.6l1.3-2.8.2-.3,7.7-17.3h1.8l-9.4,20.8c-.5,1.1-1,2-1.6,2.6s-1.2,1.1-1.9,1.4c-.6.2-1.3.4-2.1.4ZM151.5,122.3l-8.5-18.7h1.9l7.7,17.2-1.1,1.5Z"/>
    </g>
  </g>
</svg>