<?xml version="1.0" encoding="UTF-8"?><svg id="Layer_2" xmlns="http://www.w3.org/2000/svg" viewBox="0 0 392.46 476.99"><defs><style>.cls-1{fill:#fff;}</style></defs><g id="Layer_2-2"><path class="cls-1" d="M309.45,204.58c-16.57-49.57-68.56-154.68-90.58-198.41-4.16-8.24-15.9-8.24-20.03,0-22.05,43.73-74.04,148.84-90.61,198.41-3.58,10.66,9.01,19.45,17.7,12.34,24.37-20,51.34-59.32,82.92-59.32s58.52,39.31,82.9,59.32c8.69,7.11,21.28-1.68,17.7-12.34ZM208.86,140.47c-17.43,0-31.55-14.12-31.55-31.53s14.12-31.53,31.55-31.53,31.53,14.12,31.53,31.53-14.12,31.53-31.53,31.53Z"/><path class="cls-1" d="M46.47,261.82L0,364.44h15.1l11.27-25.66h54.57l11.27,25.66h15.39l-46.62-102.62h-14.51ZM31.53,327.06l22.13-50.36,22.13,50.36H31.53Z"/><polygon class="cls-1" points="138.98 261.82 124.32 261.82 124.32 364.44 194.54 364.44 194.54 351.69 138.98 351.69 138.98 261.82"/><polygon class="cls-1" points="226.06 318.55 277.52 318.55 277.52 306.09 226.06 306.09 226.06 274.57 283.83 274.57 283.83 261.82 211.4 261.82 211.4 364.44 285.88 364.44 285.88 351.69 226.06 351.69 226.06 318.55"/><polygon class="cls-1" points="392.46 364.44 353.65 311.37 389.82 261.82 373.84 261.82 345.37 301.18 316.66 261.82 299.95 261.82 336.16 311.85 297.61 364.44 314.47 364.44 344.83 322.14 375.6 364.44 392.46 364.44"/><polygon class="cls-1" points="57.46 398.65 53.66 398.65 53.66 476.99 103.35 476.99 103.35 473.52 57.46 473.52 57.46 398.65"/><polygon class="cls-1" points="122.59 438.94 165.12 438.94 165.12 435.47 122.59 435.47 122.59 402.12 170.15 402.12 170.15 398.65 118.79 398.65 118.79 476.99 171.72 476.99 171.72 473.52 122.59 473.52 122.59 438.94"/><polygon class="cls-1" points="221.69 472.04 188.84 398.65 184.59 398.65 219.73 476.99 223.42 476.99 258.56 398.65 254.53 398.65 221.69 472.04"/><polygon class="cls-1" points="338.8 398.65 334.77 398.65 305.17 446.57 275.68 398.65 271.54 398.65 303.21 450.24 303.21 476.99 307.02 476.99 307.02 450.24 338.8 398.65"/></g></svg>