<?xml version="1.0" encoding="utf-8"?>
<!-- Generator: Adobe Illustrator 28.2.0, SVG Export Plug-In . SVG Version: 6.00 Build 0)  -->
<svg version="1.1" id="Layer_2_00000124157804308015800010000009733997102496885160_"
	 xmlns="http://www.w3.org/2000/svg" xmlns:xlink="http://www.w3.org/1999/xlink" x="0px" y="0px" viewBox="0 0 161.4 130.9"
	 style="enable-background:new 0 0 161.4 130.9;" xml:space="preserve">
<style type="text/css">
	.st0{fill:#FFFFFF;}
	.st1{enable-background:new    ;}
</style>
<g id="Layer_1-2">
	<path class="st0" d="M69,70.8c6.2-6,17.3-6,23.5,0c8.8,8.5,15.2,18.8,19.1,20.2c1.3,0.5,2.3-1.4,1.9-2.7l-30.9-87
		c-0.6-1.8-3.2-1.8-3.8,0L48,88.3c-0.5,1.3,0.6,3.2,1.9,2.7C53.8,89.6,60.2,79.3,69,70.8L69,70.8z M79.2,41.2
		c6.2-1,11.4,4.2,10.4,10.4C89,55.4,86,58.4,82.3,59c-6.2,1-11.4-4.2-10.4-10.4C72.5,44.8,75.5,41.8,79.2,41.2z"/>
	<g class="st1">
		<path class="st0" d="M0.2,121.8l11.3-24.5h1.8l11.3,24.5h-1.9L11.9,98.5h0.8L2.1,121.8H0.2z M4.3,114.9l0.6-1.5h14.7l0.6,1.5H4.3z
			"/>
		<path class="st0" d="M28.4,121.8v-26h1.8v26H28.4z"/>
	</g>
	<g class="st1">
		<path class="st0" d="M44.9,122c-1.8,0-3.5-0.4-4.9-1.2c-1.4-0.8-2.5-1.9-3.3-3.3c-0.8-1.4-1.2-3-1.2-4.8c0-1.8,0.4-3.4,1.1-4.8
			c0.8-1.4,1.8-2.5,3.1-3.3s2.8-1.2,4.5-1.2s3.1,0.4,4.5,1.2c1.3,0.8,2.4,1.8,3.1,3.2c0.8,1.4,1.1,3,1.1,4.8c0,0.1,0,0.1,0,0.2
			c0,0.1,0,0.2,0,0.3H36.8v-1.4H52l-0.7,0.7c0-1.4-0.3-2.7-0.9-3.8c-0.6-1.1-1.5-2-2.5-2.7s-2.3-1-3.6-1c-1.4,0-2.6,0.3-3.6,1
			c-1.1,0.6-1.9,1.5-2.5,2.7c-0.6,1.1-0.9,2.4-0.9,3.9v0.3c0,1.5,0.3,2.8,1,4c0.7,1.2,1.6,2.1,2.7,2.7c1.2,0.6,2.5,1,4,1
			c1.2,0,2.3-0.2,3.3-0.6c1-0.4,1.9-1.1,2.6-1.9l1,1.2c-0.8,1-1.8,1.7-3,2.2C47.6,121.7,46.3,122,44.9,122z"/>
	</g>
	<g class="st1">
		<path class="st0" d="M55,121.8l7.6-9.9l0,0.8l-7.2-9.2h2l6.3,8.1h-0.7l6.2-8.1h2l-7.2,9.3l0-0.9l7.7,9.9h-2.1l-6.6-8.6l0.7,0.1
			l-6.6,8.5H55z"/>
	</g>
	<g class="st1">
		<path class="st0" d="M85.6,121.8V97.3h1.8v22.9h14.1v1.6H85.6z"/>
	</g>
	<g class="st1">
		<path class="st0" d="M112.6,122c-1.8,0-3.5-0.4-4.9-1.2c-1.4-0.8-2.5-1.9-3.3-3.3c-0.8-1.4-1.2-3-1.2-4.8c0-1.8,0.4-3.4,1.1-4.8
			c0.8-1.4,1.8-2.5,3.1-3.3s2.8-1.2,4.5-1.2s3.1,0.4,4.5,1.2c1.3,0.8,2.4,1.8,3.1,3.2c0.8,1.4,1.1,3,1.1,4.8c0,0.1,0,0.1,0,0.2
			c0,0.1,0,0.2,0,0.3h-16.1v-1.4h15.2l-0.7,0.7c0-1.4-0.3-2.7-0.9-3.8c-0.6-1.1-1.5-2-2.5-2.7c-1.1-0.6-2.3-1-3.6-1
			c-1.4,0-2.6,0.3-3.6,1c-1.1,0.6-1.9,1.5-2.5,2.7c-0.6,1.1-0.9,2.4-0.9,3.9v0.3c0,1.5,0.3,2.8,1,4c0.7,1.2,1.6,2.1,2.7,2.7
			s2.5,1,4,1c1.2,0,2.3-0.2,3.3-0.6c1-0.4,1.9-1.1,2.6-1.9l1,1.2c-0.8,1-1.8,1.7-3,2.2C115.3,121.7,114,122,112.6,122z"/>
	</g>
	<g class="st1">
		<path class="st0" d="M130.4,121.8l-8.2-18.3h1.9l7.7,17.3h-0.8l7.8-17.3h1.8l-8.3,18.3H130.4z"/>
	</g>
	<g class="st1">
		<path class="st0" d="M146.3,128.8c-0.8,0-1.6-0.1-2.4-0.4c-0.7-0.3-1.4-0.7-1.9-1.2l0.9-1.3c0.5,0.5,1,0.9,1.5,1.1
			c0.5,0.2,1.2,0.3,1.9,0.3c0.8,0,1.6-0.2,2.2-0.7c0.6-0.5,1.2-1.3,1.8-2.6l1.3-2.8l0.2-0.3l7.7-17.3h1.8l-9.4,20.8
			c-0.5,1.1-1,2-1.6,2.6c-0.6,0.6-1.2,1.1-1.9,1.4C147.8,128.6,147.1,128.8,146.3,128.8z M151.5,122.3l-8.5-18.7h1.9l7.7,17.2
			L151.5,122.3z"/>
	</g>
</g>
</svg>
