<?xml version="1.0" encoding="UTF-8"?><svg id="Layer_2" xmlns="http://www.w3.org/2000/svg" viewBox="0 0 431.41 559.87"><defs><style>.cls-1{fill:#fff;}</style></defs><g id="Layer_2-2"><path class="cls-1" d="M76.1,307.36l-43.32,95.67h14.08l10.51-23.92h50.87l10.51,23.92h14.35l-43.46-95.67h-13.53ZM62.16,368.18l20.63-46.94,20.63,46.94h-41.26Z"/><polygon class="cls-1" points="162.33 307.36 148.67 307.36 148.67 403.03 214.13 403.03 214.13 391.14 162.33 391.14 162.33 307.36"/><polygon class="cls-1" points="243.52 360.26 291.49 360.26 291.49 348.64 243.52 348.64 243.52 319.25 297.37 319.25 297.37 307.36 229.85 307.36 229.85 403.03 299.28 403.03 299.28 391.14 243.52 391.14 243.52 360.26"/><polygon class="cls-1" points="398.64 403.03 362.46 353.55 396.18 307.36 381.28 307.36 354.74 344.06 327.98 307.36 312.4 307.36 346.15 354 310.21 403.03 325.93 403.03 354.24 363.6 382.92 403.03 398.64 403.03"/><polygon class="cls-1" points="5.76 441.35 0 441.35 0 559.87 75.18 559.87 75.18 554.62 5.76 554.62 5.76 441.35"/><polygon class="cls-1" points="104.3 502.3 168.64 502.3 168.64 497.05 104.3 497.05 104.3 446.6 176.25 446.6 176.25 441.35 98.54 441.35 98.54 559.87 178.62 559.87 178.62 554.62 104.3 554.62 104.3 502.3"/><polygon class="cls-1" points="254.22 552.38 204.53 441.35 198.1 441.35 251.26 559.87 256.85 559.87 310.01 441.35 303.92 441.35 254.22 552.38"/><polygon class="cls-1" points="431.41 441.35 425.31 441.35 380.53 513.85 335.92 441.35 329.65 441.35 377.57 519.4 377.57 559.87 383.32 559.87 383.32 519.4 431.41 441.35"/><path class="cls-1" d="M180.35,212.64c18.68-18.09,52.03-18.09,70.71,0,26.46,25.62,45.51,56.48,57.5,60.83,3.9,1.41,7.06-4.11,5.68-8.05L221.38,4.01c-1.89-5.35-9.46-5.35-11.35,0l-92.85,261.38c-1.38,3.93,1.77,9.46,5.68,8.05,11.99-4.36,31.06-35.21,57.5-60.83v.03h0ZM211.11,123.81c18.57-3.04,34.39,12.77,31.33,31.33-1.83,11.23-10.9,20.31-22.14,22.14-18.57,3.04-34.39-12.77-31.33-31.33,1.83-11.23,10.9-20.31,22.14-22.14Z"/></g></svg>