<?xml version="1.0" encoding="UTF-8"?><svg id="Layer_1" xmlns="http://www.w3.org/2000/svg" viewBox="0 0 750 450"><defs><style>.cls-1{letter-spacing:-.01em;}.cls-2{font-family:Montserrat-Medium, Montserrat;font-size:20px;font-weight:500;}.cls-3{letter-spacing:0em;}.cls-4{letter-spacing:0em;}.cls-5{fill:#00e;}.cls-6{letter-spacing:-.01em;}.cls-7{letter-spacing:-.02em;}.cls-8{letter-spacing:-.02em;}.cls-9{letter-spacing:-.14em;}.cls-10{letter-spacing:0em;}.cls-11{letter-spacing:0em;}.cls-12{letter-spacing:-.02em;}.cls-13{letter-spacing:0em;}.cls-14{font-family:Montserrat-Bold, Montserrat;font-size:32px;font-weight:700;}.cls-15{fill:#fff;font-size:24px;}.cls-16{letter-spacing:0em;}.cls-17{letter-spacing:.03em;}.cls-18{letter-spacing:.01em;}.cls-19{letter-spacing:0em;}.cls-20{font-family:Montserrat-SemiBold, Montserrat;font-weight:600;}.cls-21{font-family:Montserrat-Regular, Montserrat;}.cls-22{letter-spacing:0em;}.cls-23{letter-spacing:0em;}.cls-24{letter-spacing:0em;}.cls-25{letter-spacing:-.01em;}.cls-26{letter-spacing:-.02em;}.cls-27{isolation:isolate;}.cls-28{letter-spacing:0em;}.cls-29{letter-spacing:0em;}</style></defs><g id="Layer_1-2"><path class="cls-5" d="m698.36,413.89c2.8-2.71,7.8-2.71,10.6,0,3.97,3.84,6.82,8.47,8.62,9.12.59.21,1.06-.62.85-1.21l-13.92-39.18c-.28-.8-1.42-.8-1.7,0l-13.92,39.18c-.21.59.27,1.42.85,1.21,1.8-.65,4.66-5.28,8.62-9.12h0Zm4.61-13.31c2.78-.45,5.16,1.91,4.7,4.7-.27,1.68-1.63,3.04-3.32,3.32-2.78.45-5.16-1.91-4.7-4.7.27-1.68,1.63-3.04,3.32-3.32Z"/><g class="cls-27"><g class="cls-27"><path class="cls-5" d="m667.37,436.88l5.07-11.03h.8l5.07,11.03h-.87l-4.79-10.53h.35l-4.78,10.53h-.87Zm1.86-3.1l.27-.68h6.6l.27.68h-7.14Z"/><path class="cls-5" d="m680.08,436.88v-11.69h.79v11.69h-.79Z"/></g><g class="cls-27"><path class="cls-5" d="m687.53,436.94c-.83,0-1.56-.18-2.2-.54-.64-.36-1.13-.85-1.5-1.48-.36-.63-.54-1.35-.54-2.16s.17-1.54.51-2.17c.34-.63.81-1.12,1.41-1.47s1.27-.54,2.02-.54,1.42.17,2.01.52c.59.35,1.06.83,1.4,1.46.34.63.51,1.35.51,2.17,0,.03,0,.07,0,.1,0,.04,0,.08,0,.12h-7.27v-.61h6.84l-.32.3c.01-.64-.12-1.22-.4-1.73s-.65-.91-1.13-1.2-1.02-.43-1.64-.43-1.15.14-1.63.43c-.48.29-.85.69-1.13,1.2s-.41,1.09-.41,1.74v.14c0,.67.15,1.27.45,1.79.3.52.71.92,1.24,1.21s1.12.43,1.8.43c.53,0,1.02-.09,1.47-.28.46-.19.84-.48,1.16-.87l.46.52c-.36.44-.81.77-1.35,1-.54.23-1.13.34-1.76.34Z"/></g><g class="cls-27"><path class="cls-5" d="m692.05,436.88l3.42-4.44-.02.38-3.23-4.16h.9l2.82,3.64h-.33l2.81-3.64h.88l-3.26,4.21.02-.43,3.47,4.44h-.93l-2.98-3.88.3.03-2.96,3.85h-.9Z"/></g><g class="cls-27"><path class="cls-5" d="m705.84,436.88v-11.03h.8v10.31h6.35v.73h-7.16Z"/></g><g class="cls-27"><path class="cls-5" d="m718.01,436.94c-.83,0-1.56-.18-2.2-.54s-1.13-.85-1.5-1.48c-.36-.63-.54-1.35-.54-2.16s.17-1.54.51-2.17c.34-.63.81-1.12,1.41-1.47s1.27-.54,2.02-.54,1.42.17,2.01.52c.59.35,1.06.83,1.4,1.46.34.63.51,1.35.51,2.17,0,.03,0,.07,0,.1,0,.04,0,.08,0,.12h-7.27v-.61h6.84l-.32.3c.01-.64-.12-1.22-.4-1.73-.28-.51-.65-.91-1.13-1.2s-1.02-.43-1.64-.43-1.15.14-1.63.43-.85.69-1.13,1.2c-.27.51-.41,1.09-.41,1.74v.14c0,.67.15,1.27.45,1.79.3.52.71.92,1.24,1.21.53.29,1.12.43,1.8.43.53,0,1.02-.09,1.47-.28.46-.19.84-.48,1.16-.87l.46.52c-.36.44-.81.77-1.35,1-.54.23-1.13.34-1.76.34Z"/></g><g class="cls-27"><path class="cls-5" d="m726,436.88l-3.7-8.23h.84l3.47,7.78h-.38l3.5-7.78h.8l-3.72,8.23h-.8Z"/></g><g class="cls-27"><path class="cls-5" d="m733.15,440c-.38,0-.73-.06-1.06-.19-.33-.13-.61-.31-.84-.55l.39-.6c.21.22.44.38.69.49.25.11.53.16.84.16.38,0,.71-.11,1-.31.29-.21.56-.59.81-1.15l.57-1.26.11-.14,3.48-7.78h.8l-4.22,9.35c-.22.5-.46.9-.72,1.19-.26.29-.54.5-.84.62-.3.13-.64.19-1.01.19Zm2.38-2.92l-3.81-8.43h.84l3.47,7.74-.49.69Z"/></g></g></g><rect class="cls-5" width="750" height="111.06"/><rect class="cls-5" x="-369.47" y="480.53" width="750" height="11.06" transform="translate(491.58 480.53) rotate(90)"/><text class="cls-15" transform="translate(10.15 33.6)"><tspan class="cls-20"><tspan x="0" y="0">H</tspan><tspan class="cls-26" x="19.44" y="0">o</tspan><tspan x="34.56" y="0">w of</tspan><tspan class="cls-8" x="87.57" y="0">t</tspan><tspan x="97.32" y="0">en do </tspan><tspan class="cls-6" x="173.9" y="0">y</tspan><tspan x="187.41" y="0">ou </tspan><tspan class="cls-28" x="225.86" y="0">c</tspan><tspan x="239.68" y="0">ha</tspan><tspan class="cls-3" x="270.69" y="0">n</tspan><tspan x="287.16" y="0">ge t</tspan><tspan class="cls-29" x="335.54" y="0">h</tspan><tspan x="352" y="0">e design</tspan></tspan><tspan class="cls-20"><tspan x="0" y="28.8">of </tspan><tspan class="cls-26" x="30.96" y="28.8">y</tspan><tspan x="44.47" y="28.8">our </tspan><tspan class="cls-19" x="93" y="28.8">c</tspan><tspan x="106.75" y="28.8">ourse </tspan><tspan class="cls-3" x="182.57" y="28.8">f</tspan><tspan class="cls-24" x="191.44" y="28.8">r</tspan><tspan x="201.29" y="28.8">om se</tspan><tspan class="cls-3" x="275.95" y="28.8">m</tspan><tspan x="301.24" y="28.8">es</tspan><tspan class="cls-8" x="328.53" y="28.8">t</tspan><tspan x="338.28" y="28.8">er </tspan><tspan class="cls-8" x="369.91" y="28.8">t</tspan><tspan x="379.65" y="28.8">o se</tspan><tspan class="cls-3" x="429.04" y="28.8">m</tspan><tspan x="454.34" y="28.8">es</tspan><tspan class="cls-8" x="481.63" y="28.8">t</tspan><tspan x="491.37" y="28.8">er </tspan></tspan><tspan class="cls-21"><tspan x="0" y="57.6">(</tspan><tspan class="cls-26" x="7.9" y="57.6">e</tspan><tspan class="cls-12" x="22.03" y="57.6">x</tspan><tspan class="cls-19" x="34.39" y="57.6">c</tspan><tspan x="47.71" y="57.6">luding minor </tspan><tspan class="cls-16" x="211.08" y="57.6">c</tspan><tspan class="cls-11" x="224.4" y="57.6">hanges su</tspan><tspan class="cls-16" x="347.78" y="57.6">c</tspan><tspan x="361.1" y="57.6">h as adjusting the s</tspan><tspan class="cls-16" x="594.24" y="57.6">c</tspan><tspan class="cls-11" x="607.56" y="57.6">hedule)</tspan></tspan></text><text transform="translate(202.19 186.97)"><tspan class="cls-14"><tspan x="0" y="0">50%</tspan></tspan><tspan class="cls-2"><tspan x="0" y="24">Almost </tspan><tspan class="cls-1" x="77.74" y="24">e</tspan><tspan class="cls-25" x="89.78" y="24">v</tspan><tspan class="cls-10" x="100.66" y="24">e</tspan><tspan class="cls-18" x="112.9" y="24">r</tspan><tspan x="121.4" y="24">y semes</tspan><tspan class="cls-7" x="203.62" y="24">t</tspan><tspan class="cls-10" x="211.54" y="24">er</tspan></tspan></text><rect class="cls-5" x="67.5" y="102.67" width="60.95" height="173.83" transform="translate(287.55 91.61) rotate(90)"/><text transform="translate(165.64 279.78)"><tspan class="cls-14"><tspan class="cls-4" x="0" y="0">3</tspan><tspan class="cls-9" x="18.66" y="0">7</tspan><tspan class="cls-17" x="34.02" y="0">.</tspan><tspan class="cls-1" x="43.36" y="0">5</tspan><tspan class="cls-22" x="62.08" y="0">%</tspan></tspan><tspan class="cls-2"><tspan x="0" y="24">Sometimes</tspan></tspan></text><rect class="cls-5" x="45.77" y="215.34" width="60.95" height="130.37" transform="translate(356.77 204.29) rotate(90)"/><text transform="translate(76.24 370.79)"><tspan class="cls-14"><tspan x="0" y="0">1</tspan><tspan class="cls-13" x="12.54" y="0">2</tspan><tspan class="cls-23" x="31.74" y="0">.</tspan><tspan class="cls-1" x="40.13" y="0">5</tspan><tspan x="58.85" y="0">%</tspan></tspan><tspan class="cls-2"><tspan x="0" y="24">Of</tspan><tspan class="cls-7" x="23.86" y="24">t</tspan><tspan class="cls-10" x="31.78" y="24">en</tspan></tspan></text><rect class="cls-5" x="2.31" y="349.75" width="60.95" height="43.46" transform="translate(404.26 338.69) rotate(90)"/></svg>