<?xml version="1.0" encoding="UTF-8"?><svg id="Layer_2" xmlns="http://www.w3.org/2000/svg" viewBox="0 0 392.46 215.17"><defs><style>.cls-1{fill:#2156a6;}</style></defs><g id="Layer_2-2"><path class="cls-1" d="M46.47,0L0,102.62h15.1l11.27-25.66h54.57l11.27,25.66h15.39L60.99,0h-14.51ZM31.53,65.24L53.66,14.88l22.13,50.36H31.53Z"/><polygon class="cls-1" points="138.98 0 124.32 0 124.32 102.62 194.54 102.62 194.54 89.87 138.98 89.87 138.98 0"/><polygon class="cls-1" points="226.06 56.74 277.52 56.74 277.52 44.27 226.06 44.27 226.06 12.75 283.83 12.75 283.83 0 211.4 0 211.4 102.62 285.88 102.62 285.88 89.87 226.06 89.87 226.06 56.74"/><polygon class="cls-1" points="392.46 102.62 353.65 49.55 389.82 0 373.84 0 345.37 39.37 316.66 0 299.95 0 336.16 50.03 297.61 102.62 314.47 102.62 344.83 60.32 375.6 102.62 392.46 102.62"/><polygon class="cls-1" points="57.46 136.83 53.66 136.83 53.66 215.17 103.35 215.17 103.35 211.7 57.46 211.7 57.46 136.83"/><polygon class="cls-1" points="122.59 177.12 165.12 177.12 165.12 173.65 122.59 173.65 122.59 140.3 170.15 140.3 170.15 136.83 118.79 136.83 118.79 215.17 171.72 215.17 171.72 211.7 122.59 211.7 122.59 177.12"/><polygon class="cls-1" points="221.69 210.22 188.84 136.83 184.59 136.83 219.73 215.17 223.42 215.17 258.56 136.83 254.53 136.83 221.69 210.22"/><polygon class="cls-1" points="338.8 136.83 334.77 136.83 305.17 184.75 275.68 136.83 271.54 136.83 303.21 188.42 303.21 215.17 307.02 215.17 307.02 188.43 338.8 136.83"/></g></svg>