<?xml version="1.0" encoding="UTF-8"?>
<svg id="Layer_2" data-name="Layer 2" xmlns="http://www.w3.org/2000/svg" version="1.1" viewBox="0 0 1920 788.1">
  <defs>
    <style>
      .cls-1 {
        fill: #00e;
        stroke-width: 0px;
      }

      .cls-2 {
        isolation: isolate;
      }
    </style>
  </defs>
  <g id="Layer_1-2" data-name="Layer 1-2">
    <path class="cls-1" d="M898,427.9c32.7-31.7,91.3-31.7,124,0,46.4,44.8,80.2,99.2,100.8,106.6,6.9,2.6,12.1-7.4,10-14.2L969.8,61.3c-3.2-9.5-16.9-9.5-20,0l-162.5,459c-2.6,6.9,3.2,16.9,10,14.2,20.6-7.4,54.3-61.7,100.8-106.6h0ZM951.8,271.8c32.7-5.3,60.1,22.2,54.9,54.9-3.2,20-19,35.9-38.5,39-32.7,5.3-60.1-22.2-54.9-54.9,3.2-20,19-35.9,38.5-39Z"/>
    <g class="cls-2">
      <path class="cls-1" d="M535,697l59.6-129.3h9.5l59.6,129.3h-10l-57-122.9h4.2l-55.9,122.9h-10ZM556.6,660.6l3.2-7.9h77.6l3.2,7.9h-83.9Z"/>
      <path class="cls-1" d="M683.8,697v-137.2h9.5v137.2h-9.5Z"/>
    </g>
    <g class="cls-2">
      <path class="cls-1" d="M770.8,698.1c-9.5,0-18.5-2.1-25.9-6.3-7.4-4.2-13.2-10-17.4-17.4s-6.3-15.8-6.3-25.3,2.1-17.9,5.8-25.3c4.2-7.4,9.5-13.2,16.4-17.4,6.9-4.2,14.8-6.3,23.7-6.3s16.4,2.1,23.7,6.3c6.9,4.2,12.7,9.5,16.4,16.9,4.2,7.4,5.8,15.8,5.8,25.3v2.6h-84.9v-7.4h80.2l-3.7,3.7c0-7.4-1.6-14.2-4.7-20-3.2-5.8-7.9-10.6-13.2-14.2-5.3-3.7-12.1-5.3-19-5.3s-13.7,1.6-19,5.3c-5.8,3.2-10,7.9-13.2,14.2-3.2,5.8-4.7,12.7-4.7,20.6v1.6c0,7.9,1.6,14.8,5.3,21.1,3.7,6.3,8.4,11.1,14.2,14.2,6.3,3.2,13.2,5.3,21.1,5.3s12.1-1.1,17.4-3.2c5.3-2.1,10-5.8,13.7-10l5.3,6.3c-4.2,5.3-9.5,9-15.8,11.6-6.9,1.6-13.7,3.2-21.1,3.2Z"/>
    </g>
    <g class="cls-2">
      <path class="cls-1" d="M824.1,697l40.1-52.2v4.2l-38-48.5h10.6l33.2,42.7h-3.7l32.7-42.7h10.6l-38,49.1v-4.7l40.6,52.2h-11.1l-34.8-45.4,3.7.5-34.8,44.8s-11.1,0-11.1,0Z"/>
    </g>
    <g class="cls-2">
      <path class="cls-1" d="M985.6,697v-129.3h9.5v120.8h74.4v8.4h-83.9Z"/>
    </g>
    <g class="cls-2">
      <path class="cls-1" d="M1128,698.1c-9.5,0-18.5-2.1-25.9-6.3-7.4-4.2-13.2-10-17.4-17.4-4.2-7.4-6.3-15.8-6.3-25.3s2.1-17.9,5.8-25.3c4.2-7.4,9.5-13.2,16.4-17.4s14.8-6.3,23.7-6.3,16.4,2.1,23.7,6.3c6.9,4.2,12.7,9.5,16.4,16.9,4.2,7.4,5.8,15.8,5.8,25.3v2.6h-84.9v-7.4h80.2l-3.7,3.7c0-7.4-1.6-14.2-4.7-20-3.2-5.8-7.9-10.6-13.2-14.2-5.8-3.2-12.1-5.3-19-5.3s-13.7,1.6-19,5.3c-5.8,3.2-10,7.9-13.2,14.2-3.2,5.8-4.7,12.7-4.7,20.6v1.6c0,7.9,1.6,14.8,5.3,21.1,3.7,6.3,8.4,11.1,14.2,14.2,5.8,3.2,13.2,5.3,21.1,5.3s12.1-1.1,17.4-3.2c5.3-2.1,10-5.8,13.7-10l5.3,6.3c-4.2,5.3-9.5,9-15.8,11.6-6.9,1.6-13.7,3.2-21.1,3.2Z"/>
    </g>
    <g class="cls-2">
      <path class="cls-1" d="M1222,697l-43.3-96.6h10l40.6,91.3h-4.2l41.2-91.3h9.5l-43.8,96.6h-10Z"/>
    </g>
    <g class="cls-2">
      <path class="cls-1" d="M1305.9,734c-4.2,0-8.4-.5-12.7-2.1-3.7-1.6-7.4-3.7-10-6.3l4.7-6.9c2.6,2.6,5.3,4.7,7.9,5.8s6.3,1.6,10,1.6,8.4-1.1,11.6-3.7c3.2-2.6,6.3-6.9,9.5-13.7l6.9-14.8,1.1-1.6,40.6-91.3h9.5l-49.6,109.7c-2.6,5.8-5.3,10.6-8.4,13.7-3.2,3.2-6.3,5.8-10,7.4-3.2,1.1-6.9,2.1-11.1,2.1ZM1333.3,699.7l-44.8-98.7h10l40.6,90.8-5.8,7.9Z"/>
    </g>
  </g>
</svg>