<?xml version="1.0" encoding="UTF-8"?><svg id="Layer_1" xmlns="http://www.w3.org/2000/svg" viewBox="0 0 750 450"><defs><style>.cls-1{letter-spacing:-.01em;}.cls-2{letter-spacing:0em;}.cls-3{fill:#00e;}.cls-4{font-family:Montserrat-Medium, Montserrat;font-size:16px;font-weight:500;}.cls-5{fill:#fff;font-family:Montserrat-SemiBold, Montserrat;font-size:24px;font-weight:600;}.cls-6{letter-spacing:0em;}.cls-7{letter-spacing:0em;}.cls-8{isolation:isolate;}.cls-9{letter-spacing:0em;}.cls-10{letter-spacing:0em;}</style></defs><g id="Layer_1-2"><path class="cls-3" d="m698.36,413.89c2.8-2.71,7.8-2.71,10.6,0,3.97,3.84,6.82,8.47,8.62,9.12.59.21,1.06-.62.85-1.21l-13.92-39.18c-.28-.8-1.42-.8-1.7,0l-13.92,39.18c-.21.59.27,1.42.85,1.21,1.8-.65,4.66-5.28,8.62-9.12h0Zm4.61-13.31c2.78-.45,5.16,1.91,4.7,4.7-.27,1.68-1.63,3.04-3.32,3.32-2.78.45-5.16-1.91-4.7-4.7.27-1.68,1.63-3.04,3.32-3.32Z"/><g class="cls-8"><g class="cls-8"><path class="cls-3" d="m667.37,436.88l5.07-11.03h.8l5.07,11.03h-.87l-4.79-10.53h.35l-4.78,10.53h-.87Zm1.86-3.1l.27-.68h6.6l.27.68h-7.14Z"/><path class="cls-3" d="m680.08,436.88v-11.69h.79v11.69h-.79Z"/></g><g class="cls-8"><path class="cls-3" d="m687.53,436.94c-.83,0-1.56-.18-2.2-.54-.64-.36-1.13-.85-1.5-1.48-.36-.63-.54-1.35-.54-2.16s.17-1.54.51-2.17c.34-.63.81-1.12,1.41-1.47s1.27-.54,2.02-.54,1.42.17,2.01.52c.59.35,1.06.83,1.4,1.46.34.63.51,1.35.51,2.17,0,.03,0,.07,0,.1,0,.04,0,.08,0,.12h-7.27v-.61h6.84l-.32.3c.01-.64-.12-1.22-.4-1.73s-.65-.91-1.13-1.2-1.02-.43-1.64-.43-1.15.14-1.63.43c-.48.29-.85.69-1.13,1.2s-.41,1.09-.41,1.74v.14c0,.67.15,1.27.45,1.79.3.52.71.92,1.24,1.21s1.12.43,1.8.43c.53,0,1.02-.09,1.47-.28.46-.19.84-.48,1.16-.87l.46.52c-.36.44-.81.77-1.35,1-.54.23-1.13.34-1.76.34Z"/></g><g class="cls-8"><path class="cls-3" d="m692.05,436.88l3.42-4.44-.02.38-3.23-4.16h.9l2.82,3.64h-.33l2.81-3.64h.88l-3.26,4.21.02-.43,3.47,4.44h-.93l-2.98-3.88.3.03-2.96,3.85h-.9Z"/></g><g class="cls-8"><path class="cls-3" d="m705.84,436.88v-11.03h.8v10.31h6.35v.73h-7.16Z"/></g><g class="cls-8"><path class="cls-3" d="m718.01,436.94c-.83,0-1.56-.18-2.2-.54s-1.13-.85-1.5-1.48c-.36-.63-.54-1.35-.54-2.16s.17-1.54.51-2.17c.34-.63.81-1.12,1.41-1.47s1.27-.54,2.02-.54,1.42.17,2.01.52c.59.35,1.06.83,1.4,1.46.34.63.51,1.35.51,2.17,0,.03,0,.07,0,.1,0,.04,0,.08,0,.12h-7.27v-.61h6.84l-.32.3c.01-.64-.12-1.22-.4-1.73-.28-.51-.65-.91-1.13-1.2s-1.02-.43-1.64-.43-1.15.14-1.63.43-.85.69-1.13,1.2c-.27.51-.41,1.09-.41,1.74v.14c0,.67.15,1.27.45,1.79.3.52.71.92,1.24,1.21.53.29,1.12.43,1.8.43.53,0,1.02-.09,1.47-.28.46-.19.84-.48,1.16-.87l.46.52c-.36.44-.81.77-1.35,1-.54.23-1.13.34-1.76.34Z"/></g><g class="cls-8"><path class="cls-3" d="m726,436.88l-3.7-8.23h.84l3.47,7.78h-.38l3.5-7.78h.8l-3.72,8.23h-.8Z"/></g><g class="cls-8"><path class="cls-3" d="m733.15,440c-.38,0-.73-.06-1.06-.19-.33-.13-.61-.31-.84-.55l.39-.6c.21.22.44.38.69.49.25.11.53.16.84.16.38,0,.71-.11,1-.31.29-.21.56-.59.81-1.15l.57-1.26.11-.14,3.48-7.78h.8l-4.22,9.35c-.22.5-.46.9-.72,1.19-.26.29-.54.5-.84.62-.3.13-.64.19-1.01.19Zm2.38-2.92l-3.81-8.43h.84l3.47,7.74-.49.69Z"/></g></g></g><rect class="cls-3" x="0" width="750" height="55.53"/><rect class="cls-3" x="-369.47" y="425" width="750" height="11.06" transform="translate(436.06 425) rotate(90)"/><text class="cls-5" transform="translate(10.15 34.62)"><tspan x="0" y="0">What </tspan><tspan class="cls-9" x="75.26" y="0">c</tspan><tspan x="89.09" y="0">halle</tspan><tspan class="cls-10" x="148.89" y="0">n</tspan><tspan x="165.36" y="0">ges do p</tspan><tspan class="cls-1" x="270.98" y="0">r</tspan><tspan x="280.82" y="0">o</tspan><tspan class="cls-7" x="296.3" y="0">f</tspan><tspan x="304.96" y="0">essors </tspan><tspan class="cls-1" x="389.16" y="0">f</tspan><tspan class="cls-2" x="397.77" y="0">a</tspan><tspan class="cls-7" x="412.36" y="0">c</tspan><tspan x="426.12" y="0">e with </tspan><tspan class="cls-6" x="509.9" y="0">c</tspan><tspan x="523.65" y="0">ourse design</tspan></text><text class="cls-4" transform="translate(78.68 201.29)"><tspan x="0" y="0">Working with outside clients on course projects, realistic timelines, </tspan><tspan x="0" y="19.2">working in student teams for project delivery </tspan></text><rect class="cls-3" x="35.9" y="205.95" width="56.89" height="1.14" transform="translate(270.86 142.18) rotate(90)"/><path class="cls-3" d="m38.51,192.64l-4.97,20.19-1.19-5.77c1.92,0,3.51.6,4.77,1.79,1.26,1.19,1.89,2.79,1.89,4.78s-.63,3.61-1.89,4.87c-1.26,1.26-2.82,1.89-4.68,1.89s-3.52-.65-4.77-1.94c-1.26-1.29-1.89-2.9-1.89-4.83,0-.66.05-1.29.15-1.89.1-.6.28-1.31.55-2.14.26-.83.63-1.84,1.09-3.03l4.68-13.93h6.27Zm18.8,0l-4.97,20.19-1.19-5.77c1.92,0,3.51.6,4.78,1.79,1.26,1.19,1.89,2.79,1.89,4.78s-.63,3.61-1.89,4.87c-1.26,1.26-2.82,1.89-4.68,1.89s-3.52-.65-4.78-1.94c-1.26-1.29-1.89-2.9-1.89-4.83,0-.66.05-1.29.15-1.89.1-.6.28-1.31.55-2.14.26-.83.63-1.84,1.09-3.03l4.68-13.93h6.27Z"/><text class="cls-4" transform="translate(78.69 386.36)"><tspan x="0" y="0">Knowing what topics, exercises, etc. will work </tspan><tspan x="0" y="19.2">since each semester is different</tspan></text><rect class="cls-3" x="35.9" y="390.93" width="56.89" height="1.14" transform="translate(455.84 327.15) rotate(90)"/><path class="cls-3" d="m38.51,377.62l-4.97,20.19-1.19-5.77c1.92,0,3.51.6,4.77,1.79,1.26,1.19,1.89,2.79,1.89,4.78s-.63,3.61-1.89,4.87c-1.26,1.26-2.82,1.89-4.68,1.89s-3.52-.65-4.77-1.94c-1.26-1.29-1.89-2.9-1.89-4.83,0-.66.05-1.29.15-1.89.1-.6.28-1.31.55-2.14.26-.83.63-1.84,1.09-3.03l4.68-13.93h6.27Zm18.8,0l-4.97,20.19-1.19-5.77c1.92,0,3.51.6,4.78,1.79,1.26,1.19,1.89,2.79,1.89,4.78s-.63,3.61-1.89,4.87c-1.26,1.26-2.82,1.89-4.68,1.89s-3.52-.65-4.78-1.94c-1.26-1.29-1.89-2.9-1.89-4.83,0-.66.05-1.29.15-1.89.1-.6.28-1.31.55-2.14.26-.83.63-1.84,1.09-3.03l4.68-13.93h6.27Z"/><path d="m80.37,295.31v-11.2h1.31l5.02,8.46h-.7l4.96-8.46h1.31l.02,11.2h-1.54l-.02-8.78h.37l-4.42,7.42h-.74l-4.45-7.42h.4v8.78h-1.54Z"/><path d="m97.9,295.41c-.63,0-1.18-.11-1.66-.32-.47-.21-.84-.51-1.1-.89-.26-.38-.38-.81-.38-1.29s.11-.87.33-1.25c.22-.37.58-.67,1.07-.9.5-.22,1.17-.34,2.01-.34h2.69v1.1h-2.62c-.77,0-1.29.13-1.55.38-.27.26-.4.57-.4.93,0,.42.17.75.5,1,.33.25.79.38,1.38.38s1.08-.13,1.51-.38c.43-.26.74-.63.94-1.12l.3,1.06c-.2.5-.56.9-1.07,1.19-.51.29-1.16.44-1.94.44Zm2.78-.1v-1.79l-.08-.34v-3.06c0-.65-.19-1.16-.57-1.51-.38-.36-.95-.54-1.7-.54-.5,0-.99.08-1.47.25-.48.17-.88.39-1.22.66l-.64-1.15c.44-.35.96-.62,1.58-.81.61-.19,1.26-.28,1.93-.28,1.16,0,2.06.28,2.69.85.63.57.94,1.43.94,2.59v5.12h-1.46Z"/><path d="m105.76,285.2c-.3,0-.55-.1-.74-.29-.2-.19-.3-.43-.3-.7s.1-.53.3-.72c.2-.19.45-.29.74-.29s.55.09.74.28.3.42.3.7-.1.53-.29.73c-.19.2-.44.3-.75.3Zm-.77,10.11v-8.48h1.54v8.48h-1.54Z"/><path d="m113.98,286.75c.69,0,1.3.13,1.83.4s.94.67,1.24,1.22.45,1.23.45,2.06v4.88h-1.54v-4.7c0-.82-.2-1.44-.6-1.86s-.96-.62-1.69-.62c-.54,0-1.02.11-1.42.32-.41.21-.72.53-.94.94s-.33.93-.33,1.55v4.37h-1.54v-8.48h1.47v2.29l-.24-.61c.28-.55.7-.99,1.28-1.3.58-.31,1.25-.46,2.02-.46Z"/><path d="m119.13,288.09v-1.26h5.41v1.26h-5.41Zm4.13,7.31c-.85,0-1.51-.23-1.98-.69s-.7-1.11-.7-1.97v-7.78h1.54v7.71c0,.46.11.81.34,1.06.23.25.56.37.98.37.48,0,.88-.13,1.2-.4l.48,1.1c-.23.2-.51.35-.84.45s-.66.14-1.02.14Z"/><path d="m129.45,295.41c-.63,0-1.18-.11-1.66-.32-.47-.21-.84-.51-1.1-.89-.26-.38-.38-.81-.38-1.29s.11-.87.33-1.25c.22-.37.58-.67,1.07-.9s1.17-.34,2.01-.34h2.69v1.1h-2.62c-.77,0-1.29.13-1.55.38-.27.26-.4.57-.4.93,0,.42.17.75.5,1,.33.25.79.38,1.38.38s1.08-.13,1.51-.38.74-.63.94-1.12l.3,1.06c-.2.5-.56.9-1.07,1.19-.51.29-1.16.44-1.94.44Zm2.78-.1v-1.79l-.08-.34v-3.06c0-.65-.19-1.16-.57-1.51-.38-.36-.95-.54-1.7-.54-.5,0-.99.08-1.47.25-.48.17-.89.39-1.22.66l-.64-1.15c.44-.35.96-.62,1.58-.81.61-.19,1.26-.28,1.93-.28,1.16,0,2.06.28,2.69.85.63.57.94,1.43.94,2.59v5.12h-1.46Z"/><path d="m137.31,285.2c-.3,0-.55-.1-.74-.29-.2-.19-.3-.43-.3-.7s.1-.53.3-.72c.2-.19.44-.29.74-.29s.55.09.74.28.3.42.3.7-.1.53-.29.73c-.19.2-.44.3-.75.3Zm-.77,10.11v-8.48h1.54v8.48h-1.54Z"/><path d="m145.53,286.75c.69,0,1.3.13,1.83.4.53.27.94.67,1.24,1.22s.45,1.23.45,2.06v4.88h-1.54v-4.7c0-.82-.2-1.44-.6-1.86-.4-.42-.96-.62-1.69-.62-.54,0-1.02.11-1.42.32-.41.21-.72.53-.94.94-.22.42-.33.93-.33,1.55v4.37h-1.54v-8.48h1.47v2.29l-.24-.61c.28-.55.7-.99,1.28-1.3s1.25-.46,2.02-.46Z"/><path d="m152.67,285.2c-.3,0-.55-.1-.74-.29-.2-.19-.3-.43-.3-.7s.1-.53.3-.72c.2-.19.44-.29.74-.29s.55.09.74.28.3.42.3.7-.1.53-.29.73c-.19.2-.44.3-.75.3Zm-.77,10.11v-8.48h1.54v8.48h-1.54Z"/><path d="m160.89,286.75c.69,0,1.3.13,1.83.4.53.27.94.67,1.24,1.22s.45,1.23.45,2.06v4.88h-1.54v-4.7c0-.82-.2-1.44-.6-1.86-.4-.42-.96-.62-1.69-.62-.54,0-1.02.11-1.42.32-.41.21-.72.53-.94.94-.22.42-.33.93-.33,1.55v4.37h-1.54v-8.48h1.47v2.29l-.24-.61c.28-.55.7-.99,1.28-1.3s1.25-.46,2.02-.46Z"/><path d="m170.78,294.96c-.82,0-1.55-.17-2.2-.52-.65-.35-1.16-.83-1.54-1.45-.38-.62-.57-1.33-.57-2.14s.19-1.54.57-2.15c.38-.61.89-1.09,1.54-1.43.64-.34,1.38-.51,2.2-.51.73,0,1.39.15,1.98.44.6.29,1.07.74,1.43,1.35.36.61.54,1.38.54,2.3s-.18,1.68-.54,2.29c-.36.61-.83,1.06-1.43,1.37-.6.3-1.26.46-1.98.46Zm.19,3.55c-.78,0-1.53-.11-2.26-.33-.73-.22-1.33-.53-1.78-.94l.74-1.18c.39.34.88.61,1.46.81.58.2,1.18.3,1.81.3,1,0,1.74-.24,2.21-.7.47-.47.7-1.18.7-2.14v-1.79l.16-1.68-.08-1.7v-2.32h1.46v7.33c0,1.49-.37,2.59-1.12,3.3-.75.7-1.84,1.06-3.28,1.06Zm-.02-4.9c.56,0,1.07-.12,1.5-.35.44-.23.78-.56,1.03-.98.25-.42.38-.9.38-1.44s-.13-1.02-.38-1.44c-.25-.42-.6-.74-1.03-.97-.44-.23-.94-.34-1.5-.34s-1.07.11-1.51.34-.79.55-1.04.97c-.25.42-.38.9-.38,1.44s.13,1.02.38,1.44c.25.42.6.74,1.04.98s.95.35,1.51.35Z"/><path d="m186.3,295.41c-.86,0-1.63-.19-2.31-.56s-1.21-.89-1.59-1.54-.58-1.4-.58-2.24.19-1.59.58-2.24c.38-.65.91-1.16,1.59-1.53s1.45-.55,2.31-.55c.77,0,1.45.15,2.06.46.6.3,1.07.75,1.4,1.35l-1.17.75c-.28-.42-.62-.72-1.02-.92-.4-.2-.83-.3-1.29-.3-.55,0-1.05.12-1.49.37-.44.25-.78.59-1.04,1.03-.26.44-.38.97-.38,1.58s.13,1.14.38,1.58c.26.45.6.79,1.04,1.04.44.25.93.37,1.49.37.46,0,.89-.1,1.29-.3.4-.2.74-.5,1.02-.92l1.17.74c-.33.59-.8,1.04-1.4,1.35s-1.29.47-2.06.47Z"/><path d="m195.37,295.41c-.85,0-1.61-.19-2.27-.56-.66-.37-1.18-.89-1.57-1.54s-.58-1.4-.58-2.23.19-1.59.58-2.24c.38-.65.91-1.16,1.57-1.53.66-.37,1.42-.55,2.27-.55s1.6.18,2.26.55c.67.37,1.19.88,1.57,1.52.38.65.57,1.4.57,2.25s-.19,1.59-.57,2.24-.9,1.16-1.57,1.54c-.67.37-1.42.56-2.26.56Zm0-1.34c.54,0,1.03-.12,1.46-.37.43-.25.77-.59,1.02-1.05.25-.45.37-.98.37-1.58s-.12-1.13-.37-1.58c-.25-.44-.58-.79-1.02-1.03-.43-.25-.92-.37-1.46-.37s-1.03.12-1.46.37-.77.59-1.02,1.03c-.26.44-.38.97-.38,1.58s.13,1.12.38,1.58c.26.45.6.8,1.02,1.05.43.25.91.37,1.46.37Z"/><path d="m206.43,286.75c.69,0,1.3.13,1.83.4.53.27.94.67,1.24,1.22s.45,1.23.45,2.06v4.88h-1.54v-4.7c0-.82-.2-1.44-.6-1.86-.4-.42-.96-.62-1.69-.62-.54,0-1.02.11-1.42.32-.41.21-.72.53-.94.94-.22.42-.33.93-.33,1.55v4.37h-1.54v-8.48h1.47v2.29l-.24-.61c.28-.55.7-.99,1.28-1.3s1.25-.46,2.02-.46Z"/><path d="m211.58,288.09v-1.26h5.41v1.26h-5.41Zm4.13,7.31c-.85,0-1.51-.23-1.98-.69s-.7-1.11-.7-1.97v-7.78h1.54v7.71c0,.46.11.81.34,1.06.23.25.56.37.98.37.48,0,.88-.13,1.2-.4l.48,1.1c-.23.2-.51.35-.84.45s-.66.14-1.02.14Z"/><path d="m220.19,285.2c-.3,0-.55-.1-.74-.29-.2-.19-.3-.43-.3-.7s.1-.53.3-.72c.2-.19.44-.29.74-.29s.55.09.74.28.3.42.3.7-.1.53-.29.73c-.19.2-.44.3-.75.3Zm-.77,10.11v-8.48h1.54v8.48h-1.54Z"/><path d="m228.41,286.75c.69,0,1.3.13,1.83.4.53.27.94.67,1.24,1.22s.45,1.23.45,2.06v4.88h-1.54v-4.7c0-.82-.2-1.44-.6-1.86-.4-.42-.96-.62-1.69-.62-.54,0-1.02.11-1.42.32-.41.21-.72.53-.94.94-.22.42-.33.93-.33,1.55v4.37h-1.54v-8.48h1.47v2.29l-.24-.61c.28-.55.7-.99,1.28-1.3s1.25-.46,2.02-.46Z"/><path d="m238.35,295.41c-.73,0-1.36-.13-1.91-.4-.55-.27-.98-.67-1.28-1.22-.3-.55-.46-1.24-.46-2.07v-4.88h1.54v4.7c0,.83.2,1.46.6,1.87.4.42.96.62,1.69.62.53,0,1-.11,1.39-.33.39-.22.7-.54.91-.96.21-.42.32-.93.32-1.53v-4.38h1.54v8.48h-1.46v-2.29l.24.61c-.28.57-.69,1-1.25,1.31-.56.31-1.18.46-1.87.46Z"/><path d="m246.38,285.2c-.3,0-.55-.1-.74-.29-.2-.19-.3-.43-.3-.7s.1-.53.3-.72c.2-.19.44-.29.74-.29s.55.09.74.28.3.42.3.7-.1.53-.29.73c-.19.2-.44.3-.75.3Zm-.77,10.11v-8.48h1.54v8.48h-1.54Z"/><path d="m248.86,288.09v-1.26h5.41v1.26h-5.41Zm4.13,7.31c-.85,0-1.51-.23-1.98-.69s-.7-1.11-.7-1.97v-7.78h1.54v7.71c0,.46.11.81.34,1.06.23.25.56.37.98.37.48,0,.88-.13,1.2-.4l.48,1.1c-.23.2-.51.35-.84.45s-.66.14-1.02.14Z"/><path d="m257.07,298.51c-.41,0-.8-.07-1.18-.2-.38-.13-.71-.33-.99-.58l.66-1.15c.21.2.45.36.7.46.26.11.53.16.82.16.37,0,.68-.1.93-.29.25-.19.47-.53.69-1.02l.53-1.17.16-.19,3.33-7.7h1.5l-4.11,9.33c-.25.6-.52,1.07-.82,1.41-.3.34-.64.58-1,.73-.36.14-.76.22-1.2.22Zm2.02-2.93l-3.87-8.75h1.6l3.3,7.55-1.02,1.2Z"/><path d="m273.58,295.41c-.85,0-1.61-.19-2.27-.56-.66-.37-1.18-.89-1.57-1.54s-.58-1.4-.58-2.23.19-1.59.58-2.24c.38-.65.91-1.16,1.57-1.53.66-.37,1.42-.55,2.27-.55s1.6.18,2.26.55c.67.37,1.19.88,1.57,1.52.38.65.57,1.4.57,2.25s-.19,1.59-.57,2.24-.9,1.16-1.57,1.54c-.67.37-1.42.56-2.26.56Zm0-1.34c.54,0,1.03-.12,1.46-.37.43-.25.77-.59,1.02-1.05.25-.45.37-.98.37-1.58s-.12-1.13-.37-1.58c-.25-.44-.58-.79-1.02-1.03-.43-.25-.92-.37-1.46-.37s-1.03.12-1.46.37-.77.59-1.02,1.03c-.26.44-.38.97-.38,1.58s.13,1.12.38,1.58c.26.45.6.8,1.02,1.05.43.25.91.37,1.46.37Z"/><path d="m278.89,288.09v-1.26h5.41v1.26h-5.41Zm1.44,7.22v-9.23c0-.83.24-1.5.73-1.99s1.18-.74,2.07-.74c.33,0,.65.04.95.12.3.08.56.21.78.38l-.46,1.17c-.16-.13-.34-.23-.54-.3-.2-.07-.42-.1-.64-.1-.45,0-.79.13-1.02.38-.24.25-.35.62-.35,1.11v1.14l.03.7v7.38h-1.54Z"/><path d="m300.67,286.75c.68,0,1.29.13,1.81.4s.93.67,1.22,1.22c.29.54.44,1.23.44,2.06v4.88h-1.54v-4.7c0-.82-.19-1.44-.58-1.86s-.92-.62-1.62-.62c-.51,0-.96.11-1.34.32-.38.21-.68.53-.89.94s-.31.93-.31,1.55v4.37h-1.54v-4.7c0-.82-.19-1.44-.57-1.86-.38-.42-.92-.62-1.62-.62-.5,0-.94.11-1.33.32-.38.21-.68.53-.9.94-.21.42-.32.93-.32,1.55v4.37h-1.54v-8.48h1.47v2.26l-.24-.58c.27-.55.68-.99,1.23-1.3s1.2-.46,1.94-.46c.81,0,1.51.2,2.1.6.59.4.97,1.01,1.15,1.82l-.62-.26c.26-.65.7-1.17,1.34-1.57.64-.39,1.39-.59,2.24-.59Z"/><path d="m309.45,295.41c-.63,0-1.18-.11-1.66-.32-.47-.21-.84-.51-1.1-.89-.26-.38-.38-.81-.38-1.29s.11-.87.33-1.25c.22-.37.58-.67,1.07-.9s1.17-.34,2.01-.34h2.69v1.1h-2.62c-.77,0-1.29.13-1.55.38-.27.26-.4.57-.4.93,0,.42.17.75.5,1,.33.25.79.38,1.38.38s1.08-.13,1.51-.38.74-.63.94-1.12l.3,1.06c-.2.5-.56.9-1.07,1.19-.51.29-1.16.44-1.94.44Zm2.78-.1v-1.79l-.08-.34v-3.06c0-.65-.19-1.16-.57-1.51-.38-.36-.95-.54-1.7-.54-.5,0-.99.08-1.47.25-.48.17-.89.39-1.22.66l-.64-1.15c.44-.35.96-.62,1.58-.81.61-.19,1.26-.28,1.93-.28,1.16,0,2.06.28,2.69.85.63.57.94,1.43.94,2.59v5.12h-1.46Z"/><path d="m315.32,288.09v-1.26h5.41v1.26h-5.41Zm4.13,7.31c-.85,0-1.51-.23-1.98-.69s-.7-1.11-.7-1.97v-7.78h1.54v7.71c0,.46.11.81.34,1.06.23.25.56.37.98.37.48,0,.88-.13,1.2-.4l.48,1.1c-.23.2-.51.35-.84.45s-.66.14-1.02.14Z"/><path d="m326.94,295.41c-.91,0-1.7-.19-2.39-.56-.69-.37-1.22-.89-1.6-1.54-.38-.65-.57-1.4-.57-2.24s.18-1.59.55-2.24c.37-.65.88-1.16,1.52-1.53s1.37-.55,2.18-.55,1.55.18,2.18.54c.63.36,1.12.87,1.48,1.53.36.66.54,1.42.54,2.3,0,.06,0,.14,0,.22,0,.08-.01.17-.02.24h-7.22v-1.1h6.42l-.62.38c.01-.54-.1-1.03-.34-1.46-.24-.43-.56-.76-.97-1-.41-.24-.89-.36-1.43-.36s-1.01.12-1.42.36c-.42.24-.74.58-.98,1.01-.24.43-.35.93-.35,1.48v.26c0,.57.13,1.07.39,1.51.26.44.63.79,1.1,1.03.47.25,1.01.37,1.62.37.5,0,.96-.08,1.37-.26.41-.17.77-.43,1.08-.77l.85.99c-.38.45-.86.79-1.43,1.02-.57.23-1.21.35-1.91.35Z"/><path d="m332.95,295.31v-8.48h1.47v2.3l-.14-.58c.23-.59.63-1.03,1.18-1.34s1.24-.46,2.05-.46v1.49c-.06,0-.12-.02-.18-.02h-.17c-.82,0-1.47.25-1.95.74-.48.49-.72,1.2-.72,2.13v4.22h-1.54Z"/><path d="m340.28,285.2c-.3,0-.55-.1-.74-.29-.2-.19-.3-.43-.3-.7s.1-.53.3-.72c.2-.19.44-.29.74-.29s.55.09.74.28.3.42.3.7-.1.53-.29.73c-.19.2-.44.3-.75.3Zm-.77,10.11v-8.48h1.54v8.48h-1.54Z"/><path d="m346.46,295.41c-.63,0-1.18-.11-1.66-.32-.47-.21-.84-.51-1.1-.89-.26-.38-.38-.81-.38-1.29s.11-.87.33-1.25c.22-.37.58-.67,1.07-.9s1.17-.34,2.01-.34h2.69v1.1h-2.62c-.77,0-1.29.13-1.55.38-.27.26-.4.57-.4.93,0,.42.17.75.5,1,.33.25.79.38,1.38.38s1.08-.13,1.51-.38.74-.63.94-1.12l.3,1.06c-.2.5-.56.9-1.07,1.19-.51.29-1.16.44-1.94.44Zm2.78-.1v-1.79l-.08-.34v-3.06c0-.65-.19-1.16-.57-1.51-.38-.36-.95-.54-1.7-.54-.5,0-.99.08-1.47.25-.48.17-.89.39-1.22.66l-.64-1.15c.44-.35.96-.62,1.58-.81.61-.19,1.26-.28,1.93-.28,1.16,0,2.06.28,2.69.85.63.57.94,1.43.94,2.59v5.12h-1.46Z"/><path d="m353.55,295.31v-11.87h1.54v11.87h-1.54Z"/><path d="m357.4,297.68l.8-3.23.21.93c-.31,0-.57-.1-.78-.29-.21-.19-.31-.45-.31-.78s.1-.58.31-.78c.21-.2.46-.3.76-.3s.56.1.75.31c.19.21.29.47.29.78,0,.11,0,.21-.02.31-.02.1-.04.22-.08.35-.04.13-.09.3-.17.49l-.75,2.22h-1.01Z"/><path d="m368.43,295.41c-.63,0-1.18-.11-1.66-.32-.47-.21-.84-.51-1.1-.89-.26-.38-.38-.81-.38-1.29s.11-.87.33-1.25c.22-.37.58-.67,1.07-.9s1.17-.34,2.01-.34h2.69v1.1h-2.62c-.77,0-1.29.13-1.55.38-.27.26-.4.57-.4.93,0,.42.17.75.5,1,.33.25.79.38,1.38.38s1.08-.13,1.51-.38.74-.63.94-1.12l.3,1.06c-.2.5-.56.9-1.07,1.19-.51.29-1.16.44-1.94.44Zm2.78-.1v-1.79l-.08-.34v-3.06c0-.65-.19-1.16-.57-1.51-.38-.36-.95-.54-1.7-.54-.5,0-.99.08-1.47.25-.48.17-.89.39-1.22.66l-.64-1.15c.44-.35.96-.62,1.58-.81.61-.19,1.26-.28,1.93-.28,1.16,0,2.06.28,2.69.85.63.57.94,1.43.94,2.59v5.12h-1.46Z"/><path d="m379.02,295.41c-.82,0-1.55-.18-2.2-.54-.65-.36-1.15-.87-1.53-1.52-.37-.65-.56-1.41-.56-2.27s.19-1.62.56-2.26c.37-.65.88-1.15,1.53-1.51.65-.36,1.38-.54,2.2-.54.71,0,1.36.16,1.94.48.58.32,1.04.8,1.38,1.44.35.64.52,1.44.52,2.4s-.17,1.76-.5,2.4c-.34.64-.79,1.12-1.37,1.45s-1.23.49-1.97.49Zm.13-1.34c.53,0,1.02-.12,1.45-.37.43-.25.77-.59,1.02-1.05.25-.45.38-.98.38-1.58s-.12-1.13-.38-1.58c-.25-.44-.59-.79-1.02-1.03-.43-.25-.92-.37-1.45-.37s-1.03.12-1.46.37-.77.59-1.02,1.03c-.26.44-.38.97-.38,1.58s.13,1.12.38,1.58c.26.45.6.8,1.02,1.05.43.25.91.37,1.46.37Zm2.9,1.25v-2.29l.1-1.97-.16-1.97v-5.65h1.54v11.87h-1.47Z"/><path d="m389.93,295.41c-.82,0-1.55-.18-2.2-.54-.65-.36-1.15-.87-1.53-1.52-.37-.65-.56-1.41-.56-2.27s.19-1.62.56-2.26c.37-.65.88-1.15,1.53-1.51.65-.36,1.38-.54,2.2-.54.71,0,1.36.16,1.94.48.58.32,1.04.8,1.38,1.44.35.64.52,1.44.52,2.4s-.17,1.76-.5,2.4c-.34.64-.79,1.12-1.37,1.45s-1.23.49-1.97.49Zm.13-1.34c.53,0,1.02-.12,1.45-.37.43-.25.77-.59,1.02-1.05.25-.45.38-.98.38-1.58s-.12-1.13-.38-1.58c-.25-.44-.59-.79-1.02-1.03-.43-.25-.92-.37-1.45-.37s-1.03.12-1.46.37-.77.59-1.02,1.03c-.26.44-.38.97-.38,1.58s.13,1.12.38,1.58c.26.45.6.8,1.02,1.05.43.25.91.37,1.46.37Zm2.9,1.25v-2.29l.1-1.97-.16-1.97v-5.65h1.54v11.87h-1.47Z"/><path d="m398.1,285.2c-.3,0-.55-.1-.74-.29-.2-.19-.3-.43-.3-.7s.1-.53.3-.72c.2-.19.44-.29.74-.29s.55.09.74.28.3.42.3.7-.1.53-.29.73c-.19.2-.44.3-.75.3Zm-.77,10.11v-8.48h1.54v8.48h-1.54Z"/><path d="m406.33,286.75c.69,0,1.3.13,1.83.4.53.27.94.67,1.24,1.22s.45,1.23.45,2.06v4.88h-1.54v-4.7c0-.82-.2-1.44-.6-1.86-.4-.42-.96-.62-1.69-.62-.54,0-1.02.11-1.42.32-.41.21-.72.53-.94.94-.22.42-.33.93-.33,1.55v4.37h-1.54v-8.48h1.47v2.29l-.24-.61c.28-.55.7-.99,1.28-1.3s1.25-.46,2.02-.46Z"/><path d="m416.22,294.96c-.82,0-1.55-.17-2.2-.52-.65-.35-1.16-.83-1.54-1.45-.38-.62-.57-1.33-.57-2.14s.19-1.54.57-2.15c.38-.61.89-1.09,1.54-1.43.64-.34,1.38-.51,2.2-.51.73,0,1.39.15,1.98.44.6.29,1.07.74,1.43,1.35.36.61.54,1.38.54,2.3s-.18,1.68-.54,2.29c-.36.61-.83,1.06-1.43,1.37-.6.3-1.26.46-1.98.46Zm.19,3.55c-.78,0-1.53-.11-2.26-.33-.73-.22-1.33-.53-1.78-.94l.74-1.18c.39.34.88.61,1.46.81.58.2,1.18.3,1.81.3,1,0,1.74-.24,2.21-.7.47-.47.7-1.18.7-2.14v-1.79l.16-1.68-.08-1.7v-2.32h1.46v7.33c0,1.49-.37,2.59-1.12,3.3-.75.7-1.84,1.06-3.28,1.06Zm-.02-4.9c.56,0,1.07-.12,1.5-.35.44-.23.78-.56,1.03-.98.25-.42.38-.9.38-1.44s-.13-1.02-.38-1.44c-.25-.42-.6-.74-1.03-.97-.44-.23-.94-.34-1.5-.34s-1.07.11-1.51.34-.79.55-1.04.97c-.25.42-.38.9-.38,1.44s.13,1.02.38,1.44c.25.42.6.74,1.04.98s.95.35,1.51.35Z"/><path d="m428.04,295.31v-8.48h1.47v2.3l-.14-.58c.23-.59.63-1.03,1.18-1.34s1.24-.46,2.05-.46v1.49c-.06,0-.12-.02-.18-.02h-.17c-.82,0-1.47.25-1.95.74-.48.49-.72,1.2-.72,2.13v4.22h-1.54Z"/><path d="m435.37,285.2c-.3,0-.55-.1-.74-.29-.2-.19-.3-.43-.3-.7s.1-.53.3-.72c.2-.19.44-.29.74-.29s.55.09.74.28.3.42.3.7-.1.53-.29.73c-.19.2-.44.3-.75.3Zm-.77,10.11v-8.48h1.54v8.48h-1.54Z"/><path d="m442.76,295.41c-.86,0-1.63-.19-2.31-.56s-1.21-.89-1.59-1.54-.58-1.4-.58-2.24.19-1.59.58-2.24c.38-.65.91-1.16,1.59-1.53s1.45-.55,2.31-.55c.77,0,1.45.15,2.06.46.6.3,1.07.75,1.4,1.35l-1.17.75c-.28-.42-.62-.72-1.02-.92-.4-.2-.83-.3-1.29-.3-.55,0-1.05.12-1.49.37-.44.25-.78.59-1.04,1.03-.26.44-.38.97-.38,1.58s.13,1.14.38,1.58c.26.45.6.79,1.04,1.04.44.25.93.37,1.49.37.46,0,.89-.1,1.29-.3.4-.2.74-.5,1.02-.92l1.17.74c-.33.59-.8,1.04-1.4,1.35s-1.29.47-2.06.47Z"/><path d="m452.73,286.75c.69,0,1.3.13,1.83.4.53.27.94.67,1.24,1.22s.45,1.23.45,2.06v4.88h-1.54v-4.7c0-.82-.2-1.44-.6-1.86-.4-.42-.96-.62-1.69-.62-.54,0-1.02.11-1.42.32-.41.21-.72.53-.94.94-.22.42-.33.93-.33,1.55v4.37h-1.54v-11.87h1.54v5.68l-.3-.61c.28-.55.7-.99,1.28-1.3s1.25-.46,2.02-.46Z"/><path d="m465.88,295.41c-.63,0-1.18-.11-1.66-.32-.47-.21-.84-.51-1.1-.89-.26-.38-.38-.81-.38-1.29s.11-.87.33-1.25c.22-.37.58-.67,1.07-.9s1.17-.34,2.01-.34h2.69v1.1h-2.62c-.77,0-1.29.13-1.55.38-.27.26-.4.57-.4.93,0,.42.17.75.5,1,.33.25.79.38,1.38.38s1.08-.13,1.51-.38.74-.63.94-1.12l.3,1.06c-.2.5-.56.9-1.07,1.19-.51.29-1.16.44-1.94.44Zm2.78-.1v-1.79l-.08-.34v-3.06c0-.65-.19-1.16-.57-1.51-.38-.36-.95-.54-1.7-.54-.5,0-.99.08-1.47.25-.48.17-.89.39-1.22.66l-.64-1.15c.44-.35.96-.62,1.58-.81.61-.19,1.26-.28,1.93-.28,1.16,0,2.06.28,2.69.85.63.57.94,1.43.94,2.59v5.12h-1.46Z"/><path d="m475.4,295.41c-.7,0-1.37-.1-2.01-.29-.63-.19-1.13-.43-1.5-.7l.64-1.22c.36.25.81.45,1.34.62.53.17,1.08.26,1.63.26.71,0,1.23-.1,1.54-.3.31-.2.47-.49.47-.85,0-.27-.1-.47-.29-.62-.19-.15-.45-.26-.76-.34-.31-.08-.66-.14-1.05-.2s-.77-.13-1.15-.22c-.38-.09-.74-.22-1.06-.38-.32-.17-.58-.39-.77-.69-.19-.29-.29-.69-.29-1.18s.14-.96.43-1.34c.29-.38.7-.68,1.22-.89.53-.21,1.16-.31,1.88-.31.55,0,1.12.07,1.69.2.57.13,1.04.32,1.4.57l-.66,1.22c-.38-.26-.78-.43-1.2-.53-.42-.1-.83-.14-1.25-.14-.67,0-1.17.11-1.5.33s-.5.5-.5.84c0,.29.1.51.3.66s.45.27.77.36c.31.08.66.16,1.05.22s.77.13,1.15.22c.38.09.73.22,1.05.38.31.16.57.38.77.67s.3.67.3,1.15c0,.51-.15.96-.45,1.33-.3.37-.72.66-1.26.87s-1.19.31-1.95.31Z"/><path d="m483.42,295.41c-.7,0-1.37-.1-2.01-.29-.63-.19-1.13-.43-1.5-.7l.64-1.22c.36.25.81.45,1.34.62.53.17,1.08.26,1.63.26.71,0,1.23-.1,1.54-.3.31-.2.47-.49.47-.85,0-.27-.1-.47-.29-.62-.19-.15-.45-.26-.76-.34-.31-.08-.66-.14-1.05-.2s-.77-.13-1.15-.22c-.38-.09-.74-.22-1.06-.38-.32-.17-.58-.39-.77-.69-.19-.29-.29-.69-.29-1.18s.14-.96.43-1.34c.29-.38.7-.68,1.22-.89.53-.21,1.16-.31,1.88-.31.55,0,1.12.07,1.69.2.57.13,1.04.32,1.4.57l-.66,1.22c-.38-.26-.78-.43-1.2-.53-.42-.1-.83-.14-1.25-.14-.67,0-1.17.11-1.5.33s-.5.5-.5.84c0,.29.1.51.3.66s.45.27.77.36c.31.08.66.16,1.05.22s.77.13,1.15.22c.38.09.73.22,1.05.38.31.16.57.38.77.67s.3.67.3,1.15c0,.51-.15.96-.45,1.33-.3.37-.72.66-1.26.87s-1.19.31-1.95.31Z"/><path d="m492.78,295.41c-.91,0-1.7-.19-2.39-.56-.69-.37-1.22-.89-1.6-1.54-.38-.65-.57-1.4-.57-2.24s.18-1.59.55-2.24c.37-.65.88-1.16,1.52-1.53s1.37-.55,2.18-.55,1.55.18,2.18.54c.63.36,1.12.87,1.48,1.53.36.66.54,1.42.54,2.3,0,.06,0,.14,0,.22,0,.08-.01.17-.02.24h-7.22v-1.1h6.42l-.62.38c.01-.54-.1-1.03-.34-1.46-.24-.43-.56-.76-.97-1-.41-.24-.89-.36-1.43-.36s-1.01.12-1.42.36c-.42.24-.74.58-.98,1.01-.24.43-.35.93-.35,1.48v.26c0,.57.13,1.07.39,1.51.26.44.63.79,1.1,1.03.47.25,1.01.37,1.62.37.5,0,.96-.08,1.37-.26.41-.17.77-.43,1.08-.77l.85.99c-.38.45-.86.79-1.43,1.02-.57.23-1.21.35-1.91.35Z"/><path d="m501.22,295.41c-.7,0-1.37-.1-2.01-.29-.63-.19-1.13-.43-1.5-.7l.64-1.22c.36.25.81.45,1.34.62.53.17,1.08.26,1.63.26.71,0,1.23-.1,1.54-.3.31-.2.47-.49.47-.85,0-.27-.1-.47-.29-.62-.19-.15-.45-.26-.76-.34-.31-.08-.66-.14-1.05-.2s-.77-.13-1.15-.22c-.38-.09-.74-.22-1.06-.38-.32-.17-.58-.39-.77-.69-.19-.29-.29-.69-.29-1.18s.14-.96.43-1.34c.29-.38.7-.68,1.22-.89.53-.21,1.16-.31,1.88-.31.55,0,1.12.07,1.69.2.57.13,1.04.32,1.4.57l-.66,1.22c-.38-.26-.78-.43-1.2-.53-.42-.1-.83-.14-1.25-.14-.67,0-1.17.11-1.5.33s-.5.5-.5.84c0,.29.1.51.3.66s.45.27.77.36c.31.08.66.16,1.05.22s.77.13,1.15.22c.38.09.73.22,1.05.38.31.16.57.38.77.67s.3.67.3,1.15c0,.51-.15.96-.45,1.33-.3.37-.72.66-1.26.87s-1.19.31-1.95.31Z"/><path d="m509.24,295.41c-.7,0-1.37-.1-2.01-.29-.63-.19-1.13-.43-1.5-.7l.64-1.22c.36.25.81.45,1.34.62.53.17,1.08.26,1.63.26.71,0,1.23-.1,1.54-.3.31-.2.47-.49.47-.85,0-.27-.1-.47-.29-.62-.19-.15-.45-.26-.76-.34-.31-.08-.66-.14-1.05-.2s-.77-.13-1.15-.22c-.38-.09-.74-.22-1.06-.38-.32-.17-.58-.39-.77-.69-.19-.29-.29-.69-.29-1.18s.14-.96.43-1.34c.29-.38.7-.68,1.22-.89.53-.21,1.16-.31,1.88-.31.55,0,1.12.07,1.69.2.57.13,1.04.32,1.4.57l-.66,1.22c-.38-.26-.78-.43-1.2-.53-.42-.1-.83-.14-1.25-.14-.67,0-1.17.11-1.5.33s-.5.5-.5.84c0,.29.1.51.3.66s.45.27.77.36c.31.08.66.16,1.05.22s.77.13,1.15.22c.38.09.73.22,1.05.38.31.16.57.38.77.67s.3.67.3,1.15c0,.51-.15.96-.45,1.33-.3.37-.72.66-1.26.87s-1.19.31-1.95.31Z"/><path d="m525.43,286.75c.68,0,1.29.13,1.81.4s.93.67,1.22,1.22c.29.54.44,1.23.44,2.06v4.88h-1.54v-4.7c0-.82-.19-1.44-.58-1.86s-.92-.62-1.62-.62c-.51,0-.96.11-1.34.32-.38.21-.68.53-.89.94s-.31.93-.31,1.55v4.37h-1.54v-4.7c0-.82-.19-1.44-.57-1.86-.38-.42-.92-.62-1.62-.62-.5,0-.94.11-1.33.32-.38.21-.68.53-.9.94-.21.42-.32.93-.32,1.55v4.37h-1.54v-8.48h1.47v2.26l-.24-.58c.27-.55.68-.99,1.23-1.3s1.2-.46,1.94-.46c.81,0,1.51.2,2.1.6.59.4.97,1.01,1.15,1.82l-.62-.26c.26-.65.7-1.17,1.34-1.57.64-.39,1.39-.59,2.24-.59Z"/><path d="m535.51,295.41c-.91,0-1.7-.19-2.39-.56-.69-.37-1.22-.89-1.6-1.54-.38-.65-.57-1.4-.57-2.24s.18-1.59.55-2.24c.37-.65.88-1.16,1.52-1.53s1.37-.55,2.18-.55,1.55.18,2.18.54c.63.36,1.12.87,1.48,1.53.36.66.54,1.42.54,2.3,0,.06,0,.14,0,.22,0,.08-.01.17-.02.24h-7.22v-1.1h6.42l-.62.38c.01-.54-.1-1.03-.34-1.46-.24-.43-.56-.76-.97-1-.41-.24-.89-.36-1.43-.36s-1.01.12-1.42.36c-.42.24-.74.58-.98,1.01-.24.43-.35.93-.35,1.48v.26c0,.57.13,1.07.39,1.51.26.44.63.79,1.1,1.03.47.25,1.01.37,1.62.37.5,0,.96-.08,1.37-.26.41-.17.77-.43,1.08-.77l.85.99c-.38.45-.86.79-1.43,1.02-.57.23-1.21.35-1.91.35Z"/><path d="m546.06,286.75c.69,0,1.3.13,1.83.4.53.27.94.67,1.24,1.22s.45,1.23.45,2.06v4.88h-1.54v-4.7c0-.82-.2-1.44-.6-1.86-.4-.42-.96-.62-1.69-.62-.54,0-1.02.11-1.42.32-.41.21-.72.53-.94.94-.22.42-.33.93-.33,1.55v4.37h-1.54v-8.48h1.47v2.29l-.24-.61c.28-.55.7-.99,1.28-1.3s1.25-.46,2.02-.46Z"/><path d="m551.21,288.09v-1.26h5.41v1.26h-5.41Zm4.13,7.31c-.85,0-1.51-.23-1.98-.69s-.7-1.11-.7-1.97v-7.78h1.54v7.71c0,.46.11.81.34,1.06.23.25.56.37.98.37.48,0,.88-.13,1.2-.4l.48,1.1c-.23.2-.51.35-.84.45s-.66.14-1.02.14Z"/><path d="m561.48,295.41c-.7,0-1.37-.1-2.01-.29-.63-.19-1.13-.43-1.5-.7l.64-1.22c.36.25.81.45,1.34.62.53.17,1.08.26,1.63.26.71,0,1.23-.1,1.54-.3.31-.2.47-.49.47-.85,0-.27-.1-.47-.29-.62-.19-.15-.45-.26-.76-.34-.31-.08-.66-.14-1.05-.2s-.77-.13-1.15-.22c-.38-.09-.74-.22-1.06-.38-.32-.17-.58-.39-.77-.69-.19-.29-.29-.69-.29-1.18s.14-.96.43-1.34c.29-.38.7-.68,1.22-.89.53-.21,1.16-.31,1.88-.31.55,0,1.12.07,1.69.2.57.13,1.04.32,1.4.57l-.66,1.22c-.38-.26-.78-.43-1.2-.53-.42-.1-.83-.14-1.25-.14-.67,0-1.17.11-1.5.33s-.5.5-.5.84c0,.29.1.51.3.66s.45.27.77.36c.31.08.66.16,1.05.22s.77.13,1.15.22c.38.09.73.22,1.05.38.31.16.57.38.77.67s.3.67.3,1.15c0,.51-.15.96-.45,1.33-.3.37-.72.66-1.26.87s-1.19.31-1.95.31Z"/><path d="m81.93,314.51l-3.15-8.48h1.46l2.8,7.68h-.69l2.91-7.68h1.3l2.85,7.68h-.67l2.86-7.68h1.38l-3.17,8.48h-1.47l-2.67-7.01h.45l-2.7,7.01h-1.47Z"/><path d="m95.29,304.4c-.3,0-.55-.1-.74-.29-.2-.19-.3-.43-.3-.7s.1-.53.3-.72c.2-.19.45-.29.74-.29s.55.09.74.28.3.42.3.7-.1.53-.29.73c-.19.2-.44.3-.75.3Zm-.77,10.11v-8.48h1.54v8.48h-1.54Z"/><path d="m97.77,307.3v-1.26h5.41v1.26h-5.41Zm4.13,7.31c-.85,0-1.51-.23-1.98-.69-.47-.46-.7-1.11-.7-1.97v-7.78h1.54v7.71c0,.46.12.81.34,1.06.23.25.56.37.98.37.48,0,.88-.13,1.2-.4l.48,1.1c-.24.2-.51.35-.84.45-.33.1-.66.14-1.02.14Z"/><path d="m110.14,305.95c.69,0,1.3.13,1.83.4.53.27.94.67,1.24,1.22s.45,1.23.45,2.06v4.88h-1.54v-4.7c0-.82-.2-1.44-.6-1.86-.4-.42-.96-.62-1.69-.62-.54,0-1.02.11-1.42.32-.41.21-.72.53-.94.94s-.33.93-.33,1.55v4.37h-1.54v-11.87h1.54v5.68l-.3-.61c.28-.55.7-.99,1.28-1.3s1.25-.46,2.02-.46Z"/><path d="m120.14,314.61c-.85,0-1.61-.19-2.27-.56-.66-.37-1.18-.89-1.57-1.54-.38-.66-.58-1.4-.58-2.23s.19-1.59.58-2.24c.38-.65.91-1.16,1.57-1.53.66-.37,1.42-.55,2.27-.55s1.6.18,2.26.55c.67.37,1.19.88,1.57,1.52.38.65.57,1.4.57,2.25s-.19,1.59-.57,2.24-.9,1.16-1.57,1.54c-.67.37-1.42.56-2.26.56Zm0-1.34c.54,0,1.03-.12,1.46-.37.43-.25.77-.59,1.02-1.05.25-.45.37-.98.37-1.58s-.12-1.13-.37-1.58c-.25-.44-.58-.79-1.02-1.03-.43-.25-.92-.37-1.46-.37s-1.03.12-1.46.37-.77.59-1.02,1.03c-.26.44-.38.97-.38,1.58s.13,1.12.38,1.58c.26.45.6.8,1.02,1.05.43.25.91.37,1.46.37Z"/><path d="m130.24,314.61c-.73,0-1.36-.13-1.91-.4-.55-.27-.98-.67-1.28-1.22-.3-.55-.46-1.24-.46-2.07v-4.88h1.54v4.7c0,.83.2,1.46.6,1.87.4.42.96.62,1.69.62.53,0,1-.11,1.39-.33.39-.22.7-.54.91-.96.21-.42.32-.93.32-1.53v-4.38h1.54v8.48h-1.46v-2.29l.24.61c-.28.57-.69,1-1.25,1.31-.56.31-1.18.46-1.87.46Z"/><path d="m136.28,307.3v-1.26h5.41v1.26h-5.41Zm4.13,7.31c-.85,0-1.51-.23-1.98-.69s-.7-1.11-.7-1.97v-7.78h1.54v7.71c0,.46.11.81.34,1.06.23.25.56.37.98.37.48,0,.88-.13,1.2-.4l.48,1.1c-.23.2-.51.35-.84.45s-.66.14-1.02.14Z"/><path d="m152.06,314.61c-.85,0-1.61-.19-2.27-.56-.66-.37-1.18-.89-1.57-1.54s-.58-1.4-.58-2.23.19-1.59.58-2.24c.38-.65.91-1.16,1.57-1.53.66-.37,1.42-.55,2.27-.55s1.6.18,2.26.55c.67.37,1.19.88,1.57,1.52.38.65.57,1.4.57,2.25s-.19,1.59-.57,2.24-.9,1.16-1.57,1.54c-.67.37-1.42.56-2.26.56Zm0-1.34c.54,0,1.03-.12,1.46-.37.43-.25.77-.59,1.02-1.05.25-.45.37-.98.37-1.58s-.12-1.13-.37-1.58c-.25-.44-.58-.79-1.02-1.03-.43-.25-.92-.37-1.46-.37s-1.03.12-1.46.37-.77.59-1.02,1.03c-.26.44-.38.97-.38,1.58s.13,1.12.38,1.58c.26.45.6.8,1.02,1.05.43.25.91.37,1.46.37Z"/><path d="m160.81,314.51l-3.71-8.48h1.6l3.3,7.68h-.77l3.36-7.68h1.5l-3.71,8.48h-1.57Z"/><path d="m171.31,314.61c-.91,0-1.7-.19-2.39-.56-.69-.37-1.22-.89-1.6-1.54-.38-.65-.57-1.4-.57-2.24s.18-1.59.55-2.24c.37-.65.88-1.16,1.52-1.53s1.37-.55,2.18-.55,1.55.18,2.18.54c.63.36,1.12.87,1.48,1.53.36.66.54,1.42.54,2.3,0,.06,0,.14,0,.22,0,.08-.01.17-.02.24h-7.22v-1.1h6.42l-.62.38c.01-.54-.1-1.03-.34-1.46-.24-.43-.56-.76-.97-1-.41-.24-.89-.36-1.43-.36s-1.01.12-1.42.36c-.42.24-.74.58-.98,1.01-.24.43-.35.93-.35,1.48v.26c0,.57.13,1.07.39,1.51.26.44.63.79,1.1,1.03.47.25,1.01.37,1.62.37.5,0,.96-.08,1.37-.26.41-.17.77-.43,1.08-.77l.85.99c-.38.45-.86.79-1.43,1.02-.57.23-1.21.35-1.91.35Z"/><path d="m177.32,314.51v-8.48h1.47v2.3l-.14-.58c.23-.59.63-1.03,1.18-1.34s1.24-.46,2.05-.46v1.49c-.06,0-.12-.02-.18-.02h-.17c-.82,0-1.47.25-1.95.74-.48.49-.72,1.2-.72,2.13v4.22h-1.54Z"/><path d="m183.88,314.51v-11.87h1.54v11.87h-1.54Z"/><path d="m191.98,314.61c-.85,0-1.61-.19-2.27-.56-.66-.37-1.18-.89-1.57-1.54s-.58-1.4-.58-2.23.19-1.59.58-2.24c.38-.65.91-1.16,1.57-1.53.66-.37,1.42-.55,2.27-.55s1.6.18,2.26.55c.67.37,1.19.88,1.57,1.52.38.65.57,1.4.57,2.25s-.19,1.59-.57,2.24-.9,1.16-1.57,1.54c-.67.37-1.42.56-2.26.56Zm0-1.34c.54,0,1.03-.12,1.46-.37.43-.25.77-.59,1.02-1.05.25-.45.37-.98.37-1.58s-.12-1.13-.37-1.58c-.25-.44-.58-.79-1.02-1.03-.43-.25-.92-.37-1.46-.37s-1.03.12-1.46.37-.77.59-1.02,1.03c-.26.44-.38.97-.38,1.58s.13,1.12.38,1.58c.26.45.6.8,1.02,1.05.43.25.91.37,1.46.37Z"/><path d="m200.99,314.61c-.63,0-1.18-.11-1.66-.32-.47-.21-.84-.51-1.1-.89-.26-.38-.38-.81-.38-1.29s.11-.87.33-1.25c.22-.37.58-.67,1.07-.9s1.17-.34,2.01-.34h2.69v1.1h-2.62c-.77,0-1.29.13-1.55.38-.27.26-.4.57-.4.93,0,.42.17.75.5,1,.33.25.79.38,1.38.38s1.08-.13,1.51-.38.74-.63.94-1.12l.3,1.06c-.2.5-.56.9-1.07,1.19-.51.29-1.16.44-1.94.44Zm2.78-.1v-1.79l-.08-.34v-3.06c0-.65-.19-1.16-.57-1.51-.38-.36-.95-.54-1.7-.54-.5,0-.99.08-1.47.25-.48.17-.89.39-1.22.66l-.64-1.15c.44-.35.96-.62,1.58-.81.61-.19,1.26-.28,1.93-.28,1.16,0,2.06.28,2.69.85.63.57.94,1.43.94,2.59v5.12h-1.46Z"/><path d="m211.58,314.61c-.82,0-1.55-.18-2.2-.54-.65-.36-1.15-.87-1.53-1.52-.37-.65-.56-1.41-.56-2.27s.19-1.62.56-2.26c.37-.65.88-1.15,1.53-1.51.65-.36,1.38-.54,2.2-.54.71,0,1.36.16,1.94.48.58.32,1.04.8,1.38,1.44.35.64.52,1.44.52,2.4s-.17,1.76-.5,2.4c-.34.64-.79,1.12-1.37,1.45s-1.23.49-1.97.49Zm.13-1.34c.53,0,1.02-.12,1.45-.37.43-.25.77-.59,1.02-1.05.25-.45.38-.98.38-1.58s-.12-1.13-.38-1.58c-.25-.44-.59-.79-1.02-1.03-.43-.25-.92-.37-1.45-.37s-1.03.12-1.46.37-.77.59-1.02,1.03c-.26.44-.38.97-.38,1.58s.13,1.12.38,1.58c.26.45.6.8,1.02,1.05.43.25.91.37,1.46.37Zm2.9,1.25v-2.29l.1-1.97-.16-1.97v-5.65h1.54v11.87h-1.47Z"/><path d="m219.76,304.4c-.3,0-.55-.1-.74-.29-.2-.19-.3-.43-.3-.7s.1-.53.3-.72c.2-.19.44-.29.74-.29s.55.09.74.28.3.42.3.7-.1.53-.29.73c-.19.2-.44.3-.75.3Zm-.77,10.11v-8.48h1.54v8.48h-1.54Z"/><path d="m227.98,305.95c.69,0,1.3.13,1.83.4.53.27.94.67,1.24,1.22s.45,1.23.45,2.06v4.88h-1.54v-4.7c0-.82-.2-1.44-.6-1.86-.4-.42-.96-.62-1.69-.62-.54,0-1.02.11-1.42.32-.41.21-.72.53-.94.94-.22.42-.33.93-.33,1.55v4.37h-1.54v-8.48h1.47v2.29l-.24-.61c.28-.55.7-.99,1.28-1.3s1.25-.46,2.02-.46Z"/><path d="m237.87,314.16c-.82,0-1.55-.17-2.2-.52-.65-.35-1.16-.83-1.54-1.45-.38-.62-.57-1.33-.57-2.14s.19-1.54.57-2.15c.38-.61.89-1.09,1.54-1.43.64-.34,1.38-.51,2.2-.51.73,0,1.39.15,1.98.44.6.29,1.07.74,1.43,1.35.36.61.54,1.38.54,2.3s-.18,1.68-.54,2.29c-.36.61-.83,1.06-1.43,1.37-.6.3-1.26.46-1.98.46Zm.19,3.55c-.78,0-1.53-.11-2.26-.33-.73-.22-1.33-.53-1.78-.94l.74-1.18c.39.34.88.61,1.46.81.58.2,1.18.3,1.81.3,1,0,1.74-.24,2.21-.7.47-.47.7-1.18.7-2.14v-1.79l.16-1.68-.08-1.7v-2.32h1.46v7.33c0,1.49-.37,2.59-1.12,3.3-.75.7-1.84,1.06-3.28,1.06Zm-.02-4.9c.56,0,1.07-.12,1.5-.35.44-.23.78-.56,1.03-.98.25-.42.38-.9.38-1.44s-.13-1.02-.38-1.44c-.25-.42-.6-.74-1.03-.97-.44-.23-.94-.34-1.5-.34s-1.07.11-1.51.34-.79.55-1.04.97c-.25.42-.38.9-.38,1.44s.13,1.02.38,1.44c.25.42.6.74,1.04.98s.95.35,1.51.35Z"/><path d="m260.3,305.95c.68,0,1.29.13,1.81.4s.93.67,1.22,1.22c.29.54.44,1.23.44,2.06v4.88h-1.54v-4.7c0-.82-.19-1.44-.58-1.86s-.92-.62-1.62-.62c-.51,0-.96.11-1.34.32-.38.21-.68.53-.89.94s-.31.93-.31,1.55v4.37h-1.54v-4.7c0-.82-.19-1.44-.57-1.86-.38-.42-.92-.62-1.62-.62-.5,0-.94.11-1.33.32-.38.21-.68.53-.9.94-.21.42-.32.93-.32,1.55v4.37h-1.54v-8.48h1.47v2.26l-.24-.58c.27-.55.68-.99,1.23-1.3s1.2-.46,1.94-.46c.81,0,1.51.2,2.1.6.59.4.97,1.01,1.15,1.82l-.62-.26c.26-.65.7-1.17,1.34-1.57.64-.39,1.39-.59,2.24-.59Z"/><path d="m266.97,317.71c-.41,0-.8-.07-1.18-.2-.38-.13-.71-.33-.99-.58l.66-1.15c.21.2.45.36.7.46.26.11.53.16.82.16.37,0,.68-.1.93-.29.25-.19.47-.53.69-1.02l.53-1.17.16-.19,3.33-7.7h1.5l-4.11,9.33c-.25.6-.52,1.07-.82,1.41-.3.34-.64.58-1,.73-.36.14-.76.22-1.2.22Zm2.02-2.93l-3.87-8.75h1.6l3.3,7.55-1.02,1.2Z"/><path d="m277.98,314.61c-.7,0-1.37-.1-2.01-.29-.63-.19-1.13-.43-1.5-.7l.64-1.22c.36.25.81.45,1.34.62.53.17,1.08.26,1.63.26.71,0,1.23-.1,1.54-.3.31-.2.47-.49.47-.85,0-.27-.1-.47-.29-.62-.19-.15-.45-.26-.76-.34-.31-.08-.66-.14-1.05-.2s-.77-.13-1.15-.22c-.38-.09-.74-.22-1.06-.38-.32-.17-.58-.39-.77-.69-.19-.29-.29-.69-.29-1.18s.14-.96.43-1.34c.29-.38.7-.68,1.22-.89.53-.21,1.16-.31,1.88-.31.55,0,1.12.07,1.69.2.57.13,1.04.32,1.4.57l-.66,1.22c-.38-.26-.78-.43-1.2-.53-.42-.1-.83-.14-1.25-.14-.67,0-1.17.11-1.5.33s-.5.5-.5.84c0,.29.1.51.3.66s.45.27.77.36c.31.08.66.16,1.05.22s.77.13,1.15.22c.38.09.73.22,1.05.38.31.16.57.38.77.67s.3.67.3,1.15c0,.51-.15.96-.45,1.33-.3.37-.72.66-1.26.87s-1.19.31-1.95.31Z"/><path d="m287.34,314.61c-.91,0-1.7-.19-2.39-.56-.69-.37-1.22-.89-1.6-1.54-.38-.65-.57-1.4-.57-2.24s.18-1.59.55-2.24c.37-.65.88-1.16,1.52-1.53s1.37-.55,2.18-.55,1.55.18,2.18.54c.63.36,1.12.87,1.48,1.53.36.66.54,1.42.54,2.3,0,.06,0,.14,0,.22,0,.08-.01.17-.02.24h-7.22v-1.1h6.42l-.62.38c.01-.54-.1-1.03-.34-1.46-.24-.43-.56-.76-.97-1-.41-.24-.89-.36-1.43-.36s-1.01.12-1.42.36c-.42.24-.74.58-.98,1.01-.24.43-.35.93-.35,1.48v.26c0,.57.13,1.07.39,1.51.26.44.63.79,1.1,1.03.47.25,1.01.37,1.62.37.5,0,.96-.08,1.37-.26.41-.17.77-.43,1.08-.77l.85.99c-.38.45-.86.79-1.43,1.02-.57.23-1.21.35-1.91.35Z"/><path d="m293.35,314.51v-11.87h1.54v11.87h-1.54Z"/><path d="m296.6,307.3v-1.26h5.41v1.26h-5.41Zm1.44,7.22v-9.23c0-.83.24-1.5.73-1.99s1.18-.74,2.07-.74c.33,0,.65.04.95.12.3.08.56.21.78.38l-.46,1.17c-.16-.13-.34-.23-.54-.3-.2-.07-.42-.1-.64-.1-.45,0-.79.13-1.02.38-.24.25-.35.62-.35,1.11v1.14l.03.7v7.38h-1.54Z"/><path d="m309.56,314.51l-3.15-8.48h1.46l2.8,7.68h-.69l2.91-7.68h1.3l2.85,7.68h-.67l2.86-7.68h1.38l-3.17,8.48h-1.47l-2.67-7.01h.45l-2.7,7.01h-1.47Z"/><path d="m322.92,304.4c-.3,0-.55-.1-.74-.29-.2-.19-.3-.43-.3-.7s.1-.53.3-.72c.2-.19.44-.29.74-.29s.55.09.74.28.3.42.3.7-.1.53-.29.73c-.19.2-.44.3-.75.3Zm-.77,10.11v-8.48h1.54v8.48h-1.54Z"/><path d="m325.4,307.3v-1.26h5.41v1.26h-5.41Zm4.13,7.31c-.85,0-1.51-.23-1.98-.69s-.7-1.11-.7-1.97v-7.78h1.54v7.71c0,.46.11.81.34,1.06.23.25.56.37.98.37.48,0,.88-.13,1.2-.4l.48,1.1c-.23.2-.51.35-.84.45s-.66.14-1.02.14Z"/><path d="m337.77,305.95c.69,0,1.3.13,1.83.4.53.27.94.67,1.24,1.22s.45,1.23.45,2.06v4.88h-1.54v-4.7c0-.82-.2-1.44-.6-1.86-.4-.42-.96-.62-1.69-.62-.54,0-1.02.11-1.42.32-.41.21-.72.53-.94.94-.22.42-.33.93-.33,1.55v4.37h-1.54v-11.87h1.54v5.68l-.3-.61c.28-.55.7-.99,1.28-1.3s1.25-.46,2.02-.46Z"/><path d="m351.96,314.16c-.82,0-1.55-.17-2.2-.52-.65-.35-1.16-.83-1.54-1.45-.38-.62-.57-1.33-.57-2.14s.19-1.54.57-2.15c.38-.61.89-1.09,1.54-1.43.64-.34,1.38-.51,2.2-.51.73,0,1.39.15,1.98.44.6.29,1.07.74,1.43,1.35.36.61.54,1.38.54,2.3s-.18,1.68-.54,2.29c-.36.61-.83,1.06-1.43,1.37-.6.3-1.26.46-1.98.46Zm.19,3.55c-.78,0-1.53-.11-2.26-.33-.73-.22-1.33-.53-1.78-.94l.74-1.18c.39.34.88.61,1.46.81.58.2,1.18.3,1.81.3,1,0,1.74-.24,2.21-.7.47-.47.7-1.18.7-2.14v-1.79l.16-1.68-.08-1.7v-2.32h1.46v7.33c0,1.49-.37,2.59-1.12,3.3-.75.7-1.84,1.06-3.28,1.06Zm-.02-4.9c.56,0,1.07-.12,1.5-.35.44-.23.78-.56,1.03-.98.25-.42.38-.9.38-1.44s-.13-1.02-.38-1.44c-.25-.42-.6-.74-1.03-.97-.44-.23-.94-.34-1.5-.34s-1.07.11-1.51.34-.79.55-1.04.97c-.25.42-.38.9-.38,1.44s.13,1.02.38,1.44c.25.42.6.74,1.04.98s.95.35,1.51.35Z"/><path d="m359.48,314.51v-8.48h1.47v2.3l-.14-.58c.23-.59.63-1.03,1.18-1.34s1.24-.46,2.05-.46v1.49c-.06,0-.12-.02-.18-.02h-.17c-.82,0-1.47.25-1.95.74-.48.49-.72,1.2-.72,2.13v4.22h-1.54Z"/><path d="m368.52,314.61c-.63,0-1.18-.11-1.66-.32-.47-.21-.84-.51-1.1-.89-.26-.38-.38-.81-.38-1.29s.11-.87.33-1.25c.22-.37.58-.67,1.07-.9s1.17-.34,2.01-.34h2.69v1.1h-2.62c-.77,0-1.29.13-1.55.38-.27.26-.4.57-.4.93,0,.42.17.75.5,1,.33.25.79.38,1.38.38s1.08-.13,1.51-.38.74-.63.94-1.12l.3,1.06c-.2.5-.56.9-1.07,1.19-.51.29-1.16.44-1.94.44Zm2.78-.1v-1.79l-.08-.34v-3.06c0-.65-.19-1.16-.57-1.51-.38-.36-.95-.54-1.7-.54-.5,0-.99.08-1.47.25-.48.17-.89.39-1.22.66l-.64-1.15c.44-.35.96-.62,1.58-.81.61-.19,1.26-.28,1.93-.28,1.16,0,2.06.28,2.69.85.63.57.94,1.43.94,2.59v5.12h-1.46Z"/><path d="m379.11,314.61c-.82,0-1.55-.18-2.2-.54-.65-.36-1.15-.87-1.53-1.52-.37-.65-.56-1.41-.56-2.27s.19-1.62.56-2.26c.37-.65.88-1.15,1.53-1.51.65-.36,1.38-.54,2.2-.54.71,0,1.36.16,1.94.48.58.32,1.04.8,1.38,1.44.35.64.52,1.44.52,2.4s-.17,1.76-.5,2.4c-.34.64-.79,1.12-1.37,1.45s-1.23.49-1.97.49Zm.13-1.34c.53,0,1.02-.12,1.45-.37.43-.25.77-.59,1.02-1.05.25-.45.38-.98.38-1.58s-.12-1.13-.38-1.58c-.25-.44-.59-.79-1.02-1.03-.43-.25-.92-.37-1.45-.37s-1.03.12-1.46.37-.77.59-1.02,1.03c-.26.44-.38.97-.38,1.58s.13,1.12.38,1.58c.26.45.6.8,1.02,1.05.43.25.91.37,1.46.37Zm2.9,1.25v-2.29l.1-1.97-.16-1.97v-5.65h1.54v11.87h-1.47Z"/><path d="m387.29,304.4c-.3,0-.55-.1-.74-.29-.2-.19-.3-.43-.3-.7s.1-.53.3-.72c.2-.19.44-.29.74-.29s.55.09.74.28.3.42.3.7-.1.53-.29.73c-.19.2-.44.3-.75.3Zm-.77,10.11v-8.48h1.54v8.48h-1.54Z"/><path d="m395.51,305.95c.69,0,1.3.13,1.83.4.53.27.94.67,1.24,1.22s.45,1.23.45,2.06v4.88h-1.54v-4.7c0-.82-.2-1.44-.6-1.86-.4-.42-.96-.62-1.69-.62-.54,0-1.02.11-1.42.32-.41.21-.72.53-.94.94-.22.42-.33.93-.33,1.55v4.37h-1.54v-8.48h1.47v2.29l-.24-.61c.28-.55.7-.99,1.28-1.3s1.25-.46,2.02-.46Z"/><path d="m405.4,314.16c-.82,0-1.55-.17-2.2-.52-.65-.35-1.16-.83-1.54-1.45-.38-.62-.57-1.33-.57-2.14s.19-1.54.57-2.15c.38-.61.89-1.09,1.54-1.43.64-.34,1.38-.51,2.2-.51.73,0,1.39.15,1.98.44.6.29,1.07.74,1.43,1.35.36.61.54,1.38.54,2.3s-.18,1.68-.54,2.29c-.36.61-.83,1.06-1.43,1.37-.6.3-1.26.46-1.98.46Zm.19,3.55c-.78,0-1.53-.11-2.26-.33-.73-.22-1.33-.53-1.78-.94l.74-1.18c.39.34.88.61,1.46.81.58.2,1.18.3,1.81.3,1,0,1.74-.24,2.21-.7.47-.47.7-1.18.7-2.14v-1.79l.16-1.68-.08-1.7v-2.32h1.46v7.33c0,1.49-.37,2.59-1.12,3.3-.75.7-1.84,1.06-3.28,1.06Zm-.02-4.9c.56,0,1.07-.12,1.5-.35.44-.23.78-.56,1.03-.98.25-.42.38-.9.38-1.44s-.13-1.02-.38-1.44c-.25-.42-.6-.74-1.03-.97-.44-.23-.94-.34-1.5-.34s-1.07.11-1.51.34-.79.55-1.04.97c-.25.42-.38.9-.38,1.44s.13,1.02.38,1.44c.25.42.6.74,1.04.98s.95.35,1.51.35Z"/><path d="m416.01,307.3v-1.26h5.41v1.26h-5.41Zm4.13,7.31c-.85,0-1.51-.23-1.98-.69s-.7-1.11-.7-1.97v-7.78h1.54v7.71c0,.46.11.81.34,1.06.23.25.56.37.98.37.48,0,.88-.13,1.2-.4l.48,1.1c-.23.2-.51.35-.84.45s-.66.14-1.02.14Z"/><path d="m426.33,314.61c-.63,0-1.18-.11-1.66-.32-.47-.21-.84-.51-1.1-.89-.26-.38-.38-.81-.38-1.29s.11-.87.33-1.25c.22-.37.58-.67,1.07-.9s1.17-.34,2.01-.34h2.69v1.1h-2.62c-.77,0-1.29.13-1.55.38-.27.26-.4.57-.4.93,0,.42.17.75.5,1,.33.25.79.38,1.38.38s1.08-.13,1.51-.38.74-.63.94-1.12l.3,1.06c-.2.5-.56.9-1.07,1.19-.51.29-1.16.44-1.94.44Zm2.78-.1v-1.79l-.08-.34v-3.06c0-.65-.19-1.16-.57-1.51-.38-.36-.95-.54-1.7-.54-.5,0-.99.08-1.47.25-.48.17-.89.39-1.22.66l-.64-1.15c.44-.35.96-.62,1.58-.81.61-.19,1.26-.28,1.93-.28,1.16,0,2.06.28,2.69.85.63.57.94,1.43.94,2.59v5.12h-1.46Z"/><path d="m435.85,314.61c-.7,0-1.37-.1-2.01-.29-.63-.19-1.13-.43-1.5-.7l.64-1.22c.36.25.81.45,1.34.62.53.17,1.08.26,1.63.26.71,0,1.23-.1,1.54-.3.31-.2.47-.49.47-.85,0-.27-.1-.47-.29-.62-.19-.15-.45-.26-.76-.34-.31-.08-.66-.14-1.05-.2s-.77-.13-1.15-.22c-.38-.09-.74-.22-1.06-.38-.32-.17-.58-.39-.77-.69-.19-.29-.29-.69-.29-1.18s.14-.96.43-1.34c.29-.38.7-.68,1.22-.89.53-.21,1.16-.31,1.88-.31.55,0,1.12.07,1.69.2.57.13,1.04.32,1.4.57l-.66,1.22c-.38-.26-.78-.43-1.2-.53-.42-.1-.83-.14-1.25-.14-.67,0-1.17.11-1.5.33s-.5.5-.5.84c0,.29.1.51.3.66s.45.27.77.36c.31.08.66.16,1.05.22s.77.13,1.15.22c.38.09.73.22,1.05.38.31.16.57.38.77.67s.3.67.3,1.15c0,.51-.15.96-.45,1.33-.3.37-.72.66-1.26.87s-1.19.31-1.95.31Z"/><path d="m441.43,314.51v-11.87h1.54v11.87h-1.54Zm1.25-2.05l.03-1.97,4.88-4.46h1.86l-3.74,3.68-.83.7-2.19,2.05Zm5.23,2.05l-3.33-4.13.99-1.23,4.22,5.36h-1.89Z"/><path d="m453.72,314.61c-.7,0-1.37-.1-2.01-.29-.63-.19-1.13-.43-1.5-.7l.64-1.22c.36.25.81.45,1.34.62.53.17,1.08.26,1.63.26.71,0,1.23-.1,1.54-.3.31-.2.47-.49.47-.85,0-.27-.1-.47-.29-.62-.19-.15-.45-.26-.76-.34-.31-.08-.66-.14-1.05-.2s-.77-.13-1.15-.22c-.38-.09-.74-.22-1.06-.38-.32-.17-.58-.39-.77-.69-.19-.29-.29-.69-.29-1.18s.14-.96.43-1.34c.29-.38.7-.68,1.22-.89.53-.21,1.16-.31,1.88-.31.55,0,1.12.07,1.69.2.57.13,1.04.32,1.4.57l-.66,1.22c-.38-.26-.78-.43-1.2-.53-.42-.1-.83-.14-1.25-.14-.67,0-1.17.11-1.5.33s-.5.5-.5.84c0,.29.1.51.3.66s.45.27.77.36c.31.08.66.16,1.05.22s.77.13,1.15.22c.38.09.73.22,1.05.38.31.16.57.38.77.67s.3.67.3,1.15c0,.51-.15.96-.45,1.33-.3.37-.72.66-1.26.87s-1.19.31-1.95.31Z"/><path d="m459.67,314.61c-.3,0-.55-.1-.77-.31-.21-.21-.32-.47-.32-.79s.11-.58.32-.78c.21-.2.47-.3.77-.3s.54.1.74.3c.21.2.31.46.31.78s-.1.58-.31.79-.46.31-.74.31Z"/><rect class="cls-3" x="35.9" y="298.44" width="56.89" height="1.14" transform="translate(363.35 234.66) rotate(90)"/><path class="cls-3" d="m38.51,285.13l-4.97,20.19-1.19-5.77c1.92,0,3.51.6,4.77,1.79,1.26,1.19,1.89,2.79,1.89,4.78s-.63,3.61-1.89,4.87c-1.26,1.26-2.82,1.89-4.68,1.89s-3.52-.65-4.77-1.94c-1.26-1.29-1.89-2.9-1.89-4.83,0-.66.05-1.29.15-1.89.1-.6.28-1.31.55-2.14.26-.83.63-1.84,1.09-3.03l4.68-13.93h6.27Zm18.8,0l-4.97,20.19-1.19-5.77c1.92,0,3.51.6,4.78,1.79,1.26,1.19,1.89,2.79,1.89,4.78s-.63,3.61-1.89,4.87c-1.26,1.26-2.82,1.89-4.68,1.89s-3.52-.65-4.78-1.94c-1.26-1.29-1.89-2.9-1.89-4.83,0-.66.05-1.29.15-1.89.1-.6.28-1.31.55-2.14.26-.83.63-1.84,1.09-3.03l4.68-13.93h6.27Z"/><path d="m81.97,108.83h-1.6v-11.2h7.9v1.39h-6.3v9.81Zm-.16-5.9h5.78v1.38h-5.78v-1.38Z"/><path d="m91.07,98.72c-.3,0-.55-.1-.74-.29-.2-.19-.3-.43-.3-.7s.1-.53.3-.72c.2-.19.45-.29.74-.29s.55.09.74.28.3.42.3.7-.1.53-.29.73c-.19.2-.44.3-.75.3Zm-.77,10.11v-8.48h1.54v8.48h-1.54Z"/><path d="m99.29,100.27c.69,0,1.3.13,1.83.4.53.27.94.67,1.24,1.22s.45,1.23.45,2.06v4.88h-1.54v-4.7c0-.82-.2-1.44-.6-1.86-.4-.42-.96-.62-1.69-.62-.54,0-1.02.11-1.42.32-.41.21-.72.53-.94.94s-.33.93-.33,1.55v4.37h-1.54v-8.48h1.47v2.29l-.24-.61c.28-.55.7-.99,1.28-1.3s1.25-.46,2.02-.46Z"/><path d="m109.17,108.93c-.82,0-1.55-.18-2.2-.54-.65-.36-1.15-.87-1.53-1.52-.37-.65-.56-1.41-.56-2.27s.19-1.62.56-2.26c.37-.65.88-1.15,1.53-1.51.65-.36,1.38-.54,2.2-.54.71,0,1.36.16,1.94.48s1.04.8,1.38,1.44c.35.64.52,1.44.52,2.4s-.17,1.76-.5,2.4c-.34.64-.79,1.12-1.37,1.45s-1.23.49-1.97.49Zm.13-1.34c.53,0,1.02-.12,1.45-.37.43-.25.77-.59,1.02-1.05s.38-.98.38-1.58-.12-1.13-.38-1.58c-.25-.44-.59-.79-1.02-1.03-.43-.25-.92-.37-1.45-.37s-1.03.12-1.46.37-.77.59-1.02,1.03c-.26.44-.38.97-.38,1.58s.13,1.12.38,1.58.6.8,1.02,1.05c.43.25.91.37,1.46.37Zm2.9,1.25v-2.29l.1-1.97-.16-1.97v-5.65h1.54v11.87h-1.47Z"/><path d="m117.34,98.72c-.3,0-.55-.1-.74-.29-.2-.19-.3-.43-.3-.7s.1-.53.3-.72c.2-.19.45-.29.74-.29s.55.09.74.28.3.42.3.7-.1.53-.29.73c-.19.2-.44.3-.75.3Zm-.77,10.11v-8.48h1.54v8.48h-1.54Z"/><path d="m125.56,100.27c.69,0,1.3.13,1.83.4.53.27.94.67,1.24,1.22s.45,1.23.45,2.06v4.88h-1.54v-4.7c0-.82-.2-1.44-.6-1.86-.4-.42-.96-.62-1.69-.62-.54,0-1.02.11-1.42.32-.41.21-.72.53-.94.94-.22.42-.33.93-.33,1.55v4.37h-1.54v-8.48h1.47v2.29l-.24-.61c.28-.55.7-.99,1.28-1.3s1.25-.46,2.02-.46Z"/><path d="m135.45,108.48c-.82,0-1.55-.17-2.2-.52-.65-.35-1.16-.83-1.54-1.45-.38-.62-.57-1.33-.57-2.14s.19-1.54.57-2.15c.38-.61.89-1.09,1.54-1.43.64-.34,1.38-.51,2.2-.51.73,0,1.39.15,1.98.44.6.29,1.07.74,1.43,1.35.36.61.54,1.38.54,2.3s-.18,1.68-.54,2.29c-.36.61-.83,1.06-1.43,1.37-.6.3-1.26.46-1.98.46Zm.19,3.55c-.78,0-1.53-.11-2.26-.33-.73-.22-1.33-.53-1.78-.94l.74-1.18c.39.34.88.61,1.46.81.58.2,1.18.3,1.81.3,1,0,1.74-.24,2.21-.7.47-.47.7-1.18.7-2.14v-1.79l.16-1.68-.08-1.7v-2.32h1.46v7.33c0,1.49-.37,2.59-1.12,3.3-.75.7-1.84,1.06-3.28,1.06Zm-.02-4.9c.56,0,1.07-.12,1.5-.35.44-.23.78-.56,1.03-.98.25-.42.38-.9.38-1.44s-.13-1.02-.38-1.44c-.25-.42-.6-.74-1.03-.97-.44-.23-.94-.34-1.5-.34s-1.07.11-1.51.34-.79.55-1.04.97c-.25.42-.38.9-.38,1.44s.13,1.02.38,1.44c.25.42.6.74,1.04.98s.95.35,1.51.35Z"/><path d="m149.76,108.93c-.63,0-1.18-.11-1.66-.32-.47-.21-.84-.51-1.1-.89-.26-.38-.38-.81-.38-1.29s.11-.87.33-1.25c.22-.37.58-.67,1.07-.9s1.17-.34,2.01-.34h2.69v1.1h-2.62c-.77,0-1.29.13-1.55.38-.27.26-.4.57-.4.93,0,.42.17.75.5,1,.33.25.79.38,1.38.38s1.08-.13,1.51-.38.74-.63.94-1.12l.3,1.06c-.2.5-.56.9-1.07,1.19-.51.29-1.16.44-1.94.44Zm2.78-.1v-1.79l-.08-.34v-3.06c0-.65-.19-1.16-.57-1.51-.38-.36-.95-.54-1.7-.54-.5,0-.99.08-1.47.25-.48.17-.89.39-1.22.66l-.64-1.15c.44-.35.96-.62,1.58-.81.61-.19,1.26-.28,1.93-.28,1.16,0,2.06.28,2.69.85.63.57.94,1.43.94,2.59v5.12h-1.46Z"/><path d="m161.37,100.27c.69,0,1.3.13,1.83.4.53.27.94.67,1.24,1.22s.45,1.23.45,2.06v4.88h-1.54v-4.7c0-.82-.2-1.44-.6-1.86-.4-.42-.96-.62-1.69-.62-.54,0-1.02.11-1.42.32-.41.21-.72.53-.94.94-.22.42-.33.93-.33,1.55v4.37h-1.54v-8.48h1.47v2.29l-.24-.61c.28-.55.7-.99,1.28-1.3s1.25-.46,2.02-.46Z"/><path d="m175.68,108.93c-.85,0-1.61-.19-2.27-.56-.66-.37-1.18-.89-1.57-1.54s-.58-1.4-.58-2.23.19-1.59.58-2.24c.38-.65.91-1.16,1.57-1.53.66-.37,1.42-.55,2.27-.55s1.6.18,2.26.55c.67.37,1.19.88,1.57,1.52.38.65.57,1.4.57,2.25s-.19,1.59-.57,2.24-.9,1.16-1.57,1.54c-.67.37-1.42.56-2.26.56Zm0-1.34c.54,0,1.03-.12,1.46-.37.43-.25.77-.59,1.02-1.05.25-.45.37-.98.37-1.58s-.12-1.13-.37-1.58c-.25-.44-.58-.79-1.02-1.03-.43-.25-.92-.37-1.46-.37s-1.03.12-1.46.37-.77.59-1.02,1.03c-.26.44-.38.97-.38,1.58s.13,1.12.38,1.58c.26.45.6.8,1.02,1.05.43.25.91.37,1.46.37Z"/><path d="m184.43,108.83l-3.71-8.48h1.6l3.3,7.68h-.77l3.36-7.68h1.5l-3.71,8.48h-1.57Z"/><path d="m194.92,108.93c-.91,0-1.7-.19-2.39-.56-.69-.37-1.22-.89-1.6-1.54-.38-.65-.57-1.4-.57-2.24s.18-1.59.55-2.24c.37-.65.88-1.16,1.52-1.53s1.37-.55,2.18-.55,1.55.18,2.18.54c.63.36,1.12.87,1.48,1.53.36.66.54,1.42.54,2.3,0,.06,0,.14,0,.22,0,.08-.01.17-.02.24h-7.22v-1.1h6.42l-.62.38c.01-.54-.1-1.03-.34-1.46-.24-.43-.56-.76-.97-1-.41-.24-.89-.36-1.43-.36s-1.01.12-1.42.36c-.42.24-.74.58-.98,1.01-.24.43-.35.93-.35,1.48v.26c0,.57.13,1.07.39,1.51.26.44.63.79,1.1,1.03.47.25,1.01.37,1.62.37.5,0,.96-.08,1.37-.26.41-.17.77-.43,1.08-.77l.85.99c-.38.45-.86.79-1.43,1.02-.57.23-1.21.35-1.91.35Z"/><path d="m200.94,108.83v-8.48h1.47v2.3l-.14-.58c.23-.59.63-1.03,1.18-1.34s1.24-.46,2.05-.46v1.49c-.06,0-.12-.02-.18-.02h-.17c-.82,0-1.47.25-1.95.74-.48.49-.72,1.2-.72,2.13v4.22h-1.54Z"/><path d="m209.98,108.93c-.63,0-1.18-.11-1.66-.32-.47-.21-.84-.51-1.1-.89-.26-.38-.38-.81-.38-1.29s.11-.87.33-1.25c.22-.37.58-.67,1.07-.9s1.17-.34,2.01-.34h2.69v1.1h-2.62c-.77,0-1.29.13-1.55.38-.27.26-.4.57-.4.93,0,.42.17.75.5,1,.33.25.79.38,1.38.38s1.08-.13,1.51-.38.74-.63.94-1.12l.3,1.06c-.2.5-.56.9-1.07,1.19-.51.29-1.16.44-1.94.44Zm2.78-.1v-1.79l-.08-.34v-3.06c0-.65-.19-1.16-.57-1.51-.38-.36-.95-.54-1.7-.54-.5,0-.99.08-1.47.25-.48.17-.89.39-1.22.66l-.64-1.15c.44-.35.96-.62,1.58-.81.61-.19,1.26-.28,1.93-.28,1.16,0,2.06.28,2.69.85.63.57.94,1.43.94,2.59v5.12h-1.46Z"/><path d="m217.07,108.83v-11.87h1.54v11.87h-1.54Z"/><path d="m221.53,108.83v-11.87h1.54v11.87h-1.54Z"/><path d="m229.08,101.62v-1.26h5.41v1.26h-5.41Zm1.44,7.22v-9.23c0-.83.24-1.5.73-1.99s1.18-.74,2.07-.74c.33,0,.65.04.95.12.3.08.56.21.78.38l-.46,1.17c-.16-.13-.34-.23-.54-.3-.2-.07-.42-.1-.64-.1-.45,0-.79.13-1.02.38-.24.25-.35.62-.35,1.11v1.14l.03.7v7.38h-1.54Zm5.42,0v-11.87h1.54v11.87h-1.54Z"/><path d="m244.04,108.93c-.85,0-1.61-.19-2.27-.56-.66-.37-1.18-.89-1.57-1.54s-.58-1.4-.58-2.23.19-1.59.58-2.24c.38-.65.91-1.16,1.57-1.53.66-.37,1.42-.55,2.27-.55s1.6.18,2.26.55c.67.37,1.19.88,1.57,1.52.38.65.57,1.4.57,2.25s-.19,1.59-.57,2.24-.9,1.16-1.57,1.54c-.67.37-1.42.56-2.26.56Zm0-1.34c.54,0,1.03-.12,1.46-.37.43-.25.77-.59,1.02-1.05.25-.45.37-.98.37-1.58s-.12-1.13-.37-1.58c-.25-.44-.58-.79-1.02-1.03-.43-.25-.92-.37-1.46-.37s-1.03.12-1.46.37-.77.59-1.02,1.03c-.26.44-.38.97-.38,1.58s.13,1.12.38,1.58c.26.45.6.8,1.02,1.05.43.25.91.37,1.46.37Z"/><path d="m252.36,108.83l-3.15-8.48h1.46l2.8,7.68h-.69l2.91-7.68h1.3l2.85,7.68h-.67l2.86-7.68h1.38l-3.17,8.48h-1.47l-2.67-7.01h.45l-2.7,7.01h-1.47Z"/><path d="m268.04,101.62v-1.26h5.41v1.26h-5.41Zm1.44,7.22v-9.23c0-.83.24-1.5.73-1.99s1.18-.74,2.07-.74c.33,0,.65.04.95.12.3.08.56.21.78.38l-.46,1.17c-.16-.13-.34-.23-.54-.3-.2-.07-.42-.1-.64-.1-.45,0-.79.13-1.02.38-.24.25-.35.62-.35,1.11v1.14l.03.7v7.38h-1.54Z"/><path d="m278.54,108.93c-.85,0-1.61-.19-2.27-.56-.66-.37-1.18-.89-1.57-1.54s-.58-1.4-.58-2.23.19-1.59.58-2.24c.38-.65.91-1.16,1.57-1.53.66-.37,1.42-.55,2.27-.55s1.6.18,2.26.55c.67.37,1.19.88,1.57,1.52.38.65.57,1.4.57,2.25s-.19,1.59-.57,2.24-.9,1.16-1.57,1.54c-.67.37-1.42.56-2.26.56Zm0-1.34c.54,0,1.03-.12,1.46-.37.43-.25.77-.59,1.02-1.05.25-.45.37-.98.37-1.58s-.12-1.13-.37-1.58c-.25-.44-.58-.79-1.02-1.03-.43-.25-.92-.37-1.46-.37s-1.03.12-1.46.37-.77.59-1.02,1.03c-.26.44-.38.97-.38,1.58s.13,1.12.38,1.58c.26.45.6.8,1.02,1.05.43.25.91.37,1.46.37Z"/><path d="m285.07,108.83v-8.48h1.47v2.3l-.14-.58c.23-.59.63-1.03,1.18-1.34s1.24-.46,2.05-.46v1.49c-.06,0-.12-.02-.18-.02h-.17c-.82,0-1.47.25-1.95.74-.48.49-.72,1.2-.72,2.13v4.22h-1.54Z"/><path d="m294.72,101.62v-1.26h5.41v1.26h-5.41Zm4.13,7.31c-.85,0-1.51-.23-1.98-.69s-.7-1.11-.7-1.97v-7.78h1.54v7.71c0,.46.11.81.34,1.06.23.25.56.37.98.37.48,0,.88-.13,1.2-.4l.48,1.1c-.23.2-.51.35-.84.45s-.66.14-1.02.14Z"/><path d="m307.08,100.27c.69,0,1.3.13,1.83.4.53.27.94.67,1.24,1.22s.45,1.23.45,2.06v4.88h-1.54v-4.7c0-.82-.2-1.44-.6-1.86-.4-.42-.96-.62-1.69-.62-.54,0-1.02.11-1.42.32-.41.21-.72.53-.94.94-.22.42-.33.93-.33,1.55v4.37h-1.54v-11.87h1.54v5.68l-.3-.61c.28-.55.7-.99,1.28-1.3s1.25-.46,2.02-.46Z"/><path d="m317.23,108.93c-.91,0-1.7-.19-2.39-.56-.69-.37-1.22-.89-1.6-1.54-.38-.65-.57-1.4-.57-2.24s.18-1.59.55-2.24c.37-.65.88-1.16,1.52-1.53s1.37-.55,2.18-.55,1.55.18,2.18.54c.63.36,1.12.87,1.48,1.53.36.66.54,1.42.54,2.3,0,.06,0,.14,0,.22,0,.08-.01.17-.02.24h-7.22v-1.1h6.42l-.62.38c.01-.54-.1-1.03-.34-1.46-.24-.43-.56-.76-.97-1-.41-.24-.89-.36-1.43-.36s-1.01.12-1.42.36c-.42.24-.74.58-.98,1.01-.24.43-.35.93-.35,1.48v.26c0,.57.13,1.07.39,1.51.26.44.63.79,1.1,1.03.47.25,1.01.37,1.62.37.5,0,.96-.08,1.37-.26.41-.17.77-.43,1.08-.77l.85.99c-.38.45-.86.79-1.43,1.02-.57.23-1.21.35-1.91.35Z"/><path d="m331.24,108.93c-.86,0-1.63-.19-2.31-.56s-1.21-.89-1.59-1.54-.58-1.4-.58-2.24.19-1.59.58-2.24c.38-.65.91-1.16,1.59-1.53s1.45-.55,2.31-.55c.77,0,1.45.15,2.06.46.6.3,1.07.75,1.4,1.35l-1.17.75c-.28-.42-.62-.72-1.02-.92-.4-.2-.83-.3-1.29-.3-.55,0-1.05.12-1.49.37-.44.25-.78.59-1.04,1.03-.26.44-.38.97-.38,1.58s.13,1.14.38,1.58c.26.45.6.79,1.04,1.04.44.25.93.37,1.49.37.46,0,.89-.1,1.29-.3.4-.2.74-.5,1.02-.92l1.17.74c-.33.59-.8,1.04-1.4,1.35s-1.29.47-2.06.47Z"/><path d="m340.31,108.93c-.85,0-1.61-.19-2.27-.56-.66-.37-1.18-.89-1.57-1.54s-.58-1.4-.58-2.23.19-1.59.58-2.24c.38-.65.91-1.16,1.57-1.53.66-.37,1.42-.55,2.27-.55s1.6.18,2.26.55c.67.37,1.19.88,1.57,1.52.38.65.57,1.4.57,2.25s-.19,1.59-.57,2.24-.9,1.16-1.57,1.54c-.67.37-1.42.56-2.26.56Zm0-1.34c.54,0,1.03-.12,1.46-.37.43-.25.77-.59,1.02-1.05.25-.45.37-.98.37-1.58s-.12-1.13-.37-1.58c-.25-.44-.58-.79-1.02-1.03-.43-.25-.92-.37-1.46-.37s-1.03.12-1.46.37-.77.59-1.02,1.03c-.26.44-.38.97-.38,1.58s.13,1.12.38,1.58c.26.45.6.8,1.02,1.05.43.25.91.37,1.46.37Z"/><path d="m350.41,108.93c-.73,0-1.36-.13-1.91-.4-.55-.27-.98-.67-1.28-1.22-.3-.55-.46-1.24-.46-2.07v-4.88h1.54v4.7c0,.83.2,1.46.6,1.87.4.42.96.62,1.69.62.53,0,1-.11,1.39-.33.39-.22.7-.54.91-.96.21-.42.32-.93.32-1.53v-4.38h1.54v8.48h-1.46v-2.29l.24.61c-.28.57-.69,1-1.25,1.31-.56.31-1.18.46-1.87.46Z"/><path d="m357.67,108.83v-8.48h1.47v2.3l-.14-.58c.23-.59.63-1.03,1.18-1.34s1.24-.46,2.05-.46v1.49c-.06,0-.12-.02-.18-.02h-.17c-.82,0-1.47.25-1.95.74-.48.49-.72,1.2-.72,2.13v4.22h-1.54Z"/><path d="m366.67,108.93c-.7,0-1.37-.1-2.01-.29-.63-.19-1.13-.43-1.5-.7l.64-1.22c.36.25.81.45,1.34.62.53.17,1.08.26,1.63.26.71,0,1.23-.1,1.54-.3.31-.2.47-.49.47-.85,0-.27-.1-.47-.29-.62-.19-.15-.45-.26-.76-.34-.31-.08-.66-.14-1.05-.2s-.77-.13-1.15-.22c-.38-.09-.74-.22-1.06-.38-.32-.17-.58-.39-.77-.69-.19-.29-.29-.69-.29-1.18s.14-.96.43-1.34c.29-.38.7-.68,1.22-.89.53-.21,1.16-.31,1.88-.31.55,0,1.12.07,1.69.2.57.13,1.04.32,1.4.57l-.66,1.22c-.38-.26-.78-.43-1.2-.53-.42-.1-.83-.14-1.25-.14-.67,0-1.17.11-1.5.33s-.5.5-.5.84c0,.29.1.51.3.66s.45.27.77.36c.31.08.66.16,1.05.22s.77.13,1.15.22c.38.09.73.22,1.05.38.31.16.57.38.77.67s.3.67.3,1.15c0,.51-.15.96-.45,1.33-.3.37-.72.66-1.26.87s-1.19.31-1.95.31Z"/><path d="m376.03,108.93c-.91,0-1.7-.19-2.39-.56-.69-.37-1.22-.89-1.6-1.54-.38-.65-.57-1.4-.57-2.24s.18-1.59.55-2.24c.37-.65.88-1.16,1.52-1.53s1.37-.55,2.18-.55,1.55.18,2.18.54c.63.36,1.12.87,1.48,1.53.36.66.54,1.42.54,2.3,0,.06,0,.14,0,.22,0,.08-.01.17-.02.24h-7.22v-1.1h6.42l-.62.38c.01-.54-.1-1.03-.34-1.46-.24-.43-.56-.76-.97-1-.41-.24-.89-.36-1.43-.36s-1.01.12-1.42.36c-.42.24-.74.58-.98,1.01-.24.43-.35.93-.35,1.48v.26c0,.57.13,1.07.39,1.51.26.44.63.79,1.1,1.03.47.25,1.01.37,1.62.37.5,0,.96-.08,1.37-.26.41-.17.77-.43,1.08-.77l.85.99c-.38.45-.86.79-1.43,1.02-.57.23-1.21.35-1.91.35Z"/><path d="m384.89,104.98v-1.07h16v1.07h-16Z"/><path d="m417.26,100.27c.68,0,1.29.13,1.81.4s.93.67,1.22,1.22c.29.54.44,1.23.44,2.06v4.88h-1.54v-4.7c0-.82-.19-1.44-.58-1.86s-.92-.62-1.62-.62c-.51,0-.96.11-1.34.32-.38.21-.68.53-.89.94s-.31.93-.31,1.55v4.37h-1.54v-4.7c0-.82-.19-1.44-.57-1.86-.38-.42-.92-.62-1.62-.62-.5,0-.94.11-1.33.32-.38.21-.68.53-.9.94-.21.42-.32.93-.32,1.55v4.37h-1.54v-8.48h1.47v2.26l-.24-.58c.27-.55.68-.99,1.23-1.3s1.2-.46,1.94-.46c.81,0,1.51.2,2.1.6.59.4.97,1.01,1.15,1.82l-.62-.26c.26-.65.7-1.17,1.34-1.57.64-.39,1.39-.59,2.24-.59Z"/><path d="m427.19,108.93c-.85,0-1.61-.19-2.27-.56-.66-.37-1.18-.89-1.57-1.54s-.58-1.4-.58-2.23.19-1.59.58-2.24c.38-.65.91-1.16,1.57-1.53.66-.37,1.42-.55,2.27-.55s1.6.18,2.26.55c.67.37,1.19.88,1.57,1.52.38.65.57,1.4.57,2.25s-.19,1.59-.57,2.24-.9,1.16-1.57,1.54c-.67.37-1.42.56-2.26.56Zm0-1.34c.54,0,1.03-.12,1.46-.37.43-.25.77-.59,1.02-1.05.25-.45.37-.98.37-1.58s-.12-1.13-.37-1.58c-.25-.44-.58-.79-1.02-1.03-.43-.25-.92-.37-1.46-.37s-1.03.12-1.46.37-.77.59-1.02,1.03c-.26.44-.38.97-.38,1.58s.13,1.12.38,1.58c.26.45.6.8,1.02,1.05.43.25.91.37,1.46.37Z"/><path d="m436.15,108.93c-.7,0-1.37-.1-2.01-.29-.63-.19-1.13-.43-1.5-.7l.64-1.22c.36.25.81.45,1.34.62.53.17,1.08.26,1.63.26.71,0,1.23-.1,1.54-.3.31-.2.47-.49.47-.85,0-.27-.1-.47-.29-.62-.19-.15-.45-.26-.76-.34-.31-.08-.66-.14-1.05-.2s-.77-.13-1.15-.22c-.38-.09-.74-.22-1.06-.38-.32-.17-.58-.39-.77-.69-.19-.29-.29-.69-.29-1.18s.14-.96.43-1.34c.29-.38.7-.68,1.22-.89.53-.21,1.16-.31,1.88-.31.55,0,1.12.07,1.69.2.57.13,1.04.32,1.4.57l-.66,1.22c-.38-.26-.78-.43-1.2-.53-.42-.1-.83-.14-1.25-.14-.67,0-1.17.11-1.5.33s-.5.5-.5.84c0,.29.1.51.3.66s.45.27.77.36c.31.08.66.16,1.05.22s.77.13,1.15.22c.38.09.73.22,1.05.38.31.16.57.38.77.67s.3.67.3,1.15c0,.51-.15.96-.45,1.33-.3.37-.72.66-1.26.87s-1.19.31-1.95.31Z"/><path d="m440.52,101.62v-1.26h5.41v1.26h-5.41Zm4.13,7.31c-.85,0-1.51-.23-1.98-.69s-.7-1.11-.7-1.97v-7.78h1.54v7.71c0,.46.11.81.34,1.06.23.25.56.37.98.37.48,0,.88-.13,1.2-.4l.48,1.1c-.23.2-.51.35-.84.45s-.66.14-1.02.14Z"/><path d="m456.36,108.93c-.86,0-1.63-.19-2.31-.56s-1.21-.89-1.59-1.54-.58-1.4-.58-2.24.19-1.59.58-2.24c.38-.65.91-1.16,1.59-1.53s1.45-.55,2.31-.55c.77,0,1.45.15,2.06.46.6.3,1.07.75,1.4,1.35l-1.17.75c-.28-.42-.62-.72-1.02-.92-.4-.2-.83-.3-1.29-.3-.55,0-1.05.12-1.49.37-.44.25-.78.59-1.04,1.03-.26.44-.38.97-.38,1.58s.13,1.14.38,1.58c.26.45.6.79,1.04,1.04.44.25.93.37,1.49.37.46,0,.89-.1,1.29-.3.4-.2.74-.5,1.02-.92l1.17.74c-.33.59-.8,1.04-1.4,1.35s-1.29.47-2.06.47Z"/><path d="m465.43,108.93c-.85,0-1.61-.19-2.27-.56-.66-.37-1.18-.89-1.57-1.54s-.58-1.4-.58-2.23.19-1.59.58-2.24c.38-.65.91-1.16,1.57-1.53.66-.37,1.42-.55,2.27-.55s1.6.18,2.26.55c.67.37,1.19.88,1.57,1.52.38.65.57,1.4.57,2.25s-.19,1.59-.57,2.24-.9,1.16-1.57,1.54c-.67.37-1.42.56-2.26.56Zm0-1.34c.54,0,1.03-.12,1.46-.37.43-.25.77-.59,1.02-1.05.25-.45.37-.98.37-1.58s-.12-1.13-.37-1.58c-.25-.44-.58-.79-1.02-1.03-.43-.25-.92-.37-1.46-.37s-1.03.12-1.46.37-.77.59-1.02,1.03c-.26.44-.38.97-.38,1.58s.13,1.12.38,1.58c.26.45.6.8,1.02,1.05.43.25.91.37,1.46.37Z"/><path d="m476.49,100.27c.69,0,1.3.13,1.83.4.53.27.94.67,1.24,1.22s.45,1.23.45,2.06v4.88h-1.54v-4.7c0-.82-.2-1.44-.6-1.86-.4-.42-.96-.62-1.69-.62-.54,0-1.02.11-1.42.32-.41.21-.72.53-.94.94-.22.42-.33.93-.33,1.55v4.37h-1.54v-8.48h1.47v2.29l-.24-.61c.28-.55.7-.99,1.28-1.3s1.25-.46,2.02-.46Z"/><path d="m481.64,101.62v-1.26h5.41v1.26h-5.41Zm4.13,7.31c-.85,0-1.51-.23-1.98-.69s-.7-1.11-.7-1.97v-7.78h1.54v7.71c0,.46.11.81.34,1.06.23.25.56.37.98.37.48,0,.88-.13,1.2-.4l.48,1.1c-.23.2-.51.35-.84.45s-.66.14-1.02.14Z"/><path d="m493.26,108.93c-.91,0-1.7-.19-2.39-.56-.69-.37-1.22-.89-1.6-1.54-.38-.65-.57-1.4-.57-2.24s.18-1.59.55-2.24c.37-.65.88-1.16,1.52-1.53s1.37-.55,2.18-.55,1.55.18,2.18.54c.63.36,1.12.87,1.48,1.53.36.66.54,1.42.54,2.3,0,.06,0,.14,0,.22,0,.08-.01.17-.02.24h-7.22v-1.1h6.42l-.62.38c.01-.54-.1-1.03-.34-1.46-.24-.43-.56-.76-.97-1-.41-.24-.89-.36-1.43-.36s-1.01.12-1.42.36c-.42.24-.74.58-.98,1.01-.24.43-.35.93-.35,1.48v.26c0,.57.13,1.07.39,1.51.26.44.63.79,1.1,1.03.47.25,1.01.37,1.62.37.5,0,.96-.08,1.37-.26.41-.17.77-.43,1.08-.77l.85.99c-.38.45-.86.79-1.43,1.02-.57.23-1.21.35-1.91.35Z"/><path d="m503.8,100.27c.69,0,1.3.13,1.83.4.53.27.94.67,1.24,1.22s.45,1.23.45,2.06v4.88h-1.54v-4.7c0-.82-.2-1.44-.6-1.86-.4-.42-.96-.62-1.69-.62-.54,0-1.02.11-1.42.32-.41.21-.72.53-.94.94-.22.42-.33.93-.33,1.55v4.37h-1.54v-8.48h1.47v2.29l-.24-.61c.28-.55.7-.99,1.28-1.3s1.25-.46,2.02-.46Z"/><path d="m508.95,101.62v-1.26h5.41v1.26h-5.41Zm4.13,7.31c-.85,0-1.51-.23-1.98-.69s-.7-1.11-.7-1.97v-7.78h1.54v7.71c0,.46.11.81.34,1.06.23.25.56.37.98.37.48,0,.88-.13,1.2-.4l.48,1.1c-.23.2-.51.35-.84.45s-.66.14-1.02.14Z"/><path d="m521.86,98.72c-.3,0-.55-.1-.74-.29-.2-.19-.3-.43-.3-.7s.1-.53.3-.72c.2-.19.44-.29.74-.29s.55.09.74.28.3.42.3.7-.1.53-.29.73c-.19.2-.44.3-.75.3Zm-.77,10.11v-8.48h1.54v8.48h-1.54Z"/><path d="m527.99,108.93c-.7,0-1.37-.1-2.01-.29-.63-.19-1.13-.43-1.5-.7l.64-1.22c.36.25.81.45,1.34.62.53.17,1.08.26,1.63.26.71,0,1.23-.1,1.54-.3.31-.2.47-.49.47-.85,0-.27-.1-.47-.29-.62-.19-.15-.45-.26-.76-.34-.31-.08-.66-.14-1.05-.2s-.77-.13-1.15-.22c-.38-.09-.74-.22-1.06-.38-.32-.17-.58-.39-.77-.69-.19-.29-.29-.69-.29-1.18s.14-.96.43-1.34c.29-.38.7-.68,1.22-.89.53-.21,1.16-.31,1.88-.31.55,0,1.12.07,1.69.2.57.13,1.04.32,1.4.57l-.66,1.22c-.38-.26-.78-.43-1.2-.53-.42-.1-.83-.14-1.25-.14-.67,0-1.17.11-1.5.33s-.5.5-.5.84c0,.29.1.51.3.66s.45.27.77.36c.31.08.66.16,1.05.22s.77.13,1.15.22c.38.09.73.22,1.05.38.31.16.57.38.77.67s.3.67.3,1.15c0,.51-.15.96-.45,1.33-.3.37-.72.66-1.26.87s-1.19.31-1.95.31Z"/><path d="m542.41,100.27c.69,0,1.3.13,1.83.4.53.27.94.67,1.24,1.22s.45,1.23.45,2.06v4.88h-1.54v-4.7c0-.82-.2-1.44-.6-1.86-.4-.42-.96-.62-1.69-.62-.54,0-1.02.11-1.42.32-.41.21-.72.53-.94.94-.22.42-.33.93-.33,1.55v4.37h-1.54v-8.48h1.47v2.29l-.24-.61c.28-.55.7-.99,1.28-1.3s1.25-.46,2.02-.46Z"/><path d="m552.41,108.93c-.85,0-1.61-.19-2.27-.56-.66-.37-1.18-.89-1.57-1.54s-.58-1.4-.58-2.23.19-1.59.58-2.24c.38-.65.91-1.16,1.57-1.53.66-.37,1.42-.55,2.27-.55s1.6.18,2.26.55c.67.37,1.19.88,1.57,1.52.38.65.57,1.4.57,2.25s-.19,1.59-.57,2.24-.9,1.16-1.57,1.54c-.67.37-1.42.56-2.26.56Zm0-1.34c.54,0,1.03-.12,1.46-.37.43-.25.77-.59,1.02-1.05.25-.45.37-.98.37-1.58s-.12-1.13-.37-1.58c-.25-.44-.58-.79-1.02-1.03-.43-.25-.92-.37-1.46-.37s-1.03.12-1.46.37-.77.59-1.02,1.03c-.26.44-.38.97-.38,1.58s.13,1.12.38,1.58c.26.45.6.8,1.02,1.05.43.25.91.37,1.46.37Z"/><path d="m557.72,101.62v-1.26h5.41v1.26h-5.41Zm4.13,7.31c-.85,0-1.51-.23-1.98-.69s-.7-1.11-.7-1.97v-7.78h1.54v7.71c0,.46.11.81.34,1.06.23.25.56.37.98.37.48,0,.88-.13,1.2-.4l.48,1.1c-.23.2-.51.35-.84.45s-.66.14-1.02.14Z"/><path d="m569.86,108.83v-11.87h1.54v11.87h-1.54Z"/><path d="m575.09,98.72c-.3,0-.55-.1-.74-.29-.2-.19-.3-.43-.3-.7s.1-.53.3-.72c.2-.19.44-.29.74-.29s.55.09.74.28.3.42.3.7-.1.53-.29.73c-.19.2-.44.3-.75.3Zm-.77,10.11v-8.48h1.54v8.48h-1.54Z"/><path d="m583.32,100.27c.69,0,1.3.13,1.83.4.53.27.94.67,1.24,1.22s.45,1.23.45,2.06v4.88h-1.54v-4.7c0-.82-.2-1.44-.6-1.86-.4-.42-.96-.62-1.69-.62-.54,0-1.02.11-1.42.32-.41.21-.72.53-.94.94-.22.42-.33.93-.33,1.55v4.37h-1.54v-8.48h1.47v2.29l-.24-.61c.28-.55.7-.99,1.28-1.3s1.25-.46,2.02-.46Z"/><path d="m593.46,108.93c-.91,0-1.7-.19-2.39-.56-.69-.37-1.22-.89-1.6-1.54-.38-.65-.57-1.4-.57-2.24s.18-1.59.55-2.24c.37-.65.88-1.16,1.52-1.53s1.37-.55,2.18-.55,1.55.18,2.18.54c.63.36,1.12.87,1.48,1.53.36.66.54,1.42.54,2.3,0,.06,0,.14,0,.22,0,.08-.01.17-.02.24h-7.22v-1.1h6.42l-.62.38c.01-.54-.1-1.03-.34-1.46-.24-.43-.56-.76-.97-1-.41-.24-.89-.36-1.43-.36s-1.01.12-1.42.36c-.42.24-.74.58-.98,1.01-.24.43-.35.93-.35,1.48v.26c0,.57.13,1.07.39,1.51.26.44.63.79,1.1,1.03.47.25,1.01.37,1.62.37.5,0,.96-.08,1.37-.26.41-.17.77-.43,1.08-.77l.85.99c-.38.45-.86.79-1.43,1.02-.57.23-1.21.35-1.91.35Z"/><path d="m601.96,108.93c-.63,0-1.18-.11-1.66-.32-.47-.21-.84-.51-1.1-.89-.26-.38-.38-.81-.38-1.29s.11-.87.33-1.25c.22-.37.58-.67,1.07-.9s1.17-.34,2.01-.34h2.69v1.1h-2.62c-.77,0-1.29.13-1.55.38-.27.26-.4.57-.4.93,0,.42.17.75.5,1,.33.25.79.38,1.38.38s1.08-.13,1.51-.38.74-.63.94-1.12l.3,1.06c-.2.5-.56.9-1.07,1.19-.51.29-1.16.44-1.94.44Zm2.78-.1v-1.79l-.08-.34v-3.06c0-.65-.19-1.16-.57-1.51-.38-.36-.95-.54-1.7-.54-.5,0-.99.08-1.47.25-.48.17-.89.39-1.22.66l-.64-1.15c.44-.35.96-.62,1.58-.81.61-.19,1.26-.28,1.93-.28,1.16,0,2.06.28,2.69.85.63.57.94,1.43.94,2.59v5.12h-1.46Z"/><path d="m609.05,108.83v-8.48h1.47v2.3l-.14-.58c.23-.59.63-1.03,1.18-1.34s1.24-.46,2.05-.46v1.49c-.06,0-.12-.02-.18-.02h-.17c-.82,0-1.47.25-1.95.74-.48.49-.72,1.2-.72,2.13v4.22h-1.54Z"/><path d="m620.68,98.72c-.3,0-.55-.1-.74-.29-.2-.19-.3-.43-.3-.7s.1-.53.3-.72c.2-.19.44-.29.74-.29s.55.09.74.28.3.42.3.7-.1.53-.29.73c-.19.2-.44.3-.75.3Zm-.77,10.11v-8.48h1.54v8.48h-1.54Z"/><path d="m628.9,100.27c.69,0,1.3.13,1.83.4.53.27.94.67,1.24,1.22s.45,1.23.45,2.06v4.88h-1.54v-4.7c0-.82-.2-1.44-.6-1.86-.4-.42-.96-.62-1.69-.62-.54,0-1.02.11-1.42.32-.41.21-.72.53-.94.94-.22.42-.33.93-.33,1.55v4.37h-1.54v-8.48h1.47v2.29l-.24-.61c.28-.55.7-.99,1.28-1.3s1.25-.46,2.02-.46Z"/><path d="m82.62,128.13c-.63,0-1.18-.11-1.66-.32-.47-.21-.84-.51-1.1-.89-.26-.38-.38-.81-.38-1.29s.11-.87.33-1.25c.22-.37.58-.67,1.07-.9s1.17-.34,2.01-.34h2.69v1.1h-2.62c-.77,0-1.29.13-1.55.38-.27.26-.4.57-.4.93,0,.42.17.75.5,1,.33.25.79.38,1.38.38s1.08-.13,1.51-.38c.43-.26.74-.63.94-1.12l.3,1.06c-.2.5-.56.9-1.07,1.19-.51.29-1.16.44-1.94.44Zm2.78-.1v-1.79l-.08-.34v-3.06c0-.65-.19-1.16-.57-1.51s-.95-.54-1.7-.54c-.5,0-.99.08-1.47.25-.48.17-.89.39-1.22.66l-.64-1.15c.44-.35.96-.62,1.58-.81.61-.19,1.26-.28,1.93-.28,1.16,0,2.06.28,2.69.85.63.57.94,1.43.94,2.59v5.12h-1.46Z"/><path d="m89.71,131.14v-11.58h1.47v2.29l-.1,1.97.16,1.97v5.36h-1.54Zm4.5-3.01c-.7,0-1.35-.16-1.93-.49-.58-.33-1.04-.81-1.39-1.45-.35-.64-.52-1.44-.52-2.4s.17-1.76.5-2.4c.34-.64.79-1.12,1.38-1.44.58-.32,1.23-.48,1.96-.48.83,0,1.57.18,2.21.54.64.36,1.15.87,1.52,1.51s.56,1.4.56,2.26-.19,1.62-.56,2.27-.88,1.16-1.52,1.52c-.64.36-1.38.54-2.21.54Zm-.13-1.34c.54,0,1.03-.12,1.46-.37.43-.25.77-.59,1.02-1.05s.38-.98.38-1.58-.12-1.13-.38-1.58c-.25-.44-.59-.79-1.02-1.03-.43-.25-.92-.37-1.46-.37s-1.02.12-1.45.37c-.43.25-.77.59-1.02,1.03-.25.44-.38.97-.38,1.58s.12,1.12.38,1.58.59.8,1.02,1.05c.43.25.91.37,1.45.37Z"/><path d="m100.62,131.14v-11.58h1.47v2.29l-.1,1.97.16,1.97v5.36h-1.54Zm4.5-3.01c-.7,0-1.35-.16-1.93-.49-.58-.33-1.04-.81-1.39-1.45-.35-.64-.52-1.44-.52-2.4s.17-1.76.5-2.4c.34-.64.79-1.12,1.38-1.44.58-.32,1.23-.48,1.96-.48.83,0,1.57.18,2.21.54.64.36,1.15.87,1.52,1.51s.56,1.4.56,2.26-.19,1.62-.56,2.27-.88,1.16-1.52,1.52c-.64.36-1.38.54-2.21.54Zm-.13-1.34c.54,0,1.03-.12,1.46-.37.43-.25.77-.59,1.02-1.05s.38-.98.38-1.58-.12-1.13-.38-1.58c-.25-.44-.59-.79-1.02-1.03-.43-.25-.92-.37-1.46-.37s-1.02.12-1.45.37c-.43.25-.77.59-1.02,1.03-.25.44-.38.97-.38,1.58s.12,1.12.38,1.58.59.8,1.02,1.05c.43.25.91.37,1.45.37Z"/><path d="m111.53,128.03v-11.87h1.54v11.87h-1.54Z"/><path d="m116.76,117.92c-.3,0-.55-.1-.74-.29-.2-.19-.3-.43-.3-.7s.1-.53.3-.72c.2-.19.45-.29.74-.29s.55.09.74.28.3.42.3.7-.1.53-.29.73-.44.3-.75.3Zm-.77,10.11v-8.48h1.54v8.48h-1.54Z"/><path d="m124.16,128.13c-.86,0-1.63-.19-2.31-.56s-1.21-.89-1.59-1.54-.58-1.4-.58-2.24.19-1.59.58-2.24c.38-.65.91-1.16,1.59-1.53s1.45-.55,2.31-.55c.77,0,1.45.15,2.06.46.6.3,1.07.75,1.4,1.35l-1.17.75c-.28-.42-.62-.72-1.02-.92-.4-.2-.83-.3-1.29-.3-.55,0-1.05.12-1.49.37-.44.25-.78.59-1.04,1.03-.26.44-.38.97-.38,1.58s.13,1.14.38,1.58c.26.45.6.79,1.04,1.04.44.25.93.37,1.49.37.46,0,.89-.1,1.29-.3.4-.2.74-.5,1.02-.92l1.17.74c-.33.59-.8,1.04-1.4,1.35s-1.29.47-2.06.47Z"/><path d="m132.08,128.13c-.63,0-1.18-.11-1.66-.32-.47-.21-.84-.51-1.1-.89-.26-.38-.38-.81-.38-1.29s.11-.87.33-1.25c.22-.37.58-.67,1.07-.9s1.17-.34,2.01-.34h2.69v1.1h-2.62c-.77,0-1.29.13-1.55.38-.27.26-.4.57-.4.93,0,.42.17.75.5,1,.33.25.79.38,1.38.38s1.08-.13,1.51-.38.74-.63.94-1.12l.3,1.06c-.2.5-.56.9-1.07,1.19-.51.29-1.16.44-1.94.44Zm2.78-.1v-1.79l-.08-.34v-3.06c0-.65-.19-1.16-.57-1.51-.38-.36-.95-.54-1.7-.54-.5,0-.99.08-1.47.25-.48.17-.89.39-1.22.66l-.64-1.15c.44-.35.96-.62,1.58-.81.61-.19,1.26-.28,1.93-.28,1.16,0,2.06.28,2.69.85.63.57.94,1.43.94,2.59v5.12h-1.46Z"/><path d="m137.95,120.82v-1.26h5.41v1.26h-5.41Zm4.13,7.31c-.85,0-1.51-.23-1.98-.69s-.7-1.11-.7-1.97v-7.78h1.54v7.71c0,.46.11.81.34,1.06.23.25.56.37.98.37.48,0,.88-.13,1.2-.4l.48,1.1c-.23.2-.51.35-.84.45s-.66.14-1.02.14Z"/><path d="m146.56,117.92c-.3,0-.55-.1-.74-.29-.2-.19-.3-.43-.3-.7s.1-.53.3-.72c.2-.19.44-.29.74-.29s.55.09.74.28.3.42.3.7-.1.53-.29.73c-.19.2-.44.3-.75.3Zm-.77,10.11v-8.48h1.54v8.48h-1.54Z"/><path d="m153.88,128.13c-.85,0-1.61-.19-2.27-.56-.66-.37-1.18-.89-1.57-1.54s-.58-1.4-.58-2.23.19-1.59.58-2.24c.38-.65.91-1.16,1.57-1.53.66-.37,1.42-.55,2.27-.55s1.6.18,2.26.55c.67.37,1.19.88,1.57,1.52.38.65.57,1.4.57,2.25s-.19,1.59-.57,2.24-.9,1.16-1.57,1.54c-.67.37-1.42.56-2.26.56Zm0-1.34c.54,0,1.03-.12,1.46-.37.43-.25.77-.59,1.02-1.05.25-.45.37-.98.37-1.58s-.12-1.13-.37-1.58c-.25-.44-.58-.79-1.02-1.03-.43-.25-.92-.37-1.46-.37s-1.03.12-1.46.37-.77.59-1.02,1.03c-.26.44-.38.97-.38,1.58s.13,1.12.38,1.58c.26.45.6.8,1.02,1.05.43.25.91.37,1.46.37Z"/><path d="m164.94,119.47c.69,0,1.3.13,1.83.4.53.27.94.67,1.24,1.22s.45,1.23.45,2.06v4.88h-1.54v-4.7c0-.82-.2-1.44-.6-1.86-.4-.42-.96-.62-1.69-.62-.54,0-1.02.11-1.42.32-.41.21-.72.53-.94.94-.22.42-.33.93-.33,1.55v4.37h-1.54v-8.48h1.47v2.29l-.24-.61c.28-.55.7-.99,1.28-1.3s1.25-.46,2.02-.46Z"/><path d="m179.24,128.13c-.85,0-1.61-.19-2.27-.56-.66-.37-1.18-.89-1.57-1.54s-.58-1.4-.58-2.23.19-1.59.58-2.24c.38-.65.91-1.16,1.57-1.53.66-.37,1.42-.55,2.27-.55s1.6.18,2.26.55c.67.37,1.19.88,1.57,1.52.38.65.57,1.4.57,2.25s-.19,1.59-.57,2.24-.9,1.16-1.57,1.54c-.67.37-1.42.56-2.26.56Zm0-1.34c.54,0,1.03-.12,1.46-.37.43-.25.77-.59,1.02-1.05.25-.45.37-.98.37-1.58s-.12-1.13-.37-1.58c-.25-.44-.58-.79-1.02-1.03-.43-.25-.92-.37-1.46-.37s-1.03.12-1.46.37-.77.59-1.02,1.03c-.26.44-.38.97-.38,1.58s.13,1.12.38,1.58c.26.45.6.8,1.02,1.05.43.25.91.37,1.46.37Z"/><path d="m185.77,128.03v-8.48h1.47v2.3l-.14-.58c.23-.59.63-1.03,1.18-1.34s1.24-.46,2.05-.46v1.49c-.06,0-.12-.02-.18-.02h-.17c-.82,0-1.47.25-1.95.74-.48.49-.72,1.2-.72,2.13v4.22h-1.54Z"/><path d="m200.27,128.13c-.85,0-1.61-.19-2.27-.56-.66-.37-1.18-.89-1.57-1.54s-.58-1.4-.58-2.23.19-1.59.58-2.24c.38-.65.91-1.16,1.57-1.53.66-.37,1.42-.55,2.27-.55s1.6.18,2.26.55c.67.37,1.19.88,1.57,1.52.38.65.57,1.4.57,2.25s-.19,1.59-.57,2.24-.9,1.16-1.57,1.54c-.67.37-1.42.56-2.26.56Zm0-1.34c.54,0,1.03-.12,1.46-.37.43-.25.77-.59,1.02-1.05.25-.45.37-.98.37-1.58s-.12-1.13-.37-1.58c-.25-.44-.58-.79-1.02-1.03-.43-.25-.92-.37-1.46-.37s-1.03.12-1.46.37-.77.59-1.02,1.03c-.26.44-.38.97-.38,1.58s.13,1.12.38,1.58c.26.45.6.8,1.02,1.05.43.25.91.37,1.46.37Z"/><path d="m206.8,131.14v-11.58h1.47v2.29l-.1,1.97.16,1.97v5.36h-1.54Zm4.5-3.01c-.7,0-1.35-.16-1.93-.49-.58-.33-1.05-.81-1.39-1.45-.35-.64-.52-1.44-.52-2.4s.17-1.76.5-2.4c.34-.64.79-1.12,1.38-1.44.58-.32,1.23-.48,1.96-.48.83,0,1.57.18,2.21.54.64.36,1.15.87,1.52,1.51.37.65.56,1.4.56,2.26s-.19,1.62-.56,2.27c-.37.65-.88,1.16-1.52,1.52-.64.36-1.38.54-2.21.54Zm-.13-1.34c.54,0,1.03-.12,1.46-.37.43-.25.77-.59,1.02-1.05.25-.45.38-.98.38-1.58s-.13-1.13-.38-1.58c-.25-.44-.59-.79-1.02-1.03s-.92-.37-1.46-.37-1.02.12-1.45.37-.77.59-1.02,1.03c-.25.44-.38.97-.38,1.58s.13,1.12.38,1.58c.25.45.59.8,1.02,1.05.43.25.91.37,1.45.37Z"/><path d="m221.48,128.13c-.91,0-1.7-.19-2.39-.56-.69-.37-1.22-.89-1.6-1.54-.38-.65-.57-1.4-.57-2.24s.18-1.59.55-2.24c.37-.65.88-1.16,1.52-1.53s1.37-.55,2.18-.55,1.55.18,2.18.54c.63.36,1.12.87,1.48,1.53.36.66.54,1.42.54,2.3,0,.06,0,.14,0,.22,0,.08-.01.17-.02.24h-7.22v-1.1h6.42l-.62.38c.01-.54-.1-1.03-.34-1.46-.24-.43-.56-.76-.97-1-.41-.24-.89-.36-1.43-.36s-1.01.12-1.42.36c-.42.24-.74.58-.98,1.01-.24.43-.35.93-.35,1.48v.26c0,.57.13,1.07.39,1.51.26.44.63.79,1.1,1.03.47.25,1.01.37,1.62.37.5,0,.96-.08,1.37-.26.41-.17.77-.43,1.08-.77l.85.99c-.38.45-.86.79-1.43,1.02-.57.23-1.21.35-1.91.35Z"/><path d="m227.5,128.03v-8.48h1.47v2.3l-.14-.58c.23-.59.63-1.03,1.18-1.34s1.24-.46,2.05-.46v1.49c-.06,0-.12-.02-.18-.02h-.17c-.82,0-1.47.25-1.95.74-.48.49-.72,1.2-.72,2.13v4.22h-1.54Z"/><path d="m236.54,128.13c-.63,0-1.18-.11-1.66-.32-.47-.21-.84-.51-1.1-.89-.26-.38-.38-.81-.38-1.29s.11-.87.33-1.25c.22-.37.58-.67,1.07-.9s1.17-.34,2.01-.34h2.69v1.1h-2.62c-.77,0-1.29.13-1.55.38-.27.26-.4.57-.4.93,0,.42.17.75.5,1,.33.25.79.38,1.38.38s1.08-.13,1.51-.38.74-.63.94-1.12l.3,1.06c-.2.5-.56.9-1.07,1.19-.51.29-1.16.44-1.94.44Zm2.78-.1v-1.79l-.08-.34v-3.06c0-.65-.19-1.16-.57-1.51-.38-.36-.95-.54-1.7-.54-.5,0-.99.08-1.47.25-.48.17-.89.39-1.22.66l-.64-1.15c.44-.35.96-.62,1.58-.81.61-.19,1.26-.28,1.93-.28,1.16,0,2.06.28,2.69.85.63.57.94,1.43.94,2.59v5.12h-1.46Z"/><path d="m242.41,120.82v-1.26h5.41v1.26h-5.41Zm4.13,7.31c-.85,0-1.51-.23-1.98-.69s-.7-1.11-.7-1.97v-7.78h1.54v7.71c0,.46.11.81.34,1.06.23.25.56.37.98.37.48,0,.88-.13,1.2-.4l.48,1.1c-.23.2-.51.35-.84.45s-.66.14-1.02.14Z"/><path d="m251.02,117.92c-.3,0-.55-.1-.74-.29-.2-.19-.3-.43-.3-.7s.1-.53.3-.72c.2-.19.44-.29.74-.29s.55.09.74.28.3.42.3.7-.1.53-.29.73c-.19.2-.44.3-.75.3Zm-.77,10.11v-8.48h1.54v8.48h-1.54Z"/><path d="m258.35,128.13c-.85,0-1.61-.19-2.27-.56-.66-.37-1.18-.89-1.57-1.54s-.58-1.4-.58-2.23.19-1.59.58-2.24c.38-.65.91-1.16,1.57-1.53.66-.37,1.42-.55,2.27-.55s1.6.18,2.26.55c.67.37,1.19.88,1.57,1.52.38.65.57,1.4.57,2.25s-.19,1.59-.57,2.24-.9,1.16-1.57,1.54c-.67.37-1.42.56-2.26.56Zm0-1.34c.54,0,1.03-.12,1.46-.37.43-.25.77-.59,1.02-1.05.25-.45.37-.98.37-1.58s-.12-1.13-.37-1.58c-.25-.44-.58-.79-1.02-1.03-.43-.25-.92-.37-1.46-.37s-1.03.12-1.46.37-.77.59-1.02,1.03c-.26.44-.38.97-.38,1.58s.13,1.12.38,1.58c.26.45.6.8,1.02,1.05.43.25.91.37,1.46.37Z"/><path d="m269.4,119.47c.69,0,1.3.13,1.83.4.53.27.94.67,1.24,1.22s.45,1.23.45,2.06v4.88h-1.54v-4.7c0-.82-.2-1.44-.6-1.86-.4-.42-.96-.62-1.69-.62-.54,0-1.02.11-1.42.32-.41.21-.72.53-.94.94-.22.42-.33.93-.33,1.55v4.37h-1.54v-8.48h1.47v2.29l-.24-.61c.28-.55.7-.99,1.28-1.3s1.25-.46,2.02-.46Z"/><path d="m275.16,130.4l.8-3.23.21.93c-.31,0-.57-.1-.78-.29-.21-.19-.31-.45-.31-.78s.1-.58.31-.78c.21-.2.46-.3.76-.3s.56.1.75.31c.19.21.29.47.29.78,0,.11,0,.21-.02.31-.02.1-.04.22-.08.35-.04.13-.09.3-.17.49l-.75,2.22h-1.01Z"/><path d="m283.71,128.03v-11.87h1.54v5.65l-.16,1.97.1,1.97v2.29h-1.47Zm4.5.1c-.73,0-1.38-.16-1.96-.49-.58-.33-1.04-.81-1.38-1.45-.34-.64-.5-1.44-.5-2.4s.17-1.76.52-2.4c.35-.64.81-1.12,1.39-1.44.58-.32,1.22-.48,1.93-.48.83,0,1.57.18,2.21.54.64.36,1.15.87,1.52,1.51.37.65.56,1.4.56,2.26s-.19,1.62-.56,2.27c-.37.65-.88,1.16-1.52,1.52-.64.36-1.38.54-2.21.54Zm-.13-1.34c.54,0,1.03-.12,1.46-.37.43-.25.77-.59,1.02-1.05.25-.45.38-.98.38-1.58s-.13-1.13-.38-1.58c-.25-.44-.59-.79-1.02-1.03s-.92-.37-1.46-.37-1.02.12-1.45.37-.77.59-1.02,1.03c-.25.44-.38.97-.38,1.58s.13,1.12.38,1.58c.25.45.59.8,1.02,1.05.43.25.91.37,1.45.37Z"/><path d="m298.19,128.13c-.73,0-1.36-.13-1.91-.4-.55-.27-.98-.67-1.28-1.22-.3-.55-.46-1.24-.46-2.07v-4.88h1.54v4.7c0,.83.2,1.46.6,1.87.4.42.96.62,1.69.62.53,0,1-.11,1.39-.33.39-.22.7-.54.91-.96.21-.42.32-.93.32-1.53v-4.38h1.54v8.48h-1.46v-2.29l.24.61c-.28.57-.69,1-1.25,1.31-.56.31-1.18.46-1.87.46Z"/><path d="m304.23,120.82v-1.26h5.41v1.26h-5.41Zm4.13,7.31c-.85,0-1.51-.23-1.98-.69s-.7-1.11-.7-1.97v-7.78h1.54v7.71c0,.46.11.81.34,1.06.23.25.56.37.98.37.48,0,.88-.13,1.2-.4l.48,1.1c-.23.2-.51.35-.84.45s-.66.14-1.02.14Z"/><path d="m318.17,128.03l-3.15-8.48h1.46l2.8,7.68h-.69l2.91-7.68h1.3l2.85,7.68h-.67l2.86-7.68h1.38l-3.17,8.48h-1.47l-2.67-7.01h.45l-2.7,7.01h-1.47Z"/><path d="m334.54,128.13c-.91,0-1.7-.19-2.39-.56-.69-.37-1.22-.89-1.6-1.54-.38-.65-.57-1.4-.57-2.24s.18-1.59.55-2.24c.37-.65.88-1.16,1.52-1.53s1.37-.55,2.18-.55,1.55.18,2.18.54c.63.36,1.12.87,1.48,1.53.36.66.54,1.42.54,2.3,0,.06,0,.14,0,.22,0,.08-.01.17-.02.24h-7.22v-1.1h6.42l-.62.38c.01-.54-.1-1.03-.34-1.46-.24-.43-.56-.76-.97-1-.41-.24-.89-.36-1.43-.36s-1.01.12-1.42.36c-.42.24-.74.58-.98,1.01-.24.43-.35.93-.35,1.48v.26c0,.57.13,1.07.39,1.51.26.44.63.79,1.1,1.03.47.25,1.01.37,1.62.37.5,0,.96-.08,1.37-.26.41-.17.77-.43,1.08-.77l.85.99c-.38.45-.86.79-1.43,1.02-.57.23-1.21.35-1.91.35Z"/><path d="m349.39,119.47c.69,0,1.3.13,1.83.4.53.27.94.67,1.24,1.22s.45,1.23.45,2.06v4.88h-1.54v-4.7c0-.82-.2-1.44-.6-1.86-.4-.42-.96-.62-1.69-.62-.54,0-1.02.11-1.42.32-.41.21-.72.53-.94.94-.22.42-.33.93-.33,1.55v4.37h-1.54v-11.87h1.54v5.68l-.3-.61c.28-.55.7-.99,1.28-1.3s1.25-.46,2.02-.46Z"/><path d="m358.23,128.13c-.63,0-1.18-.11-1.66-.32-.47-.21-.84-.51-1.1-.89-.26-.38-.38-.81-.38-1.29s.11-.87.33-1.25c.22-.37.58-.67,1.07-.9s1.17-.34,2.01-.34h2.69v1.1h-2.62c-.77,0-1.29.13-1.55.38-.27.26-.4.57-.4.93,0,.42.17.75.5,1,.33.25.79.38,1.38.38s1.08-.13,1.51-.38.74-.63.94-1.12l.3,1.06c-.2.5-.56.9-1.07,1.19-.51.29-1.16.44-1.94.44Zm2.78-.1v-1.79l-.08-.34v-3.06c0-.65-.19-1.16-.57-1.51-.38-.36-.95-.54-1.7-.54-.5,0-.99.08-1.47.25-.48.17-.89.39-1.22.66l-.64-1.15c.44-.35.96-.62,1.58-.81.61-.19,1.26-.28,1.93-.28,1.16,0,2.06.28,2.69.85.63.57.94,1.43.94,2.59v5.12h-1.46Z"/><path d="m367.55,128.03l-3.71-8.48h1.6l3.3,7.68h-.77l3.36-7.68h1.5l-3.71,8.48h-1.57Z"/><path d="m378.04,128.13c-.91,0-1.7-.19-2.39-.56-.69-.37-1.22-.89-1.6-1.54-.38-.65-.57-1.4-.57-2.24s.18-1.59.55-2.24c.37-.65.88-1.16,1.52-1.53s1.37-.55,2.18-.55,1.55.18,2.18.54c.63.36,1.12.87,1.48,1.53.36.66.54,1.42.54,2.3,0,.06,0,.14,0,.22,0,.08-.01.17-.02.24h-7.22v-1.1h6.42l-.62.38c.01-.54-.1-1.03-.34-1.46-.24-.43-.56-.76-.97-1-.41-.24-.89-.36-1.43-.36s-1.01.12-1.42.36c-.42.24-.74.58-.98,1.01-.24.43-.35.93-.35,1.48v.26c0,.57.13,1.07.39,1.51.26.44.63.79,1.1,1.03.47.25,1.01.37,1.62.37.5,0,.96-.08,1.37-.26.41-.17.77-.43,1.08-.77l.85.99c-.38.45-.86.79-1.43,1.02-.57.23-1.21.35-1.91.35Z"/><path d="m387.15,120.82v-1.26h5.41v1.26h-5.41Zm4.13,7.31c-.85,0-1.51-.23-1.98-.69s-.7-1.11-.7-1.97v-7.78h1.54v7.71c0,.46.11.81.34,1.06.23.25.56.37.98.37.48,0,.88-.13,1.2-.4l.48,1.1c-.23.2-.51.35-.84.45s-.66.14-1.02.14Z"/><path d="m398.62,128.13c-.85,0-1.61-.19-2.27-.56-.66-.37-1.18-.89-1.57-1.54s-.58-1.4-.58-2.23.19-1.59.58-2.24c.38-.65.91-1.16,1.57-1.53.66-.37,1.42-.55,2.27-.55s1.6.18,2.26.55c.67.37,1.19.88,1.57,1.52.38.65.57,1.4.57,2.25s-.19,1.59-.57,2.24-.9,1.16-1.57,1.54c-.67.37-1.42.56-2.26.56Zm0-1.34c.54,0,1.03-.12,1.46-.37.43-.25.77-.59,1.02-1.05.25-.45.37-.98.37-1.58s-.12-1.13-.37-1.58c-.25-.44-.58-.79-1.02-1.03-.43-.25-.92-.37-1.46-.37s-1.03.12-1.46.37-.77.59-1.02,1.03c-.26.44-.38.97-.38,1.58s.13,1.12.38,1.58c.26.45.6.8,1.02,1.05.43.25.91.37,1.46.37Z"/><path d="m409.45,131.14v-11.58h1.47v2.29l-.1,1.97.16,1.97v5.36h-1.54Zm4.5-3.01c-.7,0-1.35-.16-1.93-.49-.58-.33-1.05-.81-1.39-1.45-.35-.64-.52-1.44-.52-2.4s.17-1.76.5-2.4c.34-.64.79-1.12,1.38-1.44.58-.32,1.23-.48,1.96-.48.83,0,1.57.18,2.21.54.64.36,1.15.87,1.52,1.51.37.65.56,1.4.56,2.26s-.19,1.62-.56,2.27c-.37.65-.88,1.16-1.52,1.52-.64.36-1.38.54-2.21.54Zm-.13-1.34c.54,0,1.03-.12,1.46-.37.43-.25.77-.59,1.02-1.05.25-.45.38-.98.38-1.58s-.13-1.13-.38-1.58c-.25-.44-.59-.79-1.02-1.03s-.92-.37-1.46-.37-1.02.12-1.45.37-.77.59-1.02,1.03c-.25.44-.38.97-.38,1.58s.13,1.12.38,1.58c.25.45.59.8,1.02,1.05.43.25.91.37,1.45.37Z"/><path d="m423.93,128.13c-.73,0-1.36-.13-1.91-.4-.55-.27-.98-.67-1.28-1.22-.3-.55-.46-1.24-.46-2.07v-4.88h1.54v4.7c0,.83.2,1.46.6,1.87.4.42.96.62,1.69.62.53,0,1-.11,1.39-.33.39-.22.7-.54.91-.96.21-.42.32-.93.32-1.53v-4.38h1.54v8.48h-1.46v-2.29l.24.61c-.28.57-.69,1-1.25,1.31-.56.31-1.18.46-1.87.46Z"/><path d="m429.98,120.82v-1.26h5.41v1.26h-5.41Zm4.13,7.31c-.85,0-1.51-.23-1.98-.69s-.7-1.11-.7-1.97v-7.78h1.54v7.71c0,.46.11.81.34,1.06.23.25.56.37.98.37.48,0,.88-.13,1.2-.4l.48,1.1c-.23.2-.51.35-.84.45s-.66.14-1.02.14Z"/><path d="m442.89,117.92c-.3,0-.55-.1-.74-.29-.2-.19-.3-.43-.3-.7s.1-.53.3-.72c.2-.19.44-.29.74-.29s.55.09.74.28.3.42.3.7-.1.53-.29.73c-.19.2-.44.3-.75.3Zm-.77,10.11v-8.48h1.54v8.48h-1.54Z"/><path d="m445.37,120.82v-1.26h5.41v1.26h-5.41Zm4.13,7.31c-.85,0-1.51-.23-1.98-.69s-.7-1.11-.7-1.97v-7.78h1.54v7.71c0,.46.11.81.34,1.06.23.25.56.37.98.37.48,0,.88-.13,1.2-.4l.48,1.1c-.23.2-.51.35-.84.45s-.66.14-1.02.14Z"/><path d="m458.28,117.92c-.3,0-.55-.1-.74-.29-.2-.19-.3-.43-.3-.7s.1-.53.3-.72c.2-.19.44-.29.74-.29s.55.09.74.28.3.42.3.7-.1.53-.29.73c-.19.2-.44.3-.75.3Zm-.77,10.11v-8.48h1.54v8.48h-1.54Z"/><path d="m466.5,119.47c.69,0,1.3.13,1.83.4.53.27.94.67,1.24,1.22s.45,1.23.45,2.06v4.88h-1.54v-4.7c0-.82-.2-1.44-.6-1.86-.4-.42-.96-.62-1.69-.62-.54,0-1.02.11-1.42.32-.41.21-.72.53-.94.94-.22.42-.33.93-.33,1.55v4.37h-1.54v-8.48h1.47v2.29l-.24-.61c.28-.55.7-.99,1.28-1.3s1.25-.46,2.02-.46Z"/><path d="m471.66,120.82v-1.26h5.41v1.26h-5.41Zm4.13,7.31c-.85,0-1.51-.23-1.98-.69s-.7-1.11-.7-1.97v-7.78h1.54v7.71c0,.46.11.81.34,1.06.23.25.56.37.98.37.48,0,.88-.13,1.2-.4l.48,1.1c-.23.2-.51.35-.84.45s-.66.14-1.02.14Z"/><path d="m483.13,128.13c-.85,0-1.61-.19-2.27-.56-.66-.37-1.18-.89-1.57-1.54s-.58-1.4-.58-2.23.19-1.59.58-2.24c.38-.65.91-1.16,1.57-1.53.66-.37,1.42-.55,2.27-.55s1.6.18,2.26.55c.67.37,1.19.88,1.57,1.52.38.65.57,1.4.57,2.25s-.19,1.59-.57,2.24-.9,1.16-1.57,1.54c-.67.37-1.42.56-2.26.56Zm0-1.34c.54,0,1.03-.12,1.46-.37.43-.25.77-.59,1.02-1.05.25-.45.37-.98.37-1.58s-.12-1.13-.37-1.58c-.25-.44-.58-.79-1.02-1.03-.43-.25-.92-.37-1.46-.37s-1.03.12-1.46.37-.77.59-1.02,1.03c-.26.44-.38.97-.38,1.58s.13,1.12.38,1.58c.26.45.6.8,1.02,1.05.43.25.91.37,1.46.37Z"/><path d="m496.44,128.13c-.63,0-1.18-.11-1.66-.32-.47-.21-.84-.51-1.1-.89-.26-.38-.38-.81-.38-1.29s.11-.87.33-1.25c.22-.37.58-.67,1.07-.9s1.17-.34,2.01-.34h2.69v1.1h-2.62c-.77,0-1.29.13-1.55.38-.27.26-.4.57-.4.93,0,.42.17.75.5,1,.33.25.79.38,1.38.38s1.08-.13,1.51-.38.74-.63.94-1.12l.3,1.06c-.2.5-.56.9-1.07,1.19-.51.29-1.16.44-1.94.44Zm2.78-.1v-1.79l-.08-.34v-3.06c0-.65-.19-1.16-.57-1.51-.38-.36-.95-.54-1.7-.54-.5,0-.99.08-1.47.25-.48.17-.89.39-1.22.66l-.64-1.15c.44-.35.96-.62,1.58-.81.61-.19,1.26-.28,1.93-.28,1.16,0,2.06.28,2.69.85.63.57.94,1.43.94,2.59v5.12h-1.46Z"/><path d="m507.83,128.03v-11.87h1.54v11.87h-1.54Z"/><path d="m513.06,117.92c-.3,0-.55-.1-.74-.29-.2-.19-.3-.43-.3-.7s.1-.53.3-.72c.2-.19.44-.29.74-.29s.55.09.74.28.3.42.3.7-.1.53-.29.73c-.19.2-.44.3-.75.3Zm-.77,10.11v-8.48h1.54v8.48h-1.54Z"/><path d="m521.29,119.47c.69,0,1.3.13,1.83.4.53.27.94.67,1.24,1.22s.45,1.23.45,2.06v4.88h-1.54v-4.7c0-.82-.2-1.44-.6-1.86-.4-.42-.96-.62-1.69-.62-.54,0-1.02.11-1.42.32-.41.21-.72.53-.94.94-.22.42-.33.93-.33,1.55v4.37h-1.54v-8.48h1.47v2.29l-.24-.61c.28-.55.7-.99,1.28-1.3s1.25-.46,2.02-.46Z"/><path d="m531.43,128.13c-.91,0-1.7-.19-2.39-.56-.69-.37-1.22-.89-1.6-1.54-.38-.65-.57-1.4-.57-2.24s.18-1.59.55-2.24c.37-.65.88-1.16,1.52-1.53s1.37-.55,2.18-.55,1.55.18,2.18.54c.63.36,1.12.87,1.48,1.53.36.66.54,1.42.54,2.3,0,.06,0,.14,0,.22,0,.08-.01.17-.02.24h-7.22v-1.1h6.42l-.62.38c.01-.54-.1-1.03-.34-1.46-.24-.43-.56-.76-.97-1-.41-.24-.89-.36-1.43-.36s-1.01.12-1.42.36c-.42.24-.74.58-.98,1.01-.24.43-.35.93-.35,1.48v.26c0,.57.13,1.07.39,1.51.26.44.63.79,1.1,1.03.47.25,1.01.37,1.62.37.5,0,.96-.08,1.37-.26.41-.17.77-.43,1.08-.77l.85.99c-.38.45-.86.79-1.43,1.02-.57.23-1.21.35-1.91.35Z"/><path d="m539.93,128.13c-.63,0-1.18-.11-1.66-.32-.47-.21-.84-.51-1.1-.89-.26-.38-.38-.81-.38-1.29s.11-.87.33-1.25c.22-.37.58-.67,1.07-.9s1.17-.34,2.01-.34h2.69v1.1h-2.62c-.77,0-1.29.13-1.55.38-.27.26-.4.57-.4.93,0,.42.17.75.5,1,.33.25.79.38,1.38.38s1.08-.13,1.51-.38.74-.63.94-1.12l.3,1.06c-.2.5-.56.9-1.07,1.19-.51.29-1.16.44-1.94.44Zm2.78-.1v-1.79l-.08-.34v-3.06c0-.65-.19-1.16-.57-1.51-.38-.36-.95-.54-1.7-.54-.5,0-.99.08-1.47.25-.48.17-.89.39-1.22.66l-.64-1.15c.44-.35.96-.62,1.58-.81.61-.19,1.26-.28,1.93-.28,1.16,0,2.06.28,2.69.85.63.57.94,1.43.94,2.59v5.12h-1.46Z"/><path d="m547.01,128.03v-8.48h1.47v2.3l-.14-.58c.23-.59.63-1.03,1.18-1.34s1.24-.46,2.05-.46v1.49c-.06,0-.12-.02-.18-.02h-.17c-.82,0-1.47.25-1.95.74-.48.49-.72,1.2-.72,2.13v4.22h-1.54Z"/><path d="m556.66,120.82v-1.26h5.41v1.26h-5.41Zm4.13,7.31c-.85,0-1.51-.23-1.98-.69s-.7-1.11-.7-1.97v-7.78h1.54v7.71c0,.46.11.81.34,1.06.23.25.56.37.98.37.48,0,.88-.13,1.2-.4l.48,1.1c-.23.2-.51.35-.84.45s-.66.14-1.02.14Z"/><path d="m565.27,117.92c-.3,0-.55-.1-.74-.29-.2-.19-.3-.43-.3-.7s.1-.53.3-.72c.2-.19.44-.29.74-.29s.55.09.74.28.3.42.3.7-.1.53-.29.73c-.19.2-.44.3-.75.3Zm-.77,10.11v-8.48h1.54v8.48h-1.54Z"/><path d="m579.57,119.47c.68,0,1.29.13,1.81.4s.93.67,1.22,1.22c.29.54.44,1.23.44,2.06v4.88h-1.54v-4.7c0-.82-.19-1.44-.58-1.86s-.92-.62-1.62-.62c-.51,0-.96.11-1.34.32-.38.21-.68.53-.89.94s-.31.93-.31,1.55v4.37h-1.54v-4.7c0-.82-.19-1.44-.57-1.86-.38-.42-.92-.62-1.62-.62-.5,0-.94.11-1.33.32-.38.21-.68.53-.9.94-.21.42-.32.93-.32,1.55v4.37h-1.54v-8.48h1.47v2.26l-.24-.58c.27-.55.68-.99,1.23-1.3s1.2-.46,1.94-.46c.81,0,1.51.2,2.1.6.59.4.97,1.01,1.15,1.82l-.62-.26c.26-.65.7-1.17,1.34-1.57.64-.39,1.39-.59,2.24-.59Z"/><path d="m589.65,128.13c-.91,0-1.7-.19-2.39-.56-.69-.37-1.22-.89-1.6-1.54-.38-.65-.57-1.4-.57-2.24s.18-1.59.55-2.24c.37-.65.88-1.16,1.52-1.53s1.37-.55,2.18-.55,1.55.18,2.18.54c.63.36,1.12.87,1.48,1.53.36.66.54,1.42.54,2.3,0,.06,0,.14,0,.22,0,.08-.01.17-.02.24h-7.22v-1.1h6.42l-.62.38c.01-.54-.1-1.03-.34-1.46-.24-.43-.56-.76-.97-1-.41-.24-.89-.36-1.43-.36s-1.01.12-1.42.36c-.42.24-.74.58-.98,1.01-.24.43-.35.93-.35,1.48v.26c0,.57.13,1.07.39,1.51.26.44.63.79,1.1,1.03.47.25,1.01.37,1.62.37.5,0,.96-.08,1.37-.26.41-.17.77-.43,1.08-.77l.85.99c-.38.45-.86.79-1.43,1.02-.57.23-1.21.35-1.91.35Z"/><path d="m595.67,128.03v-11.87h1.54v11.87h-1.54Z"/><path d="m600.9,117.92c-.3,0-.55-.1-.74-.29-.2-.19-.3-.43-.3-.7s.1-.53.3-.72c.2-.19.44-.29.74-.29s.55.09.74.28.3.42.3.7-.1.53-.29.73c-.19.2-.44.3-.75.3Zm-.77,10.11v-8.48h1.54v8.48h-1.54Z"/><path d="m609.13,119.47c.69,0,1.3.13,1.83.4.53.27.94.67,1.24,1.22s.45,1.23.45,2.06v4.88h-1.54v-4.7c0-.82-.2-1.44-.6-1.86-.4-.42-.96-.62-1.69-.62-.54,0-1.02.11-1.42.32-.41.21-.72.53-.94.94-.22.42-.33.93-.33,1.55v4.37h-1.54v-8.48h1.47v2.29l-.24-.61c.28-.55.7-.99,1.28-1.3s1.25-.46,2.02-.46Z"/><path d="m619.27,128.13c-.91,0-1.7-.19-2.39-.56-.69-.37-1.22-.89-1.6-1.54-.38-.65-.57-1.4-.57-2.24s.18-1.59.55-2.24c.37-.65.88-1.16,1.52-1.53s1.37-.55,2.18-.55,1.55.18,2.18.54c.63.36,1.12.87,1.48,1.53.36.66.54,1.42.54,2.3,0,.06,0,.14,0,.22,0,.08-.01.17-.02.24h-7.22v-1.1h6.42l-.62.38c.01-.54-.1-1.03-.34-1.46-.24-.43-.56-.76-.97-1-.41-.24-.89-.36-1.43-.36s-1.01.12-1.42.36c-.42.24-.74.58-.98,1.01-.24.43-.35.93-.35,1.48v.26c0,.57.13,1.07.39,1.51.26.44.63.79,1.1,1.03.47.25,1.01.37,1.62.37.5,0,.96-.08,1.37-.26.41-.17.77-.43,1.08-.77l.85.99c-.38.45-.86.79-1.43,1.02-.57.23-1.21.35-1.91.35Z"/><rect class="cls-3" x="35.9" y="113.46" width="56.89" height="1.14" transform="translate(178.37 49.69) rotate(90)"/><path class="cls-3" d="m38.51,100.15l-4.97,20.19-1.19-5.77c1.92,0,3.51.6,4.77,1.79,1.26,1.19,1.89,2.79,1.89,4.78s-.63,3.61-1.89,4.87c-1.26,1.26-2.82,1.89-4.68,1.89s-3.52-.65-4.77-1.94c-1.26-1.29-1.89-2.9-1.89-4.83,0-.66.05-1.29.15-1.89.1-.6.28-1.31.55-2.14.26-.83.63-1.84,1.09-3.03l4.68-13.93h6.27Zm18.8,0l-4.97,20.19-1.19-5.77c1.92,0,3.51.6,4.78,1.79,1.26,1.19,1.89,2.79,1.89,4.78s-.63,3.61-1.89,4.87c-1.26,1.26-2.82,1.89-4.68,1.89s-3.52-.65-4.78-1.94c-1.26-1.29-1.89-2.9-1.89-4.83,0-.66.05-1.29.15-1.89.1-.6.28-1.31.55-2.14.26-.83.63-1.84,1.09-3.03l4.68-13.93h6.27Z"/></svg>