<?xml version="1.0" encoding="UTF-8"?><svg id="Layer_1" xmlns="http://www.w3.org/2000/svg" viewBox="0 0 750 450"><defs><style>.cls-1{fill:#00e;}.cls-2{font-family:Montserrat-Medium, Montserrat;font-size:16px;font-weight:500;}.cls-3{fill:#fff;font-family:Montserrat-SemiBold, Montserrat;font-size:24px;font-weight:600;}.cls-4{letter-spacing:0em;}.cls-5{letter-spacing:0em;}.cls-6{letter-spacing:-.02em;}.cls-7{isolation:isolate;}.cls-8{letter-spacing:0em;}</style></defs><g id="Layer_1-2"><path class="cls-1" d="m698.36,413.89c2.8-2.71,7.8-2.71,10.6,0,3.97,3.84,6.82,8.47,8.62,9.12.59.21,1.06-.62.85-1.21l-13.92-39.18c-.28-.8-1.42-.8-1.7,0l-13.92,39.18c-.21.59.27,1.42.85,1.21,1.8-.65,4.66-5.28,8.62-9.12h0Zm4.61-13.31c2.78-.45,5.16,1.91,4.7,4.7-.27,1.68-1.63,3.04-3.32,3.32-2.78.45-5.16-1.91-4.7-4.7.27-1.68,1.63-3.04,3.32-3.32Z"/><g class="cls-7"><g class="cls-7"><path class="cls-1" d="m667.37,436.88l5.07-11.03h.8l5.07,11.03h-.87l-4.79-10.53h.35l-4.78,10.53h-.87Zm1.86-3.1l.27-.68h6.6l.27.68h-7.14Z"/><path class="cls-1" d="m680.08,436.88v-11.69h.79v11.69h-.79Z"/></g><g class="cls-7"><path class="cls-1" d="m687.53,436.94c-.83,0-1.56-.18-2.2-.54-.64-.36-1.13-.85-1.5-1.48-.36-.63-.54-1.35-.54-2.16s.17-1.54.51-2.17c.34-.63.81-1.12,1.41-1.47s1.27-.54,2.02-.54,1.42.17,2.01.52c.59.35,1.06.83,1.4,1.46.34.63.51,1.35.51,2.17,0,.03,0,.07,0,.1,0,.04,0,.08,0,.12h-7.27v-.61h6.84l-.32.3c.01-.64-.12-1.22-.4-1.73s-.65-.91-1.13-1.2-1.02-.43-1.64-.43-1.15.14-1.63.43c-.48.29-.85.69-1.13,1.2s-.41,1.09-.41,1.74v.14c0,.67.15,1.27.45,1.79.3.52.71.92,1.24,1.21s1.12.43,1.8.43c.53,0,1.02-.09,1.47-.28.46-.19.84-.48,1.16-.87l.46.52c-.36.44-.81.77-1.35,1-.54.23-1.13.34-1.76.34Z"/></g><g class="cls-7"><path class="cls-1" d="m692.05,436.88l3.42-4.44-.02.38-3.23-4.16h.9l2.82,3.64h-.33l2.81-3.64h.88l-3.26,4.21.02-.43,3.47,4.44h-.93l-2.98-3.88.3.03-2.96,3.85h-.9Z"/></g><g class="cls-7"><path class="cls-1" d="m705.84,436.88v-11.03h.8v10.31h6.35v.73h-7.16Z"/></g><g class="cls-7"><path class="cls-1" d="m718.01,436.94c-.83,0-1.56-.18-2.2-.54s-1.13-.85-1.5-1.48c-.36-.63-.54-1.35-.54-2.16s.17-1.54.51-2.17c.34-.63.81-1.12,1.41-1.47s1.27-.54,2.02-.54,1.42.17,2.01.52c.59.35,1.06.83,1.4,1.46.34.63.51,1.35.51,2.17,0,.03,0,.07,0,.1,0,.04,0,.08,0,.12h-7.27v-.61h6.84l-.32.3c.01-.64-.12-1.22-.4-1.73-.28-.51-.65-.91-1.13-1.2s-1.02-.43-1.64-.43-1.15.14-1.63.43-.85.69-1.13,1.2c-.27.51-.41,1.09-.41,1.74v.14c0,.67.15,1.27.45,1.79.3.52.71.92,1.24,1.21.53.29,1.12.43,1.8.43.53,0,1.02-.09,1.47-.28.46-.19.84-.48,1.16-.87l.46.52c-.36.44-.81.77-1.35,1-.54.23-1.13.34-1.76.34Z"/></g><g class="cls-7"><path class="cls-1" d="m726,436.88l-3.7-8.23h.84l3.47,7.78h-.38l3.5-7.78h.8l-3.72,8.23h-.8Z"/></g><g class="cls-7"><path class="cls-1" d="m733.15,440c-.38,0-.73-.06-1.06-.19-.33-.13-.61-.31-.84-.55l.39-.6c.21.22.44.38.69.49.25.11.53.16.84.16.38,0,.71-.11,1-.31.29-.21.56-.59.81-1.15l.57-1.26.11-.14,3.48-7.78h.8l-4.22,9.35c-.22.5-.46.9-.72,1.19-.26.29-.54.5-.84.62-.3.13-.64.19-1.01.19Zm2.38-2.92l-3.81-8.43h.84l3.47,7.74-.49.69Z"/></g></g></g><rect class="cls-1" x="0" width="750" height="55.53"/><rect class="cls-1" x="-369.47" y="425" width="750" height="11.06" transform="translate(436.06 425) rotate(90)"/><text class="cls-3" transform="translate(10.15 34.62)"><tspan x="0" y="0">H</tspan><tspan class="cls-6" x="19.44" y="0">o</tspan><tspan x="34.56" y="0">w do p</tspan><tspan class="cls-5" x="118.29" y="0">r</tspan><tspan x="128.14" y="0">o</tspan><tspan class="cls-4" x="143.62" y="0">f</tspan><tspan x="152.28" y="0">essors design t</tspan><tspan class="cls-8" x="337.08" y="0">h</tspan><tspan x="353.54" y="0">eir </tspan><tspan class="cls-4" x="392.11" y="0">c</tspan><tspan x="405.86" y="0">ourses</tspan></text><text class="cls-2" transform="translate(78.69 201.38)"><tspan x="0" y="0">I read blogs, journals, and articles daily </tspan><tspan x="0" y="19.2">and listen to podcasts</tspan></text><rect class="cls-1" x="35.9" y="205.95" width="56.89" height="1.14" transform="translate(270.86 142.18) rotate(90)"/><path class="cls-1" d="m38.51,192.64l-4.97,20.19-1.19-5.77c1.92,0,3.51.6,4.77,1.79,1.26,1.19,1.89,2.79,1.89,4.78s-.63,3.61-1.89,4.87c-1.26,1.26-2.82,1.89-4.68,1.89s-3.52-.65-4.77-1.94c-1.26-1.29-1.89-2.9-1.89-4.83,0-.66.05-1.29.15-1.89.1-.6.28-1.31.55-2.14.26-.83.63-1.84,1.09-3.03l4.68-13.93h6.27Zm18.8,0l-4.97,20.19-1.19-5.77c1.92,0,3.51.6,4.78,1.79,1.26,1.19,1.89,2.79,1.89,4.78s-.63,3.61-1.89,4.87c-1.26,1.26-2.82,1.89-4.68,1.89s-3.52-.65-4.78-1.94c-1.26-1.29-1.89-2.9-1.89-4.83,0-.66.05-1.29.15-1.89.1-.6.28-1.31.55-2.14.26-.83.63-1.84,1.09-3.03l4.68-13.93h6.27Z"/><text class="cls-2" transform="translate(78.69 386.35)"><tspan x="0" y="0">A list of topics in [Microsoft] Word </tspan><tspan x="0" y="19.2">that I start with</tspan></text><rect class="cls-1" x="35.9" y="390.93" width="56.89" height="1.14" transform="translate(455.84 327.15) rotate(90)"/><path class="cls-1" d="m38.51,377.62l-4.97,20.19-1.19-5.77c1.92,0,3.51.6,4.77,1.79,1.26,1.19,1.89,2.79,1.89,4.78s-.63,3.61-1.89,4.87c-1.26,1.26-2.82,1.89-4.68,1.89s-3.52-.65-4.77-1.94c-1.26-1.29-1.89-2.9-1.89-4.83,0-.66.05-1.29.15-1.89.1-.6.28-1.31.55-2.14.26-.83.63-1.84,1.09-3.03l4.68-13.93h6.27Zm18.8,0l-4.97,20.19-1.19-5.77c1.92,0,3.51.6,4.78,1.79,1.26,1.19,1.89,2.79,1.89,4.78s-.63,3.61-1.89,4.87c-1.26,1.26-2.82,1.89-4.68,1.89s-3.52-.65-4.78-1.94c-1.26-1.29-1.89-2.9-1.89-4.83,0-.66.05-1.29.15-1.89.1-.6.28-1.31.55-2.14.26-.83.63-1.84,1.09-3.03l4.68-13.93h6.27Z"/><path d="m78.67,295.42l5.07-11.2h1.58l5.09,11.2h-1.68l-4.53-10.3h.64l-4.53,10.3h-1.65Zm2.16-2.8l.43-1.28h6.3l.46,1.28h-7.2Z"/><path d="m98.6,295.42v-9.81h-3.84v-1.39h9.26v1.39h-3.84v9.81h-1.58Z"/><path d="m109.32,295.51c-.91,0-1.7-.19-2.39-.56-.69-.37-1.22-.89-1.6-1.54-.38-.65-.57-1.4-.57-2.24s.18-1.59.55-2.24c.37-.65.88-1.16,1.52-1.53.64-.37,1.37-.55,2.18-.55s1.55.18,2.18.54c.63.36,1.12.87,1.48,1.53.36.66.54,1.42.54,2.3,0,.06,0,.14,0,.22,0,.08-.01.17-.02.24h-7.22v-1.1h6.42l-.62.38c0-.54-.1-1.03-.34-1.46-.24-.43-.56-.76-.97-1-.41-.24-.89-.36-1.43-.36s-1.01.12-1.42.36c-.42.24-.74.58-.98,1.01-.23.43-.35.93-.35,1.48v.26c0,.57.13,1.07.39,1.51.26.44.63.79,1.1,1.03.47.25,1.01.37,1.62.37.5,0,.96-.08,1.37-.26.41-.17.77-.43,1.08-.77l.85.99c-.38.45-.86.79-1.43,1.02s-1.21.35-1.91.35Z"/><path d="m114.11,295.42l3.65-4.74-.02.78-3.47-4.53h1.71l2.66,3.49h-.66l2.66-3.49h1.68l-3.52,4.56.02-.82,3.68,4.74h-1.74l-2.8-3.71.62.1-2.75,3.62h-1.71Z"/><path d="m122.96,288.2v-1.26h5.41v1.26h-5.41Zm4.13,7.31c-.85,0-1.51-.23-1.98-.69s-.7-1.11-.7-1.97v-7.78h1.54v7.71c0,.46.11.81.34,1.06.23.25.56.37.98.37.48,0,.88-.13,1.2-.4l.48,1.1c-.23.2-.51.35-.84.45s-.66.14-1.02.14Z"/><path d="m136.93,294.02h6.53v1.39h-8.13v-11.2h7.9v1.39h-6.3v8.42Zm-.14-4.98h5.76v1.36h-5.76v-1.36Z"/><path d="m149.32,295.51c-.82,0-1.55-.18-2.2-.54-.65-.36-1.15-.87-1.53-1.52-.37-.65-.56-1.41-.56-2.27s.19-1.62.56-2.26c.37-.65.88-1.15,1.53-1.51.65-.36,1.38-.54,2.2-.54.71,0,1.36.16,1.94.48.58.32,1.04.8,1.38,1.44.35.64.52,1.44.52,2.4s-.17,1.76-.5,2.4c-.34.64-.79,1.12-1.37,1.45s-1.23.49-1.97.49Zm.13-1.34c.53,0,1.02-.12,1.45-.37.43-.25.77-.59,1.02-1.05.25-.45.38-.98.38-1.58s-.12-1.13-.38-1.58c-.25-.44-.59-.79-1.02-1.03-.43-.25-.92-.37-1.45-.37s-1.03.12-1.46.37-.77.59-1.02,1.03c-.26.44-.38.97-.38,1.58s.13,1.12.38,1.58c.26.45.6.8,1.02,1.05.43.25.91.37,1.46.37Zm2.9,1.25v-2.29l.1-1.97-.16-1.97v-5.65h1.54v11.87h-1.47Z"/><path d="m157.5,285.3c-.3,0-.55-.1-.74-.29-.2-.19-.3-.43-.3-.7s.1-.53.3-.72c.2-.19.44-.29.74-.29s.55.09.74.28.3.42.3.7-.1.53-.29.73c-.19.2-.44.3-.75.3Zm-.77,10.11v-8.48h1.54v8.48h-1.54Z"/><path d="m159.98,288.2v-1.26h5.41v1.26h-5.41Zm4.13,7.31c-.85,0-1.51-.23-1.98-.69s-.7-1.11-.7-1.97v-7.78h1.54v7.71c0,.46.11.81.34,1.06.23.25.56.37.98.37.48,0,.88-.13,1.2-.4l.48,1.1c-.23.2-.51.35-.84.45s-.66.14-1.02.14Z"/><path d="m175.63,295.51c-.82,0-1.55-.18-2.2-.54-.65-.36-1.15-.87-1.53-1.52-.37-.65-.56-1.41-.56-2.27s.19-1.62.56-2.26c.37-.65.88-1.15,1.53-1.51.65-.36,1.38-.54,2.2-.54.71,0,1.36.16,1.94.48.58.32,1.04.8,1.38,1.44.35.64.52,1.44.52,2.4s-.17,1.76-.5,2.4c-.34.64-.79,1.12-1.37,1.45s-1.23.49-1.97.49Zm.13-1.34c.53,0,1.02-.12,1.45-.37.43-.25.77-.59,1.02-1.05.25-.45.38-.98.38-1.58s-.12-1.13-.38-1.58c-.25-.44-.59-.79-1.02-1.03-.43-.25-.92-.37-1.45-.37s-1.03.12-1.46.37-.77.59-1.02,1.03c-.26.44-.38.97-.38,1.58s.13,1.12.38,1.58c.26.45.6.8,1.02,1.05.43.25.91.37,1.46.37Zm2.9,1.25v-2.29l.1-1.97-.16-1.97v-5.65h1.54v11.87h-1.47Z"/><path d="m186.67,295.51c-.85,0-1.61-.19-2.27-.56-.66-.37-1.18-.89-1.57-1.54s-.58-1.4-.58-2.23.19-1.59.58-2.24c.38-.65.91-1.16,1.57-1.53.66-.37,1.42-.55,2.27-.55s1.6.18,2.26.55c.67.37,1.19.88,1.57,1.52.38.65.57,1.4.57,2.25s-.19,1.59-.57,2.24-.9,1.16-1.57,1.54c-.67.37-1.42.56-2.26.56Zm0-1.34c.54,0,1.03-.12,1.46-.37.43-.25.77-.59,1.02-1.05.25-.45.37-.98.37-1.58s-.12-1.13-.37-1.58c-.25-.44-.58-.79-1.02-1.03-.43-.25-.92-.37-1.46-.37s-1.03.12-1.46.37-.77.59-1.02,1.03c-.26.44-.38.97-.38,1.58s.13,1.12.38,1.58c.26.45.6.8,1.02,1.05.43.25.91.37,1.46.37Z"/><path d="m196.89,295.51c-.86,0-1.63-.19-2.31-.56s-1.21-.89-1.59-1.54-.58-1.4-.58-2.24.19-1.59.58-2.24c.38-.65.91-1.16,1.59-1.53s1.45-.55,2.31-.55c.77,0,1.45.15,2.06.46.6.3,1.07.75,1.4,1.35l-1.17.75c-.28-.42-.62-.72-1.02-.92-.4-.2-.83-.3-1.29-.3-.55,0-1.05.12-1.49.37-.44.25-.78.59-1.04,1.03-.26.44-.38.97-.38,1.58s.13,1.14.38,1.58c.26.45.6.79,1.04,1.04.44.25.93.37,1.49.37.46,0,.89-.1,1.29-.3.4-.2.74-.5,1.02-.92l1.17.74c-.33.59-.8,1.04-1.4,1.35s-1.29.47-2.06.47Z"/><path d="m205.9,295.51c-.73,0-1.36-.13-1.91-.4-.55-.27-.98-.67-1.28-1.22-.3-.55-.46-1.24-.46-2.07v-4.88h1.54v4.7c0,.83.2,1.46.6,1.87.4.42.96.62,1.69.62.53,0,1-.11,1.39-.33.39-.22.7-.54.91-.96.21-.42.32-.93.32-1.53v-4.38h1.54v8.48h-1.46v-2.29l.24.61c-.28.57-.69,1-1.25,1.31-.56.31-1.18.46-1.87.46Z"/><path d="m223.77,286.86c.68,0,1.29.13,1.81.4s.93.67,1.22,1.22c.29.54.44,1.23.44,2.06v4.88h-1.54v-4.7c0-.82-.19-1.44-.58-1.86s-.92-.62-1.62-.62c-.51,0-.96.11-1.34.32-.38.21-.68.53-.89.94s-.31.93-.31,1.55v4.37h-1.54v-4.7c0-.82-.19-1.44-.57-1.86-.38-.42-.92-.62-1.62-.62-.5,0-.94.11-1.33.32-.38.21-.68.53-.9.94-.21.42-.32.93-.32,1.55v4.37h-1.54v-8.48h1.47v2.26l-.24-.58c.27-.55.68-.99,1.23-1.3s1.2-.46,1.94-.46c.81,0,1.51.2,2.1.6.59.4.97,1.01,1.15,1.82l-.62-.26c.26-.65.7-1.17,1.34-1.57.64-.39,1.39-.59,2.24-.59Z"/><path d="m233.85,295.51c-.91,0-1.7-.19-2.39-.56-.69-.37-1.22-.89-1.6-1.54-.38-.65-.57-1.4-.57-2.24s.18-1.59.55-2.24c.37-.65.88-1.16,1.52-1.53s1.37-.55,2.18-.55,1.55.18,2.18.54c.63.36,1.12.87,1.48,1.53.36.66.54,1.42.54,2.3,0,.06,0,.14,0,.22,0,.08-.01.17-.02.24h-7.22v-1.1h6.42l-.62.38c.01-.54-.1-1.03-.34-1.46-.24-.43-.56-.76-.97-1-.41-.24-.89-.36-1.43-.36s-1.01.12-1.42.36c-.42.24-.74.58-.98,1.01-.24.43-.35.93-.35,1.48v.26c0,.57.13,1.07.39,1.51.26.44.63.79,1.1,1.03.47.25,1.01.37,1.62.37.5,0,.96-.08,1.37-.26.41-.17.77-.43,1.08-.77l.85.99c-.38.45-.86.79-1.43,1.02-.57.23-1.21.35-1.91.35Z"/><path d="m244.4,286.86c.69,0,1.3.13,1.83.4.53.27.94.67,1.24,1.22s.45,1.23.45,2.06v4.88h-1.54v-4.7c0-.82-.2-1.44-.6-1.86-.4-.42-.96-.62-1.69-.62-.54,0-1.02.11-1.42.32-.41.21-.72.53-.94.94-.22.42-.33.93-.33,1.55v4.37h-1.54v-8.48h1.47v2.29l-.24-.61c.28-.55.7-.99,1.28-1.3s1.25-.46,2.02-.46Z"/><path d="m249.55,288.2v-1.26h5.41v1.26h-5.41Zm4.13,7.31c-.85,0-1.51-.23-1.98-.69s-.7-1.11-.7-1.97v-7.78h1.54v7.71c0,.46.11.81.34,1.06.23.25.56.37.98.37.48,0,.88-.13,1.2-.4l.48,1.1c-.23.2-.51.35-.84.45s-.66.14-1.02.14Z"/><path d="m260.48,288.2v-1.26h5.41v1.26h-5.41Zm4.13,7.31c-.85,0-1.51-.23-1.98-.69s-.7-1.11-.7-1.97v-7.78h1.54v7.71c0,.46.11.81.34,1.06.23.25.56.37.98.37.48,0,.88-.13,1.2-.4l.48,1.1c-.23.2-.51.35-.84.45s-.66.14-1.02.14Z"/><path d="m271.95,295.51c-.85,0-1.61-.19-2.27-.56-.66-.37-1.18-.89-1.57-1.54s-.58-1.4-.58-2.23.19-1.59.58-2.24c.38-.65.91-1.16,1.57-1.53.66-.37,1.42-.55,2.27-.55s1.6.18,2.26.55c.67.37,1.19.88,1.57,1.52.38.65.57,1.4.57,2.25s-.19,1.59-.57,2.24-.9,1.16-1.57,1.54c-.67.37-1.42.56-2.26.56Zm0-1.34c.54,0,1.03-.12,1.46-.37.43-.25.77-.59,1.02-1.05.25-.45.37-.98.37-1.58s-.12-1.13-.37-1.58c-.25-.44-.58-.79-1.02-1.03-.43-.25-.92-.37-1.46-.37s-1.03.12-1.46.37-.77.59-1.02,1.03c-.26.44-.38.97-.38,1.58s.13,1.12.38,1.58c.26.45.6.8,1.02,1.05.43.25.91.37,1.46.37Z"/><path d="m285.26,295.51c-.63,0-1.18-.11-1.66-.32-.47-.21-.84-.51-1.1-.89-.26-.38-.38-.81-.38-1.29s.11-.87.33-1.25c.22-.37.58-.67,1.07-.9s1.17-.34,2.01-.34h2.69v1.1h-2.62c-.77,0-1.29.13-1.55.38-.27.26-.4.57-.4.93,0,.42.17.75.5,1,.33.25.79.38,1.38.38s1.08-.13,1.51-.38.74-.63.94-1.12l.3,1.06c-.2.5-.56.9-1.07,1.19-.51.29-1.16.44-1.94.44Zm2.78-.1v-1.79l-.08-.34v-3.06c0-.65-.19-1.16-.57-1.51-.38-.36-.95-.54-1.7-.54-.5,0-.99.08-1.47.25-.48.17-.89.39-1.22.66l-.64-1.15c.44-.35.96-.62,1.58-.81.61-.19,1.26-.28,1.93-.28,1.16,0,2.06.28,2.69.85.63.57.94,1.43.94,2.59v5.12h-1.46Z"/><path d="m292.35,295.42v-8.48h1.47v2.3l-.14-.58c.23-.59.63-1.03,1.18-1.34s1.24-.46,2.05-.46v1.49c-.06,0-.12-.02-.18-.02h-.17c-.82,0-1.47.25-1.95.74-.48.49-.72,1.2-.72,2.13v4.22h-1.54Z"/><path d="m298.91,295.42v-8.48h1.47v2.3l-.14-.58c.23-.59.63-1.03,1.18-1.34s1.24-.46,2.05-.46v1.49c-.06,0-.12-.02-.18-.02h-.17c-.82,0-1.47.25-1.95.74-.48.49-.72,1.2-.72,2.13v4.22h-1.54Z"/><path d="m307.95,295.51c-.63,0-1.18-.11-1.66-.32-.47-.21-.84-.51-1.1-.89-.26-.38-.38-.81-.38-1.29s.11-.87.33-1.25c.22-.37.58-.67,1.07-.9s1.17-.34,2.01-.34h2.69v1.1h-2.62c-.77,0-1.29.13-1.55.38-.27.26-.4.57-.4.93,0,.42.17.75.5,1,.33.25.79.38,1.38.38s1.08-.13,1.51-.38.74-.63.94-1.12l.3,1.06c-.2.5-.56.9-1.07,1.19-.51.29-1.16.44-1.94.44Zm2.78-.1v-1.79l-.08-.34v-3.06c0-.65-.19-1.16-.57-1.51-.38-.36-.95-.54-1.7-.54-.5,0-.99.08-1.47.25-.48.17-.89.39-1.22.66l-.64-1.15c.44-.35.96-.62,1.58-.81.61-.19,1.26-.28,1.93-.28,1.16,0,2.06.28,2.69.85.63.57.94,1.43.94,2.59v5.12h-1.46Z"/><path d="m319.56,286.86c.69,0,1.3.13,1.83.4.53.27.94.67,1.24,1.22s.45,1.23.45,2.06v4.88h-1.54v-4.7c0-.82-.2-1.44-.6-1.86-.4-.42-.96-.62-1.69-.62-.54,0-1.02.11-1.42.32-.41.21-.72.53-.94.94-.22.42-.33.93-.33,1.55v4.37h-1.54v-8.48h1.47v2.29l-.24-.61c.28-.55.7-.99,1.28-1.3s1.25-.46,2.02-.46Z"/><path d="m329.45,295.06c-.82,0-1.55-.17-2.2-.52-.65-.35-1.16-.83-1.54-1.45-.38-.62-.57-1.33-.57-2.14s.19-1.54.57-2.15c.38-.61.89-1.09,1.54-1.43.64-.34,1.38-.51,2.2-.51.73,0,1.39.15,1.98.44.6.29,1.07.74,1.43,1.35.36.61.54,1.38.54,2.3s-.18,1.68-.54,2.29c-.36.61-.83,1.06-1.43,1.37-.6.3-1.26.46-1.98.46Zm.19,3.55c-.78,0-1.53-.11-2.26-.33-.73-.22-1.33-.53-1.78-.94l.74-1.18c.39.34.88.61,1.46.81.58.2,1.18.3,1.81.3,1,0,1.74-.24,2.21-.7.47-.47.7-1.18.7-2.14v-1.79l.16-1.68-.08-1.7v-2.32h1.46v7.33c0,1.49-.37,2.59-1.12,3.3-.75.7-1.84,1.06-3.28,1.06Zm-.02-4.9c.56,0,1.07-.12,1.5-.35.44-.23.78-.56,1.03-.98.25-.42.38-.9.38-1.44s-.13-1.02-.38-1.44c-.25-.42-.6-.74-1.03-.97-.44-.23-.94-.34-1.5-.34s-1.07.11-1.51.34-.79.55-1.04.97c-.25.42-.38.9-.38,1.44s.13,1.02.38,1.44c.25.42.6.74,1.04.98s.95.35,1.51.35Z"/><path d="m340.75,295.51c-.91,0-1.7-.19-2.39-.56-.69-.37-1.22-.89-1.6-1.54-.38-.65-.57-1.4-.57-2.24s.18-1.59.55-2.24c.37-.65.88-1.16,1.52-1.53s1.37-.55,2.18-.55,1.55.18,2.18.54c.63.36,1.12.87,1.48,1.53.36.66.54,1.42.54,2.3,0,.06,0,.14,0,.22,0,.08-.01.17-.02.24h-7.22v-1.1h6.42l-.62.38c.01-.54-.1-1.03-.34-1.46-.24-.43-.56-.76-.97-1-.41-.24-.89-.36-1.43-.36s-1.01.12-1.42.36c-.42.24-.74.58-.98,1.01-.24.43-.35.93-.35,1.48v.26c0,.57.13,1.07.39,1.51.26.44.63.79,1.1,1.03.47.25,1.01.37,1.62.37.5,0,.96-.08,1.37-.26.41-.17.77-.43,1.08-.77l.85.99c-.38.45-.86.79-1.43,1.02-.57.23-1.21.35-1.91.35Z"/><path d="m82.62,314.71c-.63,0-1.18-.11-1.66-.32-.47-.21-.84-.51-1.1-.89-.26-.38-.38-.81-.38-1.29s.11-.87.33-1.25c.22-.37.58-.67,1.07-.9.5-.22,1.17-.34,2.01-.34h2.69v1.1h-2.62c-.77,0-1.29.13-1.55.38-.27.26-.4.57-.4.93,0,.42.17.75.5,1,.33.25.79.38,1.38.38s1.08-.13,1.51-.38c.43-.26.74-.63.94-1.12l.3,1.06c-.2.5-.56.9-1.07,1.19-.51.29-1.16.44-1.94.44Zm2.78-.1v-1.79l-.08-.34v-3.06c0-.65-.19-1.16-.57-1.51-.38-.36-.95-.54-1.7-.54-.5,0-.99.08-1.47.25-.48.17-.88.39-1.22.66l-.64-1.15c.44-.35.96-.62,1.58-.81.61-.19,1.26-.28,1.93-.28,1.16,0,2.06.28,2.69.85.63.57.94,1.43.94,2.59v5.12h-1.46Z"/><path d="m89.71,314.62v-11.87h1.54v11.87h-1.54Z"/><path d="m94.17,314.62v-11.87h1.54v11.87h-1.54Z"/><path d="m113.55,306.06c.68,0,1.29.13,1.81.4.52.27.93.67,1.22,1.22s.44,1.23.44,2.06v4.88h-1.54v-4.7c0-.82-.19-1.44-.58-1.86s-.92-.62-1.62-.62c-.51,0-.96.11-1.34.32-.38.21-.68.53-.89.94s-.31.93-.31,1.55v4.37h-1.54v-4.7c0-.82-.19-1.44-.57-1.86-.38-.42-.92-.62-1.62-.62-.5,0-.94.11-1.33.32-.38.21-.68.53-.9.94-.21.42-.32.93-.32,1.55v4.37h-1.54v-8.48h1.47v2.26l-.24-.58c.27-.55.68-.99,1.23-1.3s1.2-.46,1.94-.46c.81,0,1.51.2,2.1.6.59.4.97,1.01,1.15,1.82l-.62-.26c.26-.65.7-1.17,1.34-1.57.64-.39,1.39-.59,2.24-.59Z"/><path d="m120.22,317.82c-.41,0-.8-.07-1.18-.2-.38-.13-.71-.33-.99-.58l.66-1.15c.21.2.45.36.7.46.26.11.53.16.82.16.37,0,.68-.1.93-.29.25-.19.47-.53.69-1.02l.53-1.17.16-.19,3.33-7.7h1.5l-4.11,9.33c-.25.6-.52,1.07-.82,1.41-.3.34-.64.58-1,.73-.36.14-.76.22-1.2.22Zm2.02-2.93l-3.87-8.75h1.6l3.3,7.55-1.02,1.2Z"/><path d="m137.63,306.06c.69,0,1.3.13,1.83.4.53.27.94.67,1.24,1.22s.45,1.23.45,2.06v4.88h-1.54v-4.7c0-.82-.2-1.44-.6-1.86-.4-.42-.96-.62-1.69-.62-.54,0-1.02.11-1.42.32-.41.21-.72.53-.94.94-.22.42-.33.93-.33,1.55v4.37h-1.54v-8.48h1.47v2.29l-.24-.61c.28-.55.7-.99,1.28-1.3s1.25-.46,2.02-.46Z"/><path d="m147.63,314.71c-.85,0-1.61-.19-2.27-.56-.66-.37-1.18-.89-1.57-1.54s-.58-1.4-.58-2.23.19-1.59.58-2.24c.38-.65.91-1.16,1.57-1.53.66-.37,1.42-.55,2.27-.55s1.6.18,2.26.55c.67.37,1.19.88,1.57,1.52.38.65.57,1.4.57,2.25s-.19,1.59-.57,2.24-.9,1.16-1.57,1.54c-.67.37-1.42.56-2.26.56Zm0-1.34c.54,0,1.03-.12,1.46-.37.43-.25.77-.59,1.02-1.05.25-.45.37-.98.37-1.58s-.12-1.13-.37-1.58c-.25-.44-.58-.79-1.02-1.03-.43-.25-.92-.37-1.46-.37s-1.03.12-1.46.37-.77.59-1.02,1.03c-.26.44-.38.97-.38,1.58s.13,1.12.38,1.58c.26.45.6.8,1.02,1.05.43.25.91.37,1.46.37Z"/><path d="m152.94,307.4v-1.26h5.41v1.26h-5.41Zm4.13,7.31c-.85,0-1.51-.23-1.98-.69s-.7-1.11-.7-1.97v-7.78h1.54v7.71c0,.46.11.81.34,1.06.23.25.56.37.98.37.48,0,.88-.13,1.2-.4l.48,1.1c-.23.2-.51.35-.84.45s-.66.14-1.02.14Z"/><path d="m164.56,314.71c-.91,0-1.7-.19-2.39-.56-.69-.37-1.22-.89-1.6-1.54-.38-.65-.57-1.4-.57-2.24s.18-1.59.55-2.24c.37-.65.88-1.16,1.52-1.53s1.37-.55,2.18-.55,1.55.18,2.18.54c.63.36,1.12.87,1.48,1.53.36.66.54,1.42.54,2.3,0,.06,0,.14,0,.22,0,.08-.01.17-.02.24h-7.22v-1.1h6.42l-.62.38c.01-.54-.1-1.03-.34-1.46-.24-.43-.56-.76-.97-1-.41-.24-.89-.36-1.43-.36s-1.01.12-1.42.36c-.42.24-.74.58-.98,1.01-.24.43-.35.93-.35,1.48v.26c0,.57.13,1.07.39,1.51.26.44.63.79,1.1,1.03.47.25,1.01.37,1.62.37.5,0,.96-.08,1.37-.26.41-.17.77-.43,1.08-.77l.85.99c-.38.45-.86.79-1.43,1.02-.57.23-1.21.35-1.91.35Z"/><path d="m173.01,314.71c-.7,0-1.37-.1-2.01-.29-.63-.19-1.13-.43-1.5-.7l.64-1.22c.36.25.81.45,1.34.62.53.17,1.08.26,1.63.26.71,0,1.23-.1,1.54-.3.31-.2.47-.49.47-.85,0-.27-.1-.47-.29-.62-.19-.15-.45-.26-.76-.34-.31-.08-.66-.14-1.05-.2s-.77-.13-1.15-.22c-.38-.09-.74-.22-1.06-.38-.32-.17-.58-.39-.77-.69-.19-.29-.29-.69-.29-1.18s.14-.96.43-1.34c.29-.38.7-.68,1.22-.89.53-.21,1.16-.31,1.88-.31.55,0,1.12.07,1.69.2.57.13,1.04.32,1.4.57l-.66,1.22c-.38-.26-.78-.43-1.2-.53-.42-.1-.83-.14-1.25-.14-.67,0-1.17.11-1.5.33s-.5.5-.5.84c0,.29.1.51.3.66s.45.27.77.36c.31.08.66.16,1.05.22s.77.13,1.15.22c.38.09.73.22,1.05.38.31.16.57.38.77.67s.3.67.3,1.15c0,.51-.15.96-.45,1.33-.3.37-.72.66-1.26.87s-1.19.31-1.95.31Z"/><path d="m185.37,314.71c-.63,0-1.18-.11-1.66-.32-.47-.21-.84-.51-1.1-.89-.26-.38-.38-.81-.38-1.29s.11-.87.33-1.25c.22-.37.58-.67,1.07-.9s1.17-.34,2.01-.34h2.69v1.1h-2.62c-.77,0-1.29.13-1.55.38-.27.26-.4.57-.4.93,0,.42.17.75.5,1,.33.25.79.38,1.38.38s1.08-.13,1.51-.38.74-.63.94-1.12l.3,1.06c-.2.5-.56.9-1.07,1.19-.51.29-1.16.44-1.94.44Zm2.78-.1v-1.79l-.08-.34v-3.06c0-.65-.19-1.16-.57-1.51-.38-.36-.95-.54-1.7-.54-.5,0-.99.08-1.47.25-.48.17-.89.39-1.22.66l-.64-1.15c.44-.35.96-.62,1.58-.81.61-.19,1.26-.28,1.93-.28,1.16,0,2.06.28,2.69.85.63.57.94,1.43.94,2.59v5.12h-1.46Z"/><path d="m196.99,306.06c.69,0,1.3.13,1.83.4.53.27.94.67,1.24,1.22s.45,1.23.45,2.06v4.88h-1.54v-4.7c0-.82-.2-1.44-.6-1.86-.4-.42-.96-.62-1.69-.62-.54,0-1.02.11-1.42.32-.41.21-.72.53-.94.94-.22.42-.33.93-.33,1.55v4.37h-1.54v-8.48h1.47v2.29l-.24-.61c.28-.55.7-.99,1.28-1.3s1.25-.46,2.02-.46Z"/><path d="m206.86,314.71c-.82,0-1.55-.18-2.2-.54-.65-.36-1.15-.87-1.53-1.52-.37-.65-.56-1.41-.56-2.27s.19-1.62.56-2.26c.37-.65.88-1.15,1.53-1.51.65-.36,1.38-.54,2.2-.54.71,0,1.36.16,1.94.48.58.32,1.04.8,1.38,1.44.35.64.52,1.44.52,2.4s-.17,1.76-.5,2.4c-.34.64-.79,1.12-1.37,1.45s-1.23.49-1.97.49Zm.13-1.34c.53,0,1.02-.12,1.45-.37.43-.25.77-.59,1.02-1.05.25-.45.38-.98.38-1.58s-.12-1.13-.38-1.58c-.25-.44-.59-.79-1.02-1.03-.43-.25-.92-.37-1.45-.37s-1.03.12-1.46.37-.77.59-1.02,1.03c-.26.44-.38.97-.38,1.58s.13,1.12.38,1.58c.26.45.6.8,1.02,1.05.43.25.91.37,1.46.37Zm2.9,1.25v-2.29l.1-1.97-.16-1.97v-5.65h1.54v11.87h-1.47Z"/><path d="m217.36,307.4v-1.26h5.41v1.26h-5.41Zm4.13,7.31c-.85,0-1.51-.23-1.98-.69s-.7-1.11-.7-1.97v-7.78h1.54v7.71c0,.46.11.81.34,1.06.23.25.56.37.98.37.48,0,.88-.13,1.2-.4l.48,1.1c-.23.2-.51.35-.84.45s-.66.14-1.02.14Z"/><path d="m228.83,314.71c-.85,0-1.61-.19-2.27-.56-.66-.37-1.18-.89-1.57-1.54s-.58-1.4-.58-2.23.19-1.59.58-2.24c.38-.65.91-1.16,1.57-1.53.66-.37,1.42-.55,2.27-.55s1.6.18,2.26.55c.67.37,1.19.88,1.57,1.52.38.65.57,1.4.57,2.25s-.19,1.59-.57,2.24-.9,1.16-1.57,1.54c-.67.37-1.42.56-2.26.56Zm0-1.34c.54,0,1.03-.12,1.46-.37.43-.25.77-.59,1.02-1.05.25-.45.37-.98.37-1.58s-.12-1.13-.37-1.58c-.25-.44-.58-.79-1.02-1.03-.43-.25-.92-.37-1.46-.37s-1.03.12-1.46.37-.77.59-1.02,1.03c-.26.44-.38.97-.38,1.58s.13,1.12.38,1.58c.26.45.6.8,1.02,1.05.43.25.91.37,1.46.37Z"/><path d="m235.36,317.72v-11.58h1.47v2.29l-.1,1.97.16,1.97v5.36h-1.54Zm4.5-3.01c-.7,0-1.35-.16-1.93-.49-.58-.33-1.05-.81-1.39-1.45-.35-.64-.52-1.44-.52-2.4s.17-1.76.5-2.4c.34-.64.79-1.12,1.38-1.44.58-.32,1.23-.48,1.96-.48.83,0,1.57.18,2.21.54.64.36,1.15.87,1.52,1.51.37.65.56,1.4.56,2.26s-.19,1.62-.56,2.27c-.37.65-.88,1.16-1.52,1.52-.64.36-1.38.54-2.21.54Zm-.13-1.34c.54,0,1.03-.12,1.46-.37.43-.25.77-.59,1.02-1.05.25-.45.38-.98.38-1.58s-.13-1.13-.38-1.58c-.25-.44-.59-.79-1.02-1.03s-.92-.37-1.46-.37-1.02.12-1.45.37-.77.59-1.02,1.03c-.25.44-.38.97-.38,1.58s.13,1.12.38,1.58c.25.45.59.8,1.02,1.05.43.25.91.37,1.45.37Z"/><path d="m247.04,304.5c-.3,0-.55-.1-.74-.29-.2-.19-.3-.43-.3-.7s.1-.53.3-.72c.2-.19.44-.29.74-.29s.55.09.74.28.3.42.3.7-.1.53-.29.73c-.19.2-.44.3-.75.3Zm-.77,10.11v-8.48h1.54v8.48h-1.54Z"/><path d="m254.43,314.71c-.86,0-1.63-.19-2.31-.56s-1.21-.89-1.59-1.54-.58-1.4-.58-2.24.19-1.59.58-2.24c.38-.65.91-1.16,1.59-1.53s1.45-.55,2.31-.55c.77,0,1.45.15,2.06.46.6.3,1.07.75,1.4,1.35l-1.17.75c-.28-.42-.62-.72-1.02-.92-.4-.2-.83-.3-1.29-.3-.55,0-1.05.12-1.49.37-.44.25-.78.59-1.04,1.03-.26.44-.38.97-.38,1.58s.13,1.14.38,1.58c.26.45.6.79,1.04,1.04.44.25.93.37,1.49.37.46,0,.89-.1,1.29-.3.4-.2.74-.5,1.02-.92l1.17.74c-.33.59-.8,1.04-1.4,1.35s-1.29.47-2.06.47Z"/><path d="m262.3,314.71c-.7,0-1.37-.1-2.01-.29-.63-.19-1.13-.43-1.5-.7l.64-1.22c.36.25.81.45,1.34.62.53.17,1.08.26,1.63.26.71,0,1.23-.1,1.54-.3.31-.2.47-.49.47-.85,0-.27-.1-.47-.29-.62-.19-.15-.45-.26-.76-.34-.31-.08-.66-.14-1.05-.2s-.77-.13-1.15-.22c-.38-.09-.74-.22-1.06-.38-.32-.17-.58-.39-.77-.69-.19-.29-.29-.69-.29-1.18s.14-.96.43-1.34c.29-.38.7-.68,1.22-.89.53-.21,1.16-.31,1.88-.31.55,0,1.12.07,1.69.2.57.13,1.04.32,1.4.57l-.66,1.22c-.38-.26-.78-.43-1.2-.53-.42-.1-.83-.14-1.25-.14-.67,0-1.17.11-1.5.33s-.5.5-.5.84c0,.29.1.51.3.66s.45.27.77.36c.31.08.66.16,1.05.22s.77.13,1.15.22c.38.09.73.22,1.05.38.31.16.57.38.77.67s.3.67.3,1.15c0,.51-.15.96-.45,1.33-.3.37-.72.66-1.26.87s-1.19.31-1.95.31Z"/><rect class="cls-1" x="35.9" y="298.44" width="56.89" height="1.14" transform="translate(363.35 234.66) rotate(90)"/><path class="cls-1" d="m38.51,285.13l-4.97,20.19-1.19-5.77c1.92,0,3.51.6,4.77,1.79,1.26,1.19,1.89,2.79,1.89,4.78s-.63,3.61-1.89,4.87c-1.26,1.26-2.82,1.89-4.68,1.89s-3.52-.65-4.77-1.94c-1.26-1.29-1.89-2.9-1.89-4.83,0-.66.05-1.29.15-1.89.1-.6.28-1.31.55-2.14.26-.83.63-1.84,1.09-3.03l4.68-13.93h6.27Zm18.8,0l-4.97,20.19-1.19-5.77c1.92,0,3.51.6,4.78,1.79,1.26,1.19,1.89,2.79,1.89,4.78s-.63,3.61-1.89,4.87c-1.26,1.26-2.82,1.89-4.68,1.89s-3.52-.65-4.78-1.94c-1.26-1.29-1.89-2.9-1.89-4.83,0-.66.05-1.29.15-1.89.1-.6.28-1.31.55-2.14.26-.83.63-1.84,1.09-3.03l4.68-13.93h6.27Z"/><path d="m83.63,108.95c-.85,0-1.67-.13-2.45-.39-.78-.26-1.39-.6-1.84-1.02l.59-1.25c.43.37.97.68,1.63.93.66.25,1.35.37,2.06.37.65,0,1.18-.07,1.58-.22s.7-.35.9-.62c.19-.26.29-.56.29-.89,0-.38-.12-.69-.38-.93-.25-.23-.58-.42-.98-.57-.4-.14-.84-.27-1.32-.38-.48-.11-.96-.23-1.45-.38s-.93-.33-1.33-.55c-.4-.22-.72-.53-.97-.9s-.37-.87-.37-1.46.15-1.11.46-1.59c.3-.49.77-.88,1.41-1.17.63-.29,1.44-.44,2.42-.44.65,0,1.3.09,1.94.26.64.17,1.19.42,1.66.74l-.53,1.28c-.48-.32-.99-.55-1.52-.7-.53-.14-1.05-.22-1.55-.22-.63,0-1.15.08-1.55.24-.41.16-.7.37-.89.64s-.28.57-.28.9c0,.4.12.71.38.94s.58.42.98.56c.4.14.84.26,1.32.38.48.11.96.24,1.45.38s.93.32,1.33.54c.4.22.72.52.97.9.25.37.37.85.37,1.44s-.15,1.09-.46,1.58c-.31.49-.79.88-1.43,1.17-.65.29-1.46.44-2.44.44Z"/><path d="m88.86,101.6v-1.26h5.41v1.26h-5.41Zm4.13,7.31c-.85,0-1.52-.23-1.98-.69-.47-.46-.7-1.11-.7-1.97v-7.78h1.54v7.71c0,.46.11.81.34,1.06.23.25.56.37.98.37.48,0,.88-.13,1.2-.4l.48,1.1c-.23.2-.51.35-.84.45s-.66.14-1.02.14Z"/><path d="m97.47,98.71c-.3,0-.55-.1-.74-.29-.2-.19-.3-.43-.3-.7s.1-.53.3-.72c.2-.19.45-.29.74-.29s.55.09.74.28.3.42.3.7-.1.53-.29.73c-.19.2-.44.3-.75.3Zm-.77,10.11v-8.48h1.54v8.48h-1.54Z"/><path d="m104.86,108.91c-.86,0-1.63-.19-2.31-.56-.68-.37-1.21-.89-1.59-1.54s-.58-1.4-.58-2.24.19-1.59.58-2.24c.38-.65.92-1.16,1.59-1.53.68-.37,1.45-.55,2.31-.55.77,0,1.45.15,2.06.46.6.3,1.07.75,1.4,1.35l-1.17.75c-.28-.42-.62-.72-1.02-.92-.4-.2-.83-.3-1.29-.3-.56,0-1.05.12-1.49.37s-.78.59-1.04,1.03c-.26.44-.38.97-.38,1.58s.13,1.14.38,1.58c.26.45.6.79,1.04,1.04.44.25.93.37,1.49.37.46,0,.89-.1,1.29-.3.4-.2.74-.5,1.02-.92l1.17.74c-.33.59-.8,1.04-1.4,1.35s-1.29.47-2.06.47Z"/><path d="m110.3,108.82v-11.87h1.54v11.87h-1.54Zm1.25-2.05l.03-1.97,4.88-4.46h1.86l-3.74,3.68-.83.7-2.19,2.05Zm5.23,2.05l-3.33-4.13.99-1.23,4.22,5.36h-1.89Z"/><path d="m120.52,112.02c-.41,0-.8-.07-1.18-.2-.38-.13-.71-.33-.99-.58l.66-1.15c.21.2.45.36.7.46.26.11.53.16.82.16.37,0,.68-.1.93-.29.25-.19.47-.53.69-1.02l.53-1.17.16-.19,3.33-7.7h1.5l-4.11,9.33c-.25.6-.52,1.07-.82,1.41-.3.34-.64.58-1,.73-.36.14-.76.22-1.2.22Zm2.02-2.93l-3.87-8.75h1.6l3.3,7.55-1.02,1.2Z"/><path d="m137.93,100.26c.69,0,1.3.13,1.83.4.53.27.94.67,1.24,1.22s.45,1.23.45,2.06v4.88h-1.54v-4.7c0-.82-.2-1.44-.6-1.86-.4-.42-.96-.62-1.69-.62-.54,0-1.02.11-1.42.32-.41.21-.72.53-.94.94-.22.42-.33.93-.33,1.55v4.37h-1.54v-8.48h1.47v2.29l-.24-.61c.28-.55.7-.99,1.28-1.3s1.25-.46,2.02-.46Z"/><path d="m147.93,108.91c-.85,0-1.61-.19-2.27-.56-.66-.37-1.18-.89-1.57-1.54s-.58-1.4-.58-2.23.19-1.59.58-2.24c.38-.65.91-1.16,1.57-1.53.66-.37,1.42-.55,2.27-.55s1.6.18,2.26.55c.67.37,1.19.88,1.57,1.52.38.65.57,1.4.57,2.25s-.19,1.59-.57,2.24-.9,1.16-1.57,1.54c-.67.37-1.42.56-2.26.56Zm0-1.34c.54,0,1.03-.12,1.46-.37.43-.25.77-.59,1.02-1.05.25-.45.37-.98.37-1.58s-.12-1.13-.37-1.58c-.25-.44-.58-.79-1.02-1.03-.43-.25-.92-.37-1.46-.37s-1.03.12-1.46.37-.77.59-1.02,1.03c-.26.44-.38.97-.38,1.58s.13,1.12.38,1.58c.26.45.6.8,1.02,1.05.43.25.91.37,1.46.37Z"/><path d="m153.24,101.6v-1.26h5.41v1.26h-5.41Zm4.13,7.31c-.85,0-1.51-.23-1.98-.69s-.7-1.11-.7-1.97v-7.78h1.54v7.71c0,.46.11.81.34,1.06.23.25.56.37.98.37.48,0,.88-.13,1.2-.4l.48,1.1c-.23.2-.51.35-.84.45s-.66.14-1.02.14Z"/><path d="m164.86,108.91c-.91,0-1.7-.19-2.39-.56-.69-.37-1.22-.89-1.6-1.54-.38-.65-.57-1.4-.57-2.24s.18-1.59.55-2.24c.37-.65.88-1.16,1.52-1.53s1.37-.55,2.18-.55,1.55.18,2.18.54c.63.36,1.12.87,1.48,1.53.36.66.54,1.42.54,2.3,0,.06,0,.14,0,.22,0,.08-.01.17-.02.24h-7.22v-1.1h6.42l-.62.38c.01-.54-.1-1.03-.34-1.46-.24-.43-.56-.76-.97-1-.41-.24-.89-.36-1.43-.36s-1.01.12-1.42.36c-.42.24-.74.58-.98,1.01-.24.43-.35.93-.35,1.48v.26c0,.57.13,1.07.39,1.51.26.44.63.79,1.1,1.03.47.25,1.01.37,1.62.37.5,0,.96-.08,1.37-.26.41-.17.77-.43,1.08-.77l.85.99c-.38.45-.86.79-1.43,1.02-.57.23-1.21.35-1.91.35Z"/><path d="m173.31,108.91c-.7,0-1.37-.1-2.01-.29-.63-.19-1.13-.43-1.5-.7l.64-1.22c.36.25.81.45,1.34.62.53.17,1.08.26,1.63.26.71,0,1.23-.1,1.54-.3.31-.2.47-.49.47-.85,0-.27-.1-.47-.29-.62-.19-.15-.45-.26-.76-.34-.31-.08-.66-.14-1.05-.2s-.77-.13-1.15-.22c-.38-.09-.74-.22-1.06-.38-.32-.17-.58-.39-.77-.69-.19-.29-.29-.69-.29-1.18s.14-.96.43-1.34c.29-.38.7-.68,1.22-.89.53-.21,1.16-.31,1.88-.31.55,0,1.12.07,1.69.2.57.13,1.04.32,1.4.57l-.66,1.22c-.38-.26-.78-.43-1.2-.53-.42-.1-.83-.14-1.25-.14-.67,0-1.17.11-1.5.33s-.5.5-.5.84c0,.29.1.51.3.66s.45.27.77.36c.31.08.66.16,1.05.22s.77.13,1.15.22c.38.09.73.22,1.05.38.31.16.57.38.77.67s.3.67.3,1.15c0,.51-.15.96-.45,1.33-.3.37-.72.66-1.26.87s-1.19.31-1.95.31Z"/><path d="m186.83,108.91c-.85,0-1.61-.19-2.27-.56-.66-.37-1.18-.89-1.57-1.54s-.58-1.4-.58-2.23.19-1.59.58-2.24c.38-.65.91-1.16,1.57-1.53.66-.37,1.42-.55,2.27-.55s1.6.18,2.26.55c.67.37,1.19.88,1.57,1.52.38.65.57,1.4.57,2.25s-.19,1.59-.57,2.24-.9,1.16-1.57,1.54c-.67.37-1.42.56-2.26.56Zm0-1.34c.54,0,1.03-.12,1.46-.37.43-.25.77-.59,1.02-1.05.25-.45.37-.98.37-1.58s-.12-1.13-.37-1.58c-.25-.44-.58-.79-1.02-1.03-.43-.25-.92-.37-1.46-.37s-1.03.12-1.46.37-.77.59-1.02,1.03c-.26.44-.38.97-.38,1.58s.13,1.12.38,1.58c.26.45.6.8,1.02,1.05.43.25.91.37,1.46.37Z"/><path d="m197.88,100.26c.69,0,1.3.13,1.83.4.53.27.94.67,1.24,1.22s.45,1.23.45,2.06v4.88h-1.54v-4.7c0-.82-.2-1.44-.6-1.86-.4-.42-.96-.62-1.69-.62-.54,0-1.02.11-1.42.32-.41.21-.72.53-.94.94-.22.42-.33.93-.33,1.55v4.37h-1.54v-8.48h1.47v2.29l-.24-.61c.28-.55.7-.99,1.28-1.3s1.25-.46,2.02-.46Z"/><path d="m219.16,100.26c.68,0,1.29.13,1.81.4s.93.67,1.22,1.22c.29.54.44,1.23.44,2.06v4.88h-1.54v-4.7c0-.82-.19-1.44-.58-1.86s-.92-.62-1.62-.62c-.51,0-.96.11-1.34.32-.38.21-.68.53-.89.94s-.31.93-.31,1.55v4.37h-1.54v-4.7c0-.82-.19-1.44-.57-1.86-.38-.42-.92-.62-1.62-.62-.5,0-.94.11-1.33.32-.38.21-.68.53-.9.94-.21.42-.32.93-.32,1.55v4.37h-1.54v-8.48h1.47v2.26l-.24-.58c.27-.55.68-.99,1.23-1.3s1.2-.46,1.94-.46c.81,0,1.51.2,2.1.6.59.4.97,1.01,1.15,1.82l-.62-.26c.26-.65.7-1.17,1.34-1.57.64-.39,1.39-.59,2.24-.59Z"/><path d="m225.84,112.02c-.41,0-.8-.07-1.18-.2-.38-.13-.71-.33-.99-.58l.66-1.15c.21.2.45.36.7.46.26.11.53.16.82.16.37,0,.68-.1.93-.29.25-.19.47-.53.69-1.02l.53-1.17.16-.19,3.33-7.7h1.5l-4.11,9.33c-.25.6-.52,1.07-.82,1.41-.3.34-.64.58-1,.73-.36.14-.76.22-1.2.22Zm2.02-2.93l-3.87-8.75h1.6l3.3,7.55-1.02,1.2Z"/><path d="m242.22,108.91c-.82,0-1.55-.18-2.2-.54-.65-.36-1.15-.87-1.53-1.52-.37-.65-.56-1.41-.56-2.27s.19-1.62.56-2.26c.37-.65.88-1.15,1.53-1.51.65-.36,1.38-.54,2.2-.54.71,0,1.36.16,1.94.48.58.32,1.04.8,1.38,1.44.35.64.52,1.44.52,2.4s-.17,1.76-.5,2.4c-.34.64-.79,1.12-1.37,1.45s-1.23.49-1.97.49Zm.13-1.34c.53,0,1.02-.12,1.45-.37.43-.25.77-.59,1.02-1.05.25-.45.38-.98.38-1.58s-.12-1.13-.38-1.58c-.25-.44-.59-.79-1.02-1.03-.43-.25-.92-.37-1.45-.37s-1.03.12-1.46.37-.77.59-1.02,1.03c-.26.44-.38.97-.38,1.58s.13,1.12.38,1.58c.26.45.6.8,1.02,1.05.43.25.91.37,1.46.37Zm2.9,1.25v-2.29l.1-1.97-.16-1.97v-5.65h1.54v11.87h-1.47Z"/><path d="m250.39,98.71c-.3,0-.55-.1-.74-.29-.2-.19-.3-.43-.3-.7s.1-.53.3-.72c.2-.19.44-.29.74-.29s.55.09.74.28.3.42.3.7-.1.53-.29.73c-.19.2-.44.3-.75.3Zm-.77,10.11v-8.48h1.54v8.48h-1.54Z"/><path d="m258.62,100.26c.69,0,1.3.13,1.83.4.53.27.94.67,1.24,1.22s.45,1.23.45,2.06v4.88h-1.54v-4.7c0-.82-.2-1.44-.6-1.86-.4-.42-.96-.62-1.69-.62-.54,0-1.02.11-1.42.32-.41.21-.72.53-.94.94-.22.42-.33.93-.33,1.55v4.37h-1.54v-8.48h1.47v2.29l-.24-.61c.28-.55.7-.99,1.28-1.3s1.25-.46,2.02-.46Z"/><path d="m265.76,98.71c-.3,0-.55-.1-.74-.29-.2-.19-.3-.43-.3-.7s.1-.53.3-.72c.2-.19.44-.29.74-.29s.55.09.74.28.3.42.3.7-.1.53-.29.73c-.19.2-.44.3-.75.3Zm-.77,10.11v-8.48h1.54v8.48h-1.54Z"/><path d="m273.98,100.26c.69,0,1.3.13,1.83.4.53.27.94.67,1.24,1.22s.45,1.23.45,2.06v4.88h-1.54v-4.7c0-.82-.2-1.44-.6-1.86-.4-.42-.96-.62-1.69-.62-.54,0-1.02.11-1.42.32-.41.21-.72.53-.94.94-.22.42-.33.93-.33,1.55v4.37h-1.54v-8.48h1.47v2.29l-.24-.61c.28-.55.7-.99,1.28-1.3s1.25-.46,2.02-.46Z"/><path d="m283.87,108.47c-.82,0-1.55-.17-2.2-.52-.65-.35-1.16-.83-1.54-1.45-.38-.62-.57-1.33-.57-2.14s.19-1.54.57-2.15c.38-.61.89-1.09,1.54-1.43.64-.34,1.38-.51,2.2-.51.73,0,1.39.15,1.98.44.6.29,1.07.74,1.43,1.35.36.61.54,1.38.54,2.3s-.18,1.68-.54,2.29c-.36.61-.83,1.06-1.43,1.37-.6.3-1.26.46-1.98.46Zm.19,3.55c-.78,0-1.53-.11-2.26-.33-.73-.22-1.33-.53-1.78-.94l.74-1.18c.39.34.88.61,1.46.81.58.2,1.18.3,1.81.3,1,0,1.74-.24,2.21-.7.47-.47.7-1.18.7-2.14v-1.79l.16-1.68-.08-1.7v-2.32h1.46v7.33c0,1.49-.37,2.59-1.12,3.3-.75.7-1.84,1.06-3.28,1.06Zm-.02-4.9c.56,0,1.07-.12,1.5-.35.44-.23.78-.56,1.03-.98.25-.42.38-.9.38-1.44s-.13-1.02-.38-1.44c-.25-.42-.6-.74-1.03-.97-.44-.23-.94-.34-1.5-.34s-1.07.11-1.51.34-.79.55-1.04.97c-.25.42-.38.9-.38,1.44s.13,1.02.38,1.44c.25.42.6.74,1.04.98s.95.35,1.51.35Z"/><path d="m295.69,108.82v-8.48h1.47v2.3l-.14-.58c.23-.59.63-1.03,1.18-1.34s1.24-.46,2.05-.46v1.49c-.06,0-.12-.02-.18-.02h-.17c-.82,0-1.47.25-1.95.74-.48.49-.72,1.2-.72,2.13v4.22h-1.54Z"/><path d="m305.88,108.91c-.85,0-1.61-.19-2.27-.56-.66-.37-1.18-.89-1.57-1.54s-.58-1.4-.58-2.23.19-1.59.58-2.24c.38-.65.91-1.16,1.57-1.53.66-.37,1.42-.55,2.27-.55s1.6.18,2.26.55c.67.37,1.19.88,1.57,1.52.38.65.57,1.4.57,2.25s-.19,1.59-.57,2.24-.9,1.16-1.57,1.54c-.67.37-1.42.56-2.26.56Zm0-1.34c.54,0,1.03-.12,1.46-.37.43-.25.77-.59,1.02-1.05.25-.45.37-.98.37-1.58s-.12-1.13-.37-1.58c-.25-.44-.58-.79-1.02-1.03-.43-.25-.92-.37-1.46-.37s-1.03.12-1.46.37-.77.59-1.02,1.03c-.26.44-.38.97-.38,1.58s.13,1.12.38,1.58c.26.45.6.8,1.02,1.05.43.25.91.37,1.46.37Z"/><path d="m316.04,108.91c-.85,0-1.61-.19-2.27-.56-.66-.37-1.18-.89-1.57-1.54s-.58-1.4-.58-2.23.19-1.59.58-2.24c.38-.65.91-1.16,1.57-1.53.66-.37,1.42-.55,2.27-.55s1.6.18,2.26.55c.67.37,1.19.88,1.57,1.52.38.65.57,1.4.57,2.25s-.19,1.59-.57,2.24-.9,1.16-1.57,1.54c-.67.37-1.42.56-2.26.56Zm0-1.34c.54,0,1.03-.12,1.46-.37.43-.25.77-.59,1.02-1.05.25-.45.37-.98.37-1.58s-.12-1.13-.37-1.58c-.25-.44-.58-.79-1.02-1.03-.43-.25-.92-.37-1.46-.37s-1.03.12-1.46.37-.77.59-1.02,1.03c-.26.44-.38.97-.38,1.58s.13,1.12.38,1.58c.26.45.6.8,1.02,1.05.43.25.91.37,1.46.37Z"/><path d="m333.18,100.26c.68,0,1.29.13,1.81.4s.93.67,1.22,1.22c.29.54.44,1.23.44,2.06v4.88h-1.54v-4.7c0-.82-.19-1.44-.58-1.86s-.92-.62-1.62-.62c-.51,0-.96.11-1.34.32-.38.21-.68.53-.89.94s-.31.93-.31,1.55v4.37h-1.54v-4.7c0-.82-.19-1.44-.57-1.86-.38-.42-.92-.62-1.62-.62-.5,0-.94.11-1.33.32-.38.21-.68.53-.9.94-.21.42-.32.93-.32,1.55v4.37h-1.54v-8.48h1.47v2.26l-.24-.58c.27-.55.68-.99,1.23-1.3s1.2-.46,1.94-.46c.81,0,1.51.2,2.1.6.59.4.97,1.01,1.15,1.82l-.62-.26c.26-.65.7-1.17,1.34-1.57.64-.39,1.39-.59,2.24-.59Z"/><path d="m342.57,101.6v-1.26h5.41v1.26h-5.41Zm4.13,7.31c-.85,0-1.51-.23-1.98-.69s-.7-1.11-.7-1.97v-7.78h1.54v7.71c0,.46.11.81.34,1.06.23.25.56.37.98.37.48,0,.88-.13,1.2-.4l.48,1.1c-.23.2-.51.35-.84.45s-.66.14-1.02.14Z"/><path d="m352.89,108.91c-.63,0-1.18-.11-1.66-.32-.47-.21-.84-.51-1.1-.89-.26-.38-.38-.81-.38-1.29s.11-.87.33-1.25c.22-.37.58-.67,1.07-.9s1.17-.34,2.01-.34h2.69v1.1h-2.62c-.77,0-1.29.13-1.55.38-.27.26-.4.57-.4.93,0,.42.17.75.5,1,.33.25.79.38,1.38.38s1.08-.13,1.51-.38.74-.63.94-1.12l.3,1.06c-.2.5-.56.9-1.07,1.19-.51.29-1.16.44-1.94.44Zm2.78-.1v-1.79l-.08-.34v-3.06c0-.65-.19-1.16-.57-1.51-.38-.36-.95-.54-1.7-.54-.5,0-.99.08-1.47.25-.48.17-.89.39-1.22.66l-.64-1.15c.44-.35.96-.62,1.58-.81.61-.19,1.26-.28,1.93-.28,1.16,0,2.06.28,2.69.85.63.57.94,1.43.94,2.59v5.12h-1.46Z"/><path d="m359.98,108.82v-11.87h1.54v5.65l-.16,1.97.1,1.97v2.29h-1.47Zm4.5.1c-.73,0-1.38-.16-1.96-.49-.58-.33-1.04-.81-1.38-1.45-.34-.64-.5-1.44-.5-2.4s.17-1.76.52-2.4c.35-.64.81-1.12,1.39-1.44.58-.32,1.22-.48,1.93-.48.83,0,1.57.18,2.21.54.64.36,1.15.87,1.52,1.51.37.65.56,1.4.56,2.26s-.19,1.62-.56,2.27c-.37.65-.88,1.16-1.52,1.52-.64.36-1.38.54-2.21.54Zm-.13-1.34c.54,0,1.03-.12,1.46-.37.43-.25.77-.59,1.02-1.05.25-.45.38-.98.38-1.58s-.13-1.13-.38-1.58c-.25-.44-.59-.79-1.02-1.03s-.92-.37-1.46-.37-1.02.12-1.45.37-.77.59-1.02,1.03c-.25.44-.38.97-.38,1.58s.13,1.12.38,1.58c.25.45.59.8,1.02,1.05.43.25.91.37,1.45.37Z"/><path d="m370.89,108.82v-11.87h1.54v11.87h-1.54Z"/><path d="m379.13,108.91c-.91,0-1.7-.19-2.39-.56-.69-.37-1.22-.89-1.6-1.54-.38-.65-.57-1.4-.57-2.24s.18-1.59.55-2.24c.37-.65.88-1.16,1.52-1.53s1.37-.55,2.18-.55,1.55.18,2.18.54c.63.36,1.12.87,1.48,1.53.36.66.54,1.42.54,2.3,0,.06,0,.14,0,.22,0,.08-.01.17-.02.24h-7.22v-1.1h6.42l-.62.38c.01-.54-.1-1.03-.34-1.46-.24-.43-.56-.76-.97-1-.41-.24-.89-.36-1.43-.36s-1.01.12-1.42.36c-.42.24-.74.58-.98,1.01-.24.43-.35.93-.35,1.48v.26c0,.57.13,1.07.39,1.51.26.44.63.79,1.1,1.03.47.25,1.01.37,1.62.37.5,0,.96-.08,1.37-.26.41-.17.77-.43,1.08-.77l.85.99c-.38.45-.86.79-1.43,1.02-.57.23-1.21.35-1.91.35Z"/><path d="m388.23,101.6v-1.26h5.41v1.26h-5.41Zm4.13,7.31c-.85,0-1.51-.23-1.98-.69s-.7-1.11-.7-1.97v-7.78h1.54v7.71c0,.46.11.81.34,1.06.23.25.56.37.98.37.48,0,.88-.13,1.2-.4l.48,1.1c-.23.2-.51.35-.84.45s-.66.14-1.02.14Z"/><path d="m399.71,108.91c-.85,0-1.61-.19-2.27-.56-.66-.37-1.18-.89-1.57-1.54s-.58-1.4-.58-2.23.19-1.59.58-2.24c.38-.65.91-1.16,1.57-1.53.66-.37,1.42-.55,2.27-.55s1.6.18,2.26.55c.67.37,1.19.88,1.57,1.52.38.65.57,1.4.57,2.25s-.19,1.59-.57,2.24-.9,1.16-1.57,1.54c-.67.37-1.42.56-2.26.56Zm0-1.34c.54,0,1.03-.12,1.46-.37.43-.25.77-.59,1.02-1.05.25-.45.37-.98.37-1.58s-.12-1.13-.37-1.58c-.25-.44-.58-.79-1.02-1.03-.43-.25-.92-.37-1.46-.37s-1.03.12-1.46.37-.77.59-1.02,1.03c-.26.44-.38.97-.38,1.58s.13,1.12.38,1.58c.26.45.6.8,1.02,1.05.43.25.91.37,1.46.37Z"/><path d="m82.57,128.12c-.7,0-1.37-.1-2.01-.29-.63-.19-1.13-.43-1.5-.7l.64-1.22c.36.25.81.45,1.34.62.53.17,1.08.26,1.63.26.71,0,1.23-.1,1.54-.3.31-.2.47-.49.47-.85,0-.27-.1-.47-.29-.62-.19-.15-.45-.26-.76-.34-.31-.08-.66-.14-1.05-.2-.38-.06-.77-.13-1.15-.22-.38-.09-.74-.22-1.06-.38-.32-.17-.58-.39-.77-.69s-.29-.69-.29-1.18.14-.96.43-1.34c.29-.38.7-.68,1.22-.89.53-.21,1.15-.31,1.88-.31.55,0,1.12.07,1.69.2.57.13,1.04.32,1.4.57l-.66,1.22c-.38-.26-.78-.43-1.2-.53-.42-.1-.83-.14-1.25-.14-.67,0-1.17.11-1.5.33-.33.22-.5.5-.5.84,0,.29.1.51.3.66.2.15.45.27.77.36.31.08.66.16,1.05.22s.77.13,1.15.22c.38.09.73.22,1.05.38s.57.38.77.67.3.67.3,1.15c0,.51-.15.96-.45,1.33-.3.37-.72.66-1.26.87s-1.19.31-1.95.31Z"/><path d="m91.79,128.12c-.85,0-1.61-.19-2.27-.56s-1.18-.89-1.57-1.54c-.38-.66-.58-1.4-.58-2.23s.19-1.59.58-2.24c.38-.65.91-1.16,1.57-1.53s1.42-.55,2.27-.55,1.6.18,2.26.55,1.19.88,1.57,1.52c.38.65.57,1.4.57,2.25s-.19,1.59-.57,2.24c-.38.65-.9,1.16-1.57,1.54s-1.42.56-2.26.56Zm0-1.34c.54,0,1.03-.12,1.46-.37.43-.25.77-.59,1.02-1.05.25-.45.37-.98.37-1.58s-.12-1.13-.37-1.58c-.25-.44-.58-.79-1.02-1.03s-.92-.37-1.46-.37-1.03.12-1.46.37-.77.59-1.02,1.03c-.26.44-.38.97-.38,1.58s.13,1.12.38,1.58.6.8,1.02,1.05c.43.25.91.37,1.46.37Z"/><path d="m98.32,128.02v-8.48h1.47v2.3l-.14-.58c.23-.59.63-1.03,1.18-1.34s1.24-.46,2.05-.46v1.49c-.06,0-.13-.02-.18-.02h-.17c-.82,0-1.47.25-1.95.74-.48.49-.72,1.2-.72,2.13v4.22h-1.54Z"/><path d="m103.66,120.8v-1.26h5.41v1.26h-5.41Zm4.13,7.31c-.85,0-1.52-.23-1.98-.69-.47-.46-.7-1.11-.7-1.97v-7.78h1.54v7.71c0,.46.11.81.34,1.06.23.25.56.37.98.37.48,0,.88-.13,1.2-.4l.48,1.1c-.23.2-.51.35-.84.45s-.66.14-1.02.14Z"/><path d="m118.28,128.12c-.63,0-1.18-.11-1.66-.32-.47-.21-.84-.51-1.1-.89-.26-.38-.38-.81-.38-1.29s.11-.87.33-1.25c.22-.37.58-.67,1.07-.9s1.17-.34,2.01-.34h2.69v1.1h-2.62c-.77,0-1.29.13-1.55.38-.27.26-.4.57-.4.93,0,.42.17.75.5,1,.33.25.79.38,1.38.38s1.08-.13,1.51-.38.74-.63.94-1.12l.3,1.06c-.2.5-.56.9-1.07,1.19-.51.29-1.16.44-1.94.44Zm2.78-.1v-1.79l-.08-.34v-3.06c0-.65-.19-1.16-.57-1.51-.38-.36-.95-.54-1.7-.54-.5,0-.99.08-1.47.25-.48.17-.88.39-1.22.66l-.64-1.15c.44-.35.96-.62,1.58-.81.61-.19,1.26-.28,1.93-.28,1.16,0,2.06.28,2.69.85.63.57.94,1.43.94,2.59v5.12h-1.46Z"/><path d="m129.9,119.46c.69,0,1.3.13,1.83.4.53.27.94.67,1.24,1.22s.45,1.23.45,2.06v4.88h-1.54v-4.7c0-.82-.2-1.44-.6-1.86-.4-.42-.96-.62-1.69-.62-.54,0-1.02.11-1.42.32-.41.21-.72.53-.94.94-.22.42-.33.93-.33,1.55v4.37h-1.54v-8.48h1.47v2.29l-.24-.61c.28-.55.7-.99,1.28-1.3s1.25-.46,2.02-.46Z"/><path d="m139.77,128.12c-.82,0-1.55-.18-2.2-.54-.65-.36-1.15-.87-1.53-1.52-.37-.65-.56-1.41-.56-2.27s.19-1.62.56-2.26c.37-.65.88-1.15,1.53-1.51.65-.36,1.38-.54,2.2-.54.71,0,1.36.16,1.94.48.58.32,1.04.8,1.38,1.44.35.64.52,1.44.52,2.4s-.17,1.76-.5,2.4c-.34.64-.79,1.12-1.37,1.45s-1.23.49-1.97.49Zm.13-1.34c.53,0,1.02-.12,1.45-.37.43-.25.77-.59,1.02-1.05.25-.45.38-.98.38-1.58s-.12-1.13-.38-1.58c-.25-.44-.59-.79-1.02-1.03-.43-.25-.92-.37-1.45-.37s-1.03.12-1.46.37-.77.59-1.02,1.03c-.26.44-.38.97-.38,1.58s.13,1.12.38,1.58c.26.45.6.8,1.02,1.05.43.25.91.37,1.46.37Zm2.9,1.25v-2.29l.1-1.97-.16-1.97v-5.65h1.54v11.87h-1.47Z"/><path d="m155,127.67c-.82,0-1.55-.17-2.2-.52-.65-.35-1.16-.83-1.54-1.45-.38-.62-.57-1.33-.57-2.14s.19-1.54.57-2.15c.38-.61.89-1.09,1.54-1.43.64-.34,1.38-.51,2.2-.51.73,0,1.39.15,1.98.44.6.29,1.07.74,1.43,1.35.36.61.54,1.38.54,2.3s-.18,1.68-.54,2.29c-.36.61-.83,1.06-1.43,1.37-.6.3-1.26.46-1.98.46Zm.19,3.55c-.78,0-1.53-.11-2.26-.33-.73-.22-1.33-.53-1.78-.94l.74-1.18c.39.34.88.61,1.46.81.58.2,1.18.3,1.81.3,1,0,1.74-.24,2.21-.7.47-.47.7-1.18.7-2.14v-1.79l.16-1.68-.08-1.7v-2.32h1.46v7.33c0,1.49-.37,2.59-1.12,3.3-.75.7-1.84,1.06-3.28,1.06Zm-.02-4.9c.56,0,1.07-.12,1.5-.35.44-.23.78-.56,1.03-.98.25-.42.38-.9.38-1.44s-.13-1.02-.38-1.44c-.25-.42-.6-.74-1.03-.97-.44-.23-.94-.34-1.5-.34s-1.07.11-1.51.34-.79.55-1.04.97c-.25.42-.38.9-.38,1.44s.13,1.02.38,1.44c.25.42.6.74,1.04.98s.95.35,1.51.35Z"/><path d="m162.52,128.02v-8.48h1.47v2.3l-.14-.58c.23-.59.63-1.03,1.18-1.34s1.24-.46,2.05-.46v1.49c-.06,0-.12-.02-.18-.02h-.17c-.82,0-1.47.25-1.95.74-.48.49-.72,1.2-.72,2.13v4.22h-1.54Z"/><path d="m172.72,128.12c-.85,0-1.61-.19-2.27-.56-.66-.37-1.18-.89-1.57-1.54s-.58-1.4-.58-2.23.19-1.59.58-2.24c.38-.65.91-1.16,1.57-1.53.66-.37,1.42-.55,2.27-.55s1.6.18,2.26.55c.67.37,1.19.88,1.57,1.52.38.65.57,1.4.57,2.25s-.19,1.59-.57,2.24-.9,1.16-1.57,1.54c-.67.37-1.42.56-2.26.56Zm0-1.34c.54,0,1.03-.12,1.46-.37.43-.25.77-.59,1.02-1.05.25-.45.37-.98.37-1.58s-.12-1.13-.37-1.58c-.25-.44-.58-.79-1.02-1.03-.43-.25-.92-.37-1.46-.37s-1.03.12-1.46.37-.77.59-1.02,1.03c-.26.44-.38.97-.38,1.58s.13,1.12.38,1.58c.26.45.6.8,1.02,1.05.43.25.91.37,1.46.37Z"/><path d="m182.81,128.12c-.73,0-1.36-.13-1.91-.4-.55-.27-.98-.67-1.28-1.22-.3-.55-.46-1.24-.46-2.07v-4.88h1.54v4.7c0,.83.2,1.46.6,1.87.4.42.96.62,1.69.62.53,0,1-.11,1.39-.33.39-.22.7-.54.91-.96.21-.42.32-.93.32-1.53v-4.38h1.54v8.48h-1.46v-2.29l.24.61c-.28.57-.69,1-1.25,1.31-.56.31-1.18.46-1.87.46Z"/><path d="m190.08,131.12v-11.58h1.47v2.29l-.1,1.97.16,1.97v5.36h-1.54Zm4.5-3.01c-.7,0-1.35-.16-1.93-.49-.58-.33-1.05-.81-1.39-1.45-.35-.64-.52-1.44-.52-2.4s.17-1.76.5-2.4c.34-.64.79-1.12,1.38-1.44.58-.32,1.23-.48,1.96-.48.83,0,1.57.18,2.21.54.64.36,1.15.87,1.52,1.51.37.65.56,1.4.56,2.26s-.19,1.62-.56,2.27c-.37.65-.88,1.16-1.52,1.52-.64.36-1.38.54-2.21.54Zm-.13-1.34c.54,0,1.03-.12,1.46-.37.43-.25.77-.59,1.02-1.05.25-.45.38-.98.38-1.58s-.13-1.13-.38-1.58c-.25-.44-.59-.79-1.02-1.03s-.92-.37-1.46-.37-1.02.12-1.45.37-.77.59-1.02,1.03c-.25.44-.38.97-.38,1.58s.13,1.12.38,1.58c.25.45.59.8,1.02,1.05.43.25.91.37,1.45.37Z"/><path d="m207.51,128.02l-3.71-8.48h1.6l3.3,7.68h-.77l3.36-7.68h1.5l-3.71,8.48h-1.57Z"/><path d="m216.72,128.12c-.63,0-1.18-.11-1.66-.32-.47-.21-.84-.51-1.1-.89-.26-.38-.38-.81-.38-1.29s.11-.87.33-1.25c.22-.37.58-.67,1.07-.9s1.17-.34,2.01-.34h2.69v1.1h-2.62c-.77,0-1.29.13-1.55.38-.27.26-.4.57-.4.93,0,.42.17.75.5,1,.33.25.79.38,1.38.38s1.08-.13,1.51-.38.74-.63.94-1.12l.3,1.06c-.2.5-.56.9-1.07,1.19-.51.29-1.16.44-1.94.44Zm2.78-.1v-1.79l-.08-.34v-3.06c0-.65-.19-1.16-.57-1.51-.38-.36-.95-.54-1.7-.54-.5,0-.99.08-1.47.25-.48.17-.89.39-1.22.66l-.64-1.15c.44-.35.96-.62,1.58-.81.61-.19,1.26-.28,1.93-.28,1.16,0,2.06.28,2.69.85.63.57.94,1.43.94,2.59v5.12h-1.46Z"/><path d="m223.8,128.02v-8.48h1.47v2.3l-.14-.58c.23-.59.63-1.03,1.18-1.34s1.24-.46,2.05-.46v1.49c-.06,0-.12-.02-.18-.02h-.17c-.82,0-1.47.25-1.95.74-.48.49-.72,1.2-.72,2.13v4.22h-1.54Z"/><path d="m231.13,117.91c-.3,0-.55-.1-.74-.29-.2-.19-.3-.43-.3-.7s.1-.53.3-.72c.2-.19.44-.29.74-.29s.55.09.74.28.3.42.3.7-.1.53-.29.73c-.19.2-.44.3-.75.3Zm-.77,10.11v-8.48h1.54v8.48h-1.54Z"/><path d="m238.46,128.12c-.85,0-1.61-.19-2.27-.56-.66-.37-1.18-.89-1.57-1.54s-.58-1.4-.58-2.23.19-1.59.58-2.24c.38-.65.91-1.16,1.57-1.53.66-.37,1.42-.55,2.27-.55s1.6.18,2.26.55c.67.37,1.19.88,1.57,1.52.38.65.57,1.4.57,2.25s-.19,1.59-.57,2.24-.9,1.16-1.57,1.54c-.67.37-1.42.56-2.26.56Zm0-1.34c.54,0,1.03-.12,1.46-.37.43-.25.77-.59,1.02-1.05.25-.45.37-.98.37-1.58s-.12-1.13-.37-1.58c-.25-.44-.58-.79-1.02-1.03-.43-.25-.92-.37-1.46-.37s-1.03.12-1.46.37-.77.59-1.02,1.03c-.26.44-.38.97-.38,1.58s.13,1.12.38,1.58c.26.45.6.8,1.02,1.05.43.25.91.37,1.46.37Z"/><path d="m248.55,128.12c-.73,0-1.36-.13-1.91-.4-.55-.27-.98-.67-1.28-1.22-.3-.55-.46-1.24-.46-2.07v-4.88h1.54v4.7c0,.83.2,1.46.6,1.87.4.42.96.62,1.69.62.53,0,1-.11,1.39-.33.39-.22.7-.54.91-.96.21-.42.32-.93.32-1.53v-4.38h1.54v8.48h-1.46v-2.29l.24.61c-.28.57-.69,1-1.25,1.31-.56.31-1.18.46-1.87.46Z"/><path d="m258.25,128.12c-.7,0-1.37-.1-2.01-.29-.63-.19-1.13-.43-1.5-.7l.64-1.22c.36.25.81.45,1.34.62.53.17,1.08.26,1.63.26.71,0,1.23-.1,1.54-.3.31-.2.47-.49.47-.85,0-.27-.1-.47-.29-.62-.19-.15-.45-.26-.76-.34-.31-.08-.66-.14-1.05-.2s-.77-.13-1.15-.22c-.38-.09-.74-.22-1.06-.38-.32-.17-.58-.39-.77-.69-.19-.29-.29-.69-.29-1.18s.14-.96.43-1.34c.29-.38.7-.68,1.22-.89.53-.21,1.16-.31,1.88-.31.55,0,1.12.07,1.69.2.57.13,1.04.32,1.4.57l-.66,1.22c-.38-.26-.78-.43-1.2-.53-.42-.1-.83-.14-1.25-.14-.67,0-1.17.11-1.5.33s-.5.5-.5.84c0,.29.1.51.3.66s.45.27.77.36c.31.08.66.16,1.05.22s.77.13,1.15.22c.38.09.73.22,1.05.38.31.16.57.38.77.67s.3.67.3,1.15c0,.51-.15.96-.45,1.33-.3.37-.72.66-1.26.87s-1.19.31-1.95.31Z"/><path d="m268.14,128.02v-11.87h1.54v11.87h-1.54Z"/><path d="m276.38,128.12c-.91,0-1.7-.19-2.39-.56-.69-.37-1.22-.89-1.6-1.54-.38-.65-.57-1.4-.57-2.24s.18-1.59.55-2.24c.37-.65.88-1.16,1.52-1.53s1.37-.55,2.18-.55,1.55.18,2.18.54c.63.36,1.12.87,1.48,1.53.36.66.54,1.42.54,2.3,0,.06,0,.14,0,.22,0,.08-.01.17-.02.24h-7.22v-1.1h6.42l-.62.38c.01-.54-.1-1.03-.34-1.46-.24-.43-.56-.76-.97-1-.41-.24-.89-.36-1.43-.36s-1.01.12-1.42.36c-.42.24-.74.58-.98,1.01-.24.43-.35.93-.35,1.48v.26c0,.57.13,1.07.39,1.51.26.44.63.79,1.1,1.03.47.25,1.01.37,1.62.37.5,0,.96-.08,1.37-.26.41-.17.77-.43,1.08-.77l.85.99c-.38.45-.86.79-1.43,1.02-.57.23-1.21.35-1.91.35Z"/><path d="m284.83,128.12c-.7,0-1.37-.1-2.01-.29-.63-.19-1.13-.43-1.5-.7l.64-1.22c.36.25.81.45,1.34.62.53.17,1.08.26,1.63.26.71,0,1.23-.1,1.54-.3.31-.2.47-.49.47-.85,0-.27-.1-.47-.29-.62-.19-.15-.45-.26-.76-.34-.31-.08-.66-.14-1.05-.2s-.77-.13-1.15-.22c-.38-.09-.74-.22-1.06-.38-.32-.17-.58-.39-.77-.69-.19-.29-.29-.69-.29-1.18s.14-.96.43-1.34c.29-.38.7-.68,1.22-.89.53-.21,1.16-.31,1.88-.31.55,0,1.12.07,1.69.2.57.13,1.04.32,1.4.57l-.66,1.22c-.38-.26-.78-.43-1.2-.53-.42-.1-.83-.14-1.25-.14-.67,0-1.17.11-1.5.33s-.5.5-.5.84c0,.29.1.51.3.66s.45.27.77.36c.31.08.66.16,1.05.22s.77.13,1.15.22c.38.09.73.22,1.05.38.31.16.57.38.77.67s.3.67.3,1.15c0,.51-.15.96-.45,1.33-.3.37-.72.66-1.26.87s-1.19.31-1.95.31Z"/><path d="m292.84,128.12c-.7,0-1.37-.1-2.01-.29-.63-.19-1.13-.43-1.5-.7l.64-1.22c.36.25.81.45,1.34.62.53.17,1.08.26,1.63.26.71,0,1.23-.1,1.54-.3.31-.2.47-.49.47-.85,0-.27-.1-.47-.29-.62-.19-.15-.45-.26-.76-.34-.31-.08-.66-.14-1.05-.2s-.77-.13-1.15-.22c-.38-.09-.74-.22-1.06-.38-.32-.17-.58-.39-.77-.69-.19-.29-.29-.69-.29-1.18s.14-.96.43-1.34c.29-.38.7-.68,1.22-.89.53-.21,1.16-.31,1.88-.31.55,0,1.12.07,1.69.2.57.13,1.04.32,1.4.57l-.66,1.22c-.38-.26-.78-.43-1.2-.53-.42-.1-.83-.14-1.25-.14-.67,0-1.17.11-1.5.33s-.5.5-.5.84c0,.29.1.51.3.66s.45.27.77.36c.31.08.66.16,1.05.22s.77.13,1.15.22c.38.09.73.22,1.05.38.31.16.57.38.77.67s.3.67.3,1.15c0,.51-.15.96-.45,1.33-.3.37-.72.66-1.26.87s-1.19.31-1.95.31Z"/><path d="m302.06,128.12c-.85,0-1.61-.19-2.27-.56-.66-.37-1.18-.89-1.57-1.54s-.58-1.4-.58-2.23.19-1.59.58-2.24c.38-.65.91-1.16,1.57-1.53.66-.37,1.42-.55,2.27-.55s1.6.18,2.26.55c.67.37,1.19.88,1.57,1.52.38.65.57,1.4.57,2.25s-.19,1.59-.57,2.24-.9,1.16-1.57,1.54c-.67.37-1.42.56-2.26.56Zm0-1.34c.54,0,1.03-.12,1.46-.37.43-.25.77-.59,1.02-1.05.25-.45.37-.98.37-1.58s-.12-1.13-.37-1.58c-.25-.44-.58-.79-1.02-1.03-.43-.25-.92-.37-1.46-.37s-1.03.12-1.46.37-.77.59-1.02,1.03c-.26.44-.38.97-.38,1.58s.13,1.12.38,1.58c.26.45.6.8,1.02,1.05.43.25.91.37,1.46.37Z"/><path d="m313.11,119.46c.69,0,1.3.13,1.83.4.53.27.94.67,1.24,1.22s.45,1.23.45,2.06v4.88h-1.54v-4.7c0-.82-.2-1.44-.6-1.86-.4-.42-.96-.62-1.69-.62-.54,0-1.02.11-1.42.32-.41.21-.72.53-.94.94-.22.42-.33.93-.33,1.55v4.37h-1.54v-8.48h1.47v2.29l-.24-.61c.28-.55.7-.99,1.28-1.3s1.25-.46,2.02-.46Z"/><path d="m321.91,128.12c-.7,0-1.37-.1-2.01-.29-.63-.19-1.13-.43-1.5-.7l.64-1.22c.36.25.81.45,1.34.62.53.17,1.08.26,1.63.26.71,0,1.23-.1,1.54-.3.31-.2.47-.49.47-.85,0-.27-.1-.47-.29-.62-.19-.15-.45-.26-.76-.34-.31-.08-.66-.14-1.05-.2s-.77-.13-1.15-.22c-.38-.09-.74-.22-1.06-.38-.32-.17-.58-.39-.77-.69-.19-.29-.29-.69-.29-1.18s.14-.96.43-1.34c.29-.38.7-.68,1.22-.89.53-.21,1.16-.31,1.88-.31.55,0,1.12.07,1.69.2.57.13,1.04.32,1.4.57l-.66,1.22c-.38-.26-.78-.43-1.2-.53-.42-.1-.83-.14-1.25-.14-.67,0-1.17.11-1.5.33s-.5.5-.5.84c0,.29.1.51.3.66s.45.27.77.36c.31.08.66.16,1.05.22s.77.13,1.15.22c.38.09.73.22,1.05.38.31.16.57.38.77.67s.3.67.3,1.15c0,.51-.15.96-.45,1.33-.3.37-.72.66-1.26.87s-1.19.31-1.95.31Z"/><path d="m325.59,129.62l5.28-15.07h1.39l-5.28,15.07h-1.39Z"/><path d="m333.13,131.12v-11.58h1.47v2.29l-.1,1.97.16,1.97v5.36h-1.54Zm4.5-3.01c-.7,0-1.35-.16-1.93-.49-.58-.33-1.05-.81-1.39-1.45-.35-.64-.52-1.44-.52-2.4s.17-1.76.5-2.4c.34-.64.79-1.12,1.38-1.44.58-.32,1.23-.48,1.96-.48.83,0,1.57.18,2.21.54.64.36,1.15.87,1.52,1.51.37.65.56,1.4.56,2.26s-.19,1.62-.56,2.27c-.37.65-.88,1.16-1.52,1.52-.64.36-1.38.54-2.21.54Zm-.13-1.34c.54,0,1.03-.12,1.46-.37.43-.25.77-.59,1.02-1.05.25-.45.38-.98.38-1.58s-.13-1.13-.38-1.58c-.25-.44-.59-.79-1.02-1.03s-.92-.37-1.46-.37-1.02.12-1.45.37-.77.59-1.02,1.03c-.25.44-.38.97-.38,1.58s.13,1.12.38,1.58c.25.45.59.8,1.02,1.05.43.25.91.37,1.45.37Z"/><path d="m344.04,128.02v-8.48h1.47v2.3l-.14-.58c.23-.59.63-1.03,1.18-1.34s1.24-.46,2.05-.46v1.49c-.06,0-.12-.02-.18-.02h-.17c-.82,0-1.47.25-1.95.74-.48.49-.72,1.2-.72,2.13v4.22h-1.54Z"/><path d="m354.23,128.12c-.85,0-1.61-.19-2.27-.56-.66-.37-1.18-.89-1.57-1.54s-.58-1.4-.58-2.23.19-1.59.58-2.24c.38-.65.91-1.16,1.57-1.53.66-.37,1.42-.55,2.27-.55s1.6.18,2.26.55c.67.37,1.19.88,1.57,1.52.38.65.57,1.4.57,2.25s-.19,1.59-.57,2.24-.9,1.16-1.57,1.54c-.67.37-1.42.56-2.26.56Zm0-1.34c.54,0,1.03-.12,1.46-.37.43-.25.77-.59,1.02-1.05.25-.45.37-.98.37-1.58s-.12-1.13-.37-1.58c-.25-.44-.58-.79-1.02-1.03-.43-.25-.92-.37-1.46-.37s-1.03.12-1.46.37-.77.59-1.02,1.03c-.26.44-.38.97-.38,1.58s.13,1.12.38,1.58c.26.45.6.8,1.02,1.05.43.25.91.37,1.46.37Z"/><path d="m359.67,131.22c-.35,0-.69-.04-1.02-.13-.33-.09-.6-.21-.82-.38l.5-1.18c.32.27.74.4,1.25.4.41,0,.72-.13.94-.38.22-.25.33-.62.33-1.11v-8.9h1.54v8.86c0,.86-.23,1.55-.7,2.06-.46.51-1.13.76-2.01.76Zm1.94-13.31c-.3,0-.55-.1-.74-.29-.2-.19-.3-.43-.3-.7s.1-.53.3-.72c.2-.19.45-.29.74-.29s.55.09.74.28.3.42.3.7-.1.53-.29.73c-.19.2-.44.3-.75.3Z"/><path d="m369.08,128.12c-.91,0-1.7-.19-2.39-.56-.69-.37-1.22-.89-1.6-1.54-.38-.65-.57-1.4-.57-2.24s.18-1.59.55-2.24c.37-.65.88-1.16,1.52-1.53s1.37-.55,2.18-.55,1.55.18,2.18.54c.63.36,1.12.87,1.48,1.53.36.66.54,1.42.54,2.3,0,.06,0,.14,0,.22,0,.08-.01.17-.02.24h-7.22v-1.1h6.42l-.62.38c.01-.54-.1-1.03-.34-1.46-.24-.43-.56-.76-.97-1-.41-.24-.89-.36-1.43-.36s-1.01.12-1.42.36c-.42.24-.74.58-.98,1.01-.24.43-.35.93-.35,1.48v.26c0,.57.13,1.07.39,1.51.26.44.63.79,1.1,1.03.47.25,1.01.37,1.62.37.5,0,.96-.08,1.37-.26.41-.17.77-.43,1.08-.77l.85.99c-.38.45-.86.79-1.43,1.02-.57.23-1.21.35-1.91.35Z"/><path d="m378.79,128.12c-.86,0-1.63-.19-2.31-.56s-1.21-.89-1.59-1.54-.58-1.4-.58-2.24.19-1.59.58-2.24c.38-.65.91-1.16,1.59-1.53s1.45-.55,2.31-.55c.77,0,1.45.15,2.06.46.6.3,1.07.75,1.4,1.35l-1.17.75c-.28-.42-.62-.72-1.02-.92-.4-.2-.83-.3-1.29-.3-.55,0-1.05.12-1.49.37-.44.25-.78.59-1.04,1.03-.26.44-.38.97-.38,1.58s.13,1.14.38,1.58c.26.45.6.79,1.04,1.04.44.25.93.37,1.49.37.46,0,.89-.1,1.29-.3.4-.2.74-.5,1.02-.92l1.17.74c-.33.59-.8,1.04-1.4,1.35s-1.29.47-2.06.47Z"/><path d="m383.02,120.8v-1.26h5.41v1.26h-5.41Zm4.13,7.31c-.85,0-1.51-.23-1.98-.69s-.7-1.11-.7-1.97v-7.78h1.54v7.71c0,.46.11.81.34,1.06.23.25.56.37.98.37.48,0,.88-.13,1.2-.4l.48,1.1c-.23.2-.51.35-.84.45s-.66.14-1.02.14Z"/><path d="m393.29,128.12c-.7,0-1.37-.1-2.01-.29-.63-.19-1.13-.43-1.5-.7l.64-1.22c.36.25.81.45,1.34.62.53.17,1.08.26,1.63.26.71,0,1.23-.1,1.54-.3.31-.2.47-.49.47-.85,0-.27-.1-.47-.29-.62-.19-.15-.45-.26-.76-.34-.31-.08-.66-.14-1.05-.2s-.77-.13-1.15-.22c-.38-.09-.74-.22-1.06-.38-.32-.17-.58-.39-.77-.69-.19-.29-.29-.69-.29-1.18s.14-.96.43-1.34c.29-.38.7-.68,1.22-.89.53-.21,1.16-.31,1.88-.31.55,0,1.12.07,1.69.2.57.13,1.04.32,1.4.57l-.66,1.22c-.38-.26-.78-.43-1.2-.53-.42-.1-.83-.14-1.25-.14-.67,0-1.17.11-1.5.33s-.5.5-.5.84c0,.29.1.51.3.66s.45.27.77.36c.31.08.66.16,1.05.22s.77.13,1.15.22c.38.09.73.22,1.05.38.31.16.57.38.77.67s.3.67.3,1.15c0,.51-.15.96-.45,1.33-.3.37-.72.66-1.26.87s-1.19.31-1.95.31Z"/><rect class="cls-1" x="35.9" y="113.46" width="56.89" height="1.14" transform="translate(178.37 49.69) rotate(90)"/><path class="cls-1" d="m38.51,100.15l-4.97,20.19-1.19-5.77c1.92,0,3.51.6,4.77,1.79,1.26,1.19,1.89,2.79,1.89,4.78s-.63,3.61-1.89,4.87c-1.26,1.26-2.82,1.89-4.68,1.89s-3.52-.65-4.77-1.94c-1.26-1.29-1.89-2.9-1.89-4.83,0-.66.05-1.29.15-1.89.1-.6.28-1.31.55-2.14.26-.83.63-1.84,1.09-3.03l4.68-13.93h6.27Zm18.8,0l-4.97,20.19-1.19-5.77c1.92,0,3.51.6,4.78,1.79,1.26,1.19,1.89,2.79,1.89,4.78s-.63,3.61-1.89,4.87c-1.26,1.26-2.82,1.89-4.68,1.89s-3.52-.65-4.78-1.94c-1.26-1.29-1.89-2.9-1.89-4.83,0-.66.05-1.29.15-1.89.1-.6.28-1.31.55-2.14.26-.83.63-1.84,1.09-3.03l4.68-13.93h6.27Z"/></svg>